<svg width="20" height="20" viewBox="0 0 20 20" fill="none" xmlns="http://www.w3.org/2000/svg">
<path d="M15.6 9V10V16.3C15.6 17.2 14.8 18 13.9 18H4.7C3.7 18 3 17.2 3 16.3V3.7C3 2.8 3.7 2 4.7 2H9H11" stroke="#faf6f0" stroke-width="2" stroke-miterlimit="10" stroke-linecap="round" stroke-linejoin="round"/>
<path d="M8.4001 8.99986L7.6001 11.3999C7.6001 11.4999 7.6001 11.4999 7.7001 11.4999L10.1001 10.6999C10.2001 10.6999 10.4001 10.5999 10.5001 10.4999L17.0001 4.09986C17.4001 3.69986 17.4001 3.09986 17.0001 2.69986L16.5001 2.19986C16.1001 1.79986 15.5001 1.89986 15.2001 2.19986L8.7001 8.59986C8.6001 8.79986 8.5001 8.89986 8.4001 8.99986Z" stroke="#faf6f0" stroke-width="1.5" stroke-miterlimit="10"/>
<path d="M13.3 3.2002L15.1 5.0002" stroke="#faf6f0" stroke-width="1.5" stroke-miterlimit="10"/>
</svg>
