<svg width="134" height="42" viewBox="0 0 134 42" fill="none" xmlns="http://www.w3.org/2000/svg">
<path d="M0 20.9979C0 25.9633 0.405155 31.9042 5.0412 35.8768C12.1532 41.9644 16.7981 42 21.8372 42C26.8763 42 31.0758 40.25 36.9542 34.1264C40.2899 30.6438 41.8574 27.1079 41.991 23.6253C42.0625 21.8484 41.1717 17.9605 40.7887 16.5577C39.1097 10.4344 36.0368 7.54407 33.1153 4.84527C27.8648 -1.63665e-06 21.8372 0 18.4773 0C13.4382 0 9.4234 1.55426 5.88069 5.25057C2.5206 8.75095 0 15.7473 0 20.9979Z" fill="#FDFBF9"/>
<path d="M35.3731 17.6935C34.7228 17.0834 33.7655 16.7761 32.5005 16.7761C31.7703 16.7761 31.1112 16.9141 30.5278 17.1812C29.9445 17.4485 29.5034 17.8271 29.205 18.3169H28.9357C28.341 17.2925 27.2099 16.7761 25.5375 16.7761C24.8049 16.7761 24.1592 16.9185 23.5891 17.1858C23.0258 17.4574 22.594 17.8359 22.2931 18.317H22.124L21.8102 16.9766H21.8013L21.8102 16.9587H19.3853L16.152 23.425V12.9194H12.9234V16.2328C12.9234 16.8428 12.9992 17.5376 13.1551 18.3213H13.0571C12.309 17.2969 11.4116 16.7848 9.99319 16.7848C8.64372 16.7848 7.58156 17.2613 6.80901 18.2232C6.0386 19.1807 5.65332 20.5211 5.65332 22.2401C5.65332 23.9324 6.03187 25.2594 6.78884 26.2171C7.54595 27.1744 8.59023 27.6509 9.91296 27.6509C11.3469 27.6509 12.3044 27.1345 13.0035 26.1056H13.137L13.7294 27.4594H16.152H16.5575L19.3853 21.8037V27.4594H22.4314V22.525C22.4314 21.2958 22.6096 20.4097 22.9613 19.8754C23.3131 19.3321 23.881 19.065 24.658 19.065C25.2414 19.065 25.6645 19.2565 25.934 19.635C26.2034 20.0136 26.3368 20.5792 26.3368 21.3363V27.4595H29.383V22.2002C29.383 21.1136 29.5702 20.3165 29.9398 19.8177C30.3094 19.3143 30.8662 19.065 31.612 19.065C32.1932 19.065 32.6164 19.2565 32.8835 19.635C33.1551 20.0136 33.2887 20.5792 33.2887 21.3363V27.4595H36.3482V20.6237C36.3483 19.2789 36.0232 18.3036 35.3731 17.6935ZM13.3242 22.6412C13.2931 23.6568 13.0948 24.378 12.7363 24.8055C12.3802 25.2288 11.8169 25.4424 11.0485 25.4424C10.3562 25.4424 9.81928 25.1842 9.44545 24.6675C9.07118 24.1554 8.88412 23.3805 8.88412 22.3473C8.88412 21.3186 9.07118 20.5347 9.44087 19.996C9.81042 19.4527 10.3317 19.181 10.9996 19.181C11.8189 19.181 12.4135 19.4258 12.7765 19.9112C13.1418 20.3967 13.3242 21.2072 13.3242 22.3294V22.6412Z" fill="#2B2B2B"/>
<path d="M67.6765 25.7673C67.0287 25.1572 66.0732 24.8544 64.8064 24.8544C64.0759 24.8544 63.4169 24.9924 62.8335 25.2596C62.2502 25.5312 61.8091 25.9054 61.5107 26.3952H61.2391C60.6467 25.3708 59.5156 24.8544 57.8455 24.8544C57.1107 24.8544 56.4605 24.9924 55.8948 25.2596C55.3294 25.5359 54.8973 25.91 54.5989 26.3952H54.4297L54.1135 25.0548L51.6931 25.0412L50.0742 28.27L51.6931 29.0762V35.538H54.737V30.6037C54.737 29.3701 54.9152 28.4885 55.2692 27.9494C55.6188 27.4105 56.1889 27.1433 56.9636 27.1433C57.5469 27.1433 57.9701 27.3348 58.2418 27.7132C58.5091 28.0918 58.6427 28.6528 58.6427 29.4145V35.5379H61.6887V30.2739C61.6887 29.1873 61.8758 28.3946 62.2455 27.8914C62.615 27.3926 63.1718 27.1433 63.9176 27.1433C64.4966 27.1433 64.9219 27.3348 65.1914 27.7132C65.4607 28.0918 65.5965 28.6528 65.5965 29.4145V35.5379H68.6493V28.7019C68.6494 27.3571 68.3267 26.3775 67.6765 25.7673ZM78.104 35.538L77.5495 34.1083H77.476C76.9907 34.7186 76.4943 35.1373 75.9843 35.3733C75.4764 35.6047 74.8107 35.7295 73.9912 35.7295C72.9826 35.7295 72.1899 35.4402 71.6108 34.8612C71.0317 34.2865 70.7424 33.4629 70.7424 32.3985C70.7424 31.2851 71.1343 30.4655 71.9093 29.9357C72.693 29.4058 73.8664 29.1162 75.4364 29.0583L77.2577 29.0004V28.5417C77.2577 27.4774 76.7121 26.943 75.6232 26.943C74.786 26.943 73.7973 27.1968 72.6684 27.7044L71.7176 25.7716C72.9245 25.1393 74.265 24.8185 75.7346 24.8185C77.1464 24.8185 78.224 25.1303 78.9745 25.7451C79.7292 26.3551 80.1033 27.2904 80.1033 28.5417V35.538H78.104ZM77.2579 30.6703L76.149 30.7107C75.3163 30.7374 74.6972 30.8843 74.2897 31.1603C73.8868 31.4367 73.6818 31.8552 73.6818 32.4205C73.6818 33.2268 74.1428 33.632 75.0714 33.632C75.7304 33.632 76.2649 33.4405 76.6612 33.0621C77.0574 32.6791 77.2579 32.1712 77.2579 31.5344V30.6703ZM87.4073 35.7295C84.1429 35.7295 82.5085 33.9303 82.5085 30.3454C82.5085 28.5597 82.9539 27.197 83.8401 26.2528C84.7309 25.3132 86.0046 24.8411 87.6611 24.8411C88.8769 24.8411 89.9658 25.0817 90.93 25.5538L90.0838 27.7715C89.634 27.5844 89.2152 27.4417 88.828 27.3261C88.4405 27.2057 88.053 27.1525 87.6611 27.1525C86.1738 27.1525 85.4256 28.2122 85.4256 30.3234C85.4256 32.3808 86.1737 33.4052 87.6611 33.4052C88.2134 33.4052 88.7234 33.3338 89.1931 33.1869C89.6607 33.0399 90.1328 32.8084 90.6003 32.4922V34.9461C90.1374 35.24 89.6696 35.4404 89.1999 35.5561C88.7254 35.6672 88.1286 35.7295 87.4073 35.7295ZM102.856 35.538H99.9947V29.4058C99.9947 27.8916 99.4314 27.1345 98.3046 27.1345C97.5031 27.1345 96.9219 27.4062 96.5678 27.9494C96.2116 28.4927 96.0334 29.3746 96.0334 30.5947V35.5379H93.1654V20.922H96.0334V23.9012C96.0334 24.1329 96.0089 24.6762 95.9645 25.5359L95.8999 26.3775H96.0514C96.6882 25.3531 97.7038 24.8411 99.0907 24.8411C100.324 24.8411 101.262 25.1706 101.899 25.8388C102.535 26.5025 102.856 27.451 102.856 28.6889V35.538H102.856ZM105.778 22.3251C105.778 21.3898 106.299 20.922 107.336 20.922C108.378 20.922 108.895 21.3898 108.895 22.3251C108.895 22.7702 108.766 23.1175 108.505 23.3625C108.247 23.6075 107.857 23.7323 107.336 23.7323C106.298 23.7322 105.778 23.2601 105.778 22.3251ZM108.766 35.538H105.902V25.0413H108.766V35.538ZM121.554 35.538H118.692V29.4058C118.692 28.6487 118.554 28.0785 118.287 27.7001C118.015 27.3171 117.588 27.1345 117 27.1345C116.198 27.1345 115.619 27.4016 115.263 27.9361C114.907 28.4704 114.729 29.3612 114.729 30.5947V35.5379H111.865V25.0412H114.052L114.435 26.3774H114.597C114.916 25.8741 115.355 25.4913 115.913 25.2285C116.479 24.9747 117.111 24.841 117.828 24.841C119.046 24.841 119.975 25.1705 120.605 25.8341C121.24 26.4886 121.554 27.4415 121.554 28.6886V35.538H121.554ZM131.264 35.538L130.712 34.1083H130.634C130.151 34.7186 129.657 35.1373 129.149 35.3733C128.637 35.6047 127.969 35.7295 127.15 35.7295C126.143 35.7295 125.35 35.4402 124.771 34.8612C124.19 34.2865 123.903 33.4629 123.903 32.3985C123.903 31.2851 124.293 30.4655 125.07 29.9357C125.851 29.4058 127.025 29.1162 128.599 29.0583L130.418 29.0004V28.5417C130.418 27.4774 129.875 26.943 128.784 26.943C127.947 26.943 126.958 27.1968 125.827 27.7044L124.878 25.7716C126.09 25.1393 127.428 24.8185 128.899 24.8185C130.307 24.8185 131.385 25.1303 132.137 25.7451C132.888 26.3551 133.264 27.2904 133.264 28.5417V35.538H131.264ZM130.418 30.6703L129.314 30.7107C128.479 30.7374 127.86 30.8843 127.452 31.1603C127.047 31.4367 126.842 31.8552 126.842 32.4205C126.842 33.2268 127.305 33.632 128.231 33.632C128.895 33.632 129.425 33.4405 129.824 33.0621C130.22 32.6791 130.418 32.1712 130.418 31.5344V30.6703H130.418ZM69.5401 19.3856L68.9879 17.9561H68.9123C68.4313 18.5617 67.9371 18.9847 67.425 19.2209C66.9128 19.4568 66.2492 19.5727 65.4298 19.5727C64.4234 19.5727 63.6307 19.2832 63.0516 18.7043C62.4729 18.1298 62.1834 17.3148 62.1834 16.2461C62.1834 15.1326 62.5707 14.3088 63.3524 13.7832C64.1295 13.2532 65.3051 12.9593 66.8772 12.9014L68.6986 12.8479V12.3893C68.6986 11.3248 68.1532 10.7905 67.0643 10.7905C66.2247 10.7905 65.2381 11.0444 64.1071 11.5521L63.1585 9.61927C64.3676 8.98701 65.7058 8.66623 67.1755 8.66623C68.5828 8.66623 69.665 8.978 70.4152 9.58809C71.1656 10.2028 71.5419 11.1335 71.5419 12.3893V19.3855H69.5401V19.3856ZM68.6985 14.5225L67.5896 14.5582C66.7567 14.5805 66.1378 14.7364 65.7303 15.008C65.3228 15.2841 65.1225 15.7072 65.1225 16.2682C65.1225 17.0742 65.5855 17.4795 66.5118 17.4795C67.1731 17.4795 67.7054 17.288 68.0995 16.9051C68.4981 16.5221 68.6985 16.0188 68.6985 15.3864V14.5225ZM78.5626 17.288C79.0662 17.288 79.6671 17.1811 80.3663 16.9585V19.0917C79.6494 19.4124 78.7743 19.5727 77.7389 19.5727C76.5942 19.5727 75.7572 19.2832 75.2362 18.7043C74.715 18.1254 74.4523 17.2569 74.4523 16.099V11.0355H73.0807V9.82421L74.6571 8.86674L75.4854 6.64904H77.3159V8.88461H80.2506V11.0357H77.3159V16.0992C77.3159 16.5043 77.4271 16.8028 77.6587 16.9989C77.8858 17.1901 78.1887 17.288 78.5626 17.288ZM89.2287 19.3856L88.6764 17.9561H88.5963C88.1153 18.5617 87.6231 18.9847 87.1132 19.2209C86.6011 19.4568 85.9375 19.5727 85.1182 19.5727C84.1096 19.5727 83.3147 19.2832 82.7378 18.7043C82.1566 18.1298 81.8671 17.3148 81.8671 16.2461C81.8671 15.1326 82.2591 14.3088 83.0362 13.7832C83.8178 13.2532 84.9914 12.9593 86.5611 12.9014L88.3823 12.8479V12.3893C88.3823 11.3248 87.837 10.7905 86.748 10.7905C85.9108 10.7905 84.9264 11.0444 83.7931 11.5521L82.8467 9.61927C84.0535 8.98701 85.3897 8.66623 86.8638 8.66623C88.2711 8.66623 89.3487 8.978 90.1015 9.58809C90.8496 10.2028 91.2259 11.1335 91.2259 12.3893V19.3855H89.2287V19.3856ZM88.3825 14.5225L87.278 14.5582C86.4431 14.5805 85.8218 14.7364 85.4164 15.008C85.0088 15.2841 84.8063 15.7072 84.8063 16.2682C84.8063 17.0742 85.2694 17.4795 86.1957 17.4795C86.8593 17.4795 87.3893 17.288 87.7855 16.9051C88.1818 16.5221 88.3823 16.0188 88.3823 15.3864V14.5225H88.3825ZM54.334 19.5727C53.0091 19.5727 51.9671 19.0917 51.2143 18.1387C50.4529 17.1811 50.0742 15.8541 50.0742 14.1616C50.0742 12.4426 50.4618 11.1022 51.2322 10.1447C52.0027 9.18279 53.0649 8.70184 54.4141 8.70184C55.8369 8.70184 56.7277 9.21397 57.4781 10.2382H57.5739C57.4224 9.45881 57.3423 8.75976 57.3423 8.14967V4.84521H60.5755V19.3855H58.1529L57.5559 18.0227H57.4269C56.7277 19.0561 55.7658 19.5727 54.334 19.5727ZM55.4719 17.3638C56.2378 17.3638 56.8011 17.15 57.1552 16.7226C57.516 16.2995 57.7097 15.578 57.7431 14.5582V14.2509C57.7431 13.1287 57.5607 12.3226 57.1954 11.8327C56.8349 11.3473 56.2425 11.1025 55.4229 11.1025C54.7549 11.1025 54.2339 11.374 53.8643 11.9085C53.4902 12.4518 53.3076 13.2401 53.3076 14.2688C53.3076 15.2974 53.4947 16.0723 53.8686 16.589C54.2429 17.101 54.777 17.3638 55.4719 17.3638Z" fill="#FDFBF9"/>
</svg>
