<svg width="201" height="201" viewBox="0 0 201 201" fill="none" xmlns="http://www.w3.org/2000/svg">
<g id="Icones">
<path id="Vector" d="M142.71 100.5C148.74 91.4551 152.76 81.4051 151.755 69.3451C151.755 42.2101 128.64 20.1001 101.505 20.1001C73.365 21.1051 50.25 43.2151 50.25 71.3551C50.25 82.4101 53.265 91.4551 59.295 99.4951C65.325 110.55 72.36 121.605 75.375 133.665V135.675C76.38 139.695 80.4 143.715 85.425 143.715H115.575C119.595 143.715 123.615 141.705 124.62 137.685L125.625 133.665C129.645 121.605 135.675 110.55 142.71 100.5Z" stroke="#FAF6F0" stroke-width="21.6638" stroke-miterlimit="10" stroke-linecap="round" stroke-linejoin="round"/>
<path id="Vector_2" d="M100.529 49.2441C87.4641 49.2441 77.4141 59.2941 77.4141 72.3591" stroke="#FAF6F0" stroke-width="20.1" stroke-miterlimit="10" stroke-linecap="round" stroke-linejoin="round"/>
<path id="Vector_3" d="M119.622 174.869H82.4375C93.4925 180.899 107.562 180.899 119.622 174.869Z" fill="#FAF6F0" stroke="#FAF6F0" stroke-width="21.6638" stroke-miterlimit="10" stroke-linecap="round" stroke-linejoin="round"/>
</g>
</svg>
