<svg width="19" height="19" viewBox="0 0 19 19" fill="none" xmlns="http://www.w3.org/2000/svg">
<path d="M17.309 7.06215C17.1571 7.10511 17.0152 7.14646 16.9188 7.21932L16.9146 7.22383L16.9068 7.22706C16.5395 7.31472 16.1564 7.39584 15.7867 7.47329C14.5433 7.73332 13.2576 8.00316 12.2435 8.66477C12.0715 9.15562 11.8844 9.65825 11.7049 10.1473C11.5336 10.6078 11.3562 11.0849 11.1933 11.5497L11.3155 11.6222L11.3052 11.6484C11.1444 12.0346 11.0114 12.4478 10.8822 12.8492C10.6229 13.6529 10.3554 14.4846 9.85209 15.1337L9.84144 15.1464H9.45563V15.1128C9.45563 15.0923 9.46595 15.0707 9.48556 15.0616C9.83486 13.976 10.1893 12.8799 10.5328 11.8196C10.8499 10.8399 11.1791 9.82574 11.5003 8.8233L11.4382 8.77691C11.1541 8.88797 10.8409 8.96001 10.5373 9.02928C10.1941 9.10532 9.83994 9.18644 9.52529 9.32529C9.25869 9.44699 9.05058 9.56333 8.84162 9.76854C8.7325 10.3118 8.54927 10.8383 8.37142 11.3478C8.1938 11.8551 8.01155 12.381 7.90339 12.9204C7.88419 13.1391 7.82433 13.2541 7.77608 13.3449C7.7597 13.3756 7.74486 13.405 7.73191 13.4358L7.72816 13.4434C7.40056 13.8653 7.25711 14.4183 7.11814 14.9543C7.01378 15.3591 6.90454 15.7776 6.71692 16.1413L6.70797 16.1609H6.47787L6.48626 16.1212C6.85121 14.0856 7.41565 11.9767 8.16387 9.8533H8.14878C7.69133 9.8533 5.94769 10.4937 5.43666 10.8123C5.32315 11.1977 5.2012 11.5869 5.08272 11.9638C4.77078 12.9572 4.44959 13.9841 4.25761 15.0449L4.25394 15.0526C4.17435 15.2275 4.0466 15.2496 3.94373 15.2496C3.89419 15.2496 3.84312 15.2434 3.79508 15.2373C3.74465 15.2315 3.69512 15.2262 3.64647 15.2262C3.60351 15.2262 3.56651 15.23 3.5342 15.2405L3.47285 15.2585L3.49289 15.1984C3.86559 14.0843 4.17895 12.9324 4.48239 11.8179C4.55242 11.559 4.62297 11.3006 4.69457 11.0421L4.62987 10.9774C4.20364 11.2187 3.7313 11.3652 3.27425 11.5071C2.69969 11.6852 2.10618 11.8683 1.61391 12.2427L1.60358 12.2516L1.5885 12.2487C1.29236 12.1984 1.15484 11.8887 1.12649 11.6393L1.12358 11.6159L1.14448 11.6054C1.94308 11.2158 2.81152 10.9279 3.65074 10.6522C4.05358 10.5183 4.46968 10.3816 4.87538 10.2337C5.18571 9.44699 5.45788 8.62661 5.71989 7.83329C6.2293 6.29239 6.75605 4.70014 7.59976 3.26659L7.60815 3.25315L7.62303 3.25025C7.81703 3.22234 7.96794 3.28547 8.06617 3.43335L8.07468 3.44553L8.0723 3.45877C7.99787 3.85482 7.81537 4.20892 7.64042 4.55221C7.46365 4.89389 7.29765 5.21778 7.22779 5.58233L7.22488 5.5889C6.93407 6.25241 6.73044 6.96013 6.53205 7.64534C6.32309 8.37186 6.10634 9.12331 5.78608 9.81832L5.85127 9.88436L8.37807 9.04969C8.81479 8.22168 9.15344 7.3501 9.48112 6.50635C9.93329 5.30875 10.3245 4.31853 10.9072 3.36373L10.9122 3.3561C10.9835 3.28555 11.0551 3.25033 11.1309 3.25033C11.2427 3.25033 11.3405 3.3269 11.4344 3.39822C11.499 3.44852 11.5608 3.49656 11.6223 3.51617L11.6604 3.52888L11.6408 3.56442C10.8446 4.92951 10.2264 6.37412 9.54256 8.12409C9.49593 8.21631 9.45986 8.30752 9.4217 8.40425C9.40197 8.45383 9.38193 8.50498 9.36018 8.55992L9.42332 8.60785C9.43066 8.60333 9.43969 8.59752 9.44873 8.59224C9.4622 8.58449 9.47781 8.57412 9.49665 8.56521C9.73784 8.43745 10.0746 8.37194 10.4315 8.30119C11.2967 8.13228 12.2788 7.94152 12.2788 6.78369V6.77699L12.2816 6.77098C12.9062 5.22246 13.589 3.90472 14.3126 2.85428L14.3285 2.831L14.8948 3.10083L14.8754 3.13153C14.0661 4.42619 13.4833 5.76551 12.858 7.37793L12.903 7.42384C13.6366 7.29761 14.3546 7.12266 15.0491 6.95408C15.9453 6.73705 16.8718 6.51095 17.8354 6.38924L17.8656 6.38473L17.8725 6.41389C17.9775 6.87086 17.6222 6.97155 17.309 7.06215ZM9.51174 0C4.24878 0 0 4.24793 0 9.48697C0 14.7507 4.24878 18.9984 9.51174 19C14.7513 19 18.9992 14.7507 18.9992 9.48838C18.9993 4.24793 14.7513 0 9.51174 0Z" fill="#FDFBF9" fill-opacity="0.3"/>
</svg>
