<?xml version="1.0" encoding="utf-8"?>
<!-- Generator: Adobe Illustrator 16.0.0, SVG Export Plug-In . SVG Version: 6.00 Build 0)  -->
<!DOCTYPE svg PUBLIC "-//W3C//DTD SVG 1.1//EN" "http://www.w3.org/Graphics/SVG/1.1/DTD/svg11.dtd">
<svg version="1.1" id="Layer_1" xmlns="http://www.w3.org/2000/svg" xmlns:xlink="http://www.w3.org/1999/xlink" x="0px" y="0px"
	 width="1223.12px" height="500px" viewBox="0 0 1223.12 500" enable-background="new 0 0 1223.12 500" xml:space="preserve">
<path fill="#2B2B2B" d="M969.891,139.99c0-27.474,26.39-51.494,76.381-51.494c36.525,0,66.599,18.486,82.788,61.701
	c2.992,7.986,7.239,9.992,17.892,6.649c24.273-7.616,59.474-18.842,59.474-18.842c6.763-2.286,9.153-6.759,7.317-13.716
	c-0.45-1.706-1.786-6.28-1.786-6.28c-21.823-75.493-83.975-117.81-169.097-117.81c-103.022,0-168.966,60.978-168.966,138.233
	c0,167.494,253.621,124.004,253.621,214.372c0,34.056-38.856,57.973-87.747,57.973c-49.964,0-102.897-21.643-132.468-56.951
	c-8.793-10.501-12.188-11.952-22.84-11.952h-54.567c-11.296,0-15.127,1.451-24.593,11.952
	c-34.578,38.352-84.761,56.951-134.521,56.951c-79.465,0-144.78-44.755-155.727-135.396h308.256c9.253,0,16.044-4.223,19.14-11.984
	c4.871-12.219,8.265-32.769,8.265-47.69c0-120.727-75.187-215.508-208.653-215.508c-119.098,0-204.948,77.122-223.538,189.691
	h-27.262l-0.047-10.497c0-118.364-68.173-179.194-182.555-179.194c-89.581,0-157.744,44.477-187.872,116.721
	c-3.155,7.566-1.514,12.64,6.068,16.125l58.913,23.129c9.869,3.859,14.839,3.031,18.302-3.952
	c23.952-48.325,53.101-64.782,102.552-64.782c56.034,0,89.906,34.276,89.906,87.944v14.507h-44.441
	c-184.672,0-252.058,72.86-252.058,164.943c0,79.532,56.209,139.543,142.422,144.967h24.883
	c47.214-3.104,98.638-24.223,131.649-60.988c1.58,18.685,4,39.056,4.678,44.643c0.855,7.069,4.22,10.475,11.296,10.475h64.771
	c8.124,0,12.856-4.204,12.856-11.617l-0.944-208.639h25.005c14.08,133.976,105.412,219.616,231.234,226.127h33.689
	c66.498-3.007,121.1-23.246,174.834-69.777c47.097,45.837,97.668,66.716,166.326,69.777h32.815
	c92.948-5.208,165.267-60.878,167.551-143.598v-8.428C1218.809,181.1,969.891,219.184,969.891,139.99z M643.597,87.439
	c61.825,0,110.946,42.861,113.665,103.567l-241.339-0.239C527.48,124.701,578.198,87.439,643.597,87.439z M169.796,410.447
	c-47.198,0-74.134-26.016-74.134-63.041c0-44.403,39.735-73.732,170.666-73.732h30.198
	C296.526,356.517,237.67,410.447,169.796,410.447z"/>
</svg>
