<?xml version="1.0" encoding="utf-8"?>
<!-- Generator: Adobe Illustrator 16.0.0, SVG Export Plug-In . SVG Version: 6.00 Build 0)  -->
<!DOCTYPE svg PUBLIC "-//W3C//DTD SVG 1.1//EN" "http://www.w3.org/Graphics/SVG/1.1/DTD/svg11.dtd">
<svg version="1.1" id="Layer_1" xmlns="http://www.w3.org/2000/svg" xmlns:xlink="http://www.w3.org/1999/xlink" x="0px" y="0px"
	 width="180px" height="43px" viewBox="0 0 180 43" enable-background="new 0 0 180 43" xml:space="preserve">
<g>
	<path fill="#2B2B2B" d="M119.484,0.444v1.64c-2.174-1.364-4.688-2.086-7.252-2.084c-7.559,0-13.686,6.129-13.686,13.684
		c0,7.557,6.127,13.685,13.686,13.685c2.662,0,5.148-0.764,7.252-2.083v3.521c-0.002,4.004-3.248,7.25-7.252,7.25
		c-3.158,0-5.952-2.043-6.91-5.052l-5.961,2.47c1.908,5.262,6.949,9.017,12.871,9.017c7.557,0,13.681-6.13,13.681-13.685h0.017
		V0.444H119.484z M112.232,20.937c-4.006-0.001-7.251-3.248-7.25-7.253c0-4.005,3.248-7.251,7.252-7.251
		c4.006,0,7.252,3.248,7.252,7.253C119.485,17.691,116.238,20.938,112.232,20.937L112.232,20.937z M38.914,0
		c-7.558,0-13.685,6.13-13.685,13.685c0,7.556,6.127,13.685,13.685,13.685c7.557,0,13.681-6.129,13.681-13.685S46.471,0,38.914,0
		 M38.914,20.937c-4.005,0-7.25-3.248-7.25-7.252l0,0c0-4.005,3.247-7.252,7.252-7.252s7.252,3.247,7.252,7.252
		s-3.247,7.252-7.252,7.252C38.916,20.937,38.915,20.937,38.914,20.937 M13.684,6.433c2.455,0,4.743,1.243,6.078,3.303l4.602-4.601
		C21.771,1.887,17.84-0.003,13.684,0C6.127,0,0,6.13,0,13.685c0,7.556,6.127,13.684,13.684,13.684c4.321,0,8.174-2.005,10.68-5.137
		l-4.602-4.6c-1.334,2.061-3.623,3.305-6.078,3.304c-4.005,0-7.251-3.248-7.251-7.253C6.434,9.68,9.68,6.434,13.684,6.433
		 M142.312,0c-7.558,0-13.686,6.129-13.686,13.685s6.128,13.685,13.686,13.685c7.557,0,13.681-6.129,13.681-13.685V0H142.312
		L142.312,0z M149.564,13.685c0.002,4.004-3.243,7.252-7.248,7.253c-4.004,0.001-7.252-3.244-7.254-7.249c0-0.001,0-0.003,0-0.005
		c0-4.005,3.246-7.252,7.25-7.253h7.252V13.685z M92.87,2.777C91.01,0.918,88.676,0,85.634,0c-3,0-6.702,1.579-8.69,5.089
		C75.57,2.224,72.663,0,69.242,0c-2.644,0-5.134,1.153-7.182,3.458V0.444h-6.767v26.333h6.767V12.268
		c0.049-2.072,0.672-3.284,1.708-4.355c1.038-1.07,2.369-1.427,3.781-1.427c2.859,0,4.491,2.305,4.491,6.013v14.278h6.767V12.268
		c0.048-2.072,0.673-3.284,1.708-4.355c1.038-1.07,2.369-1.427,3.782-1.427c2.858,0,4.49,2.305,4.49,6.013v14.278h7.062v-15.91
		C95.85,7.31,94.729,4.638,92.87,2.777 M176.189,13.153c-1.135-0.672-3.908-1.705-6.226-2.587c-3.696-1.406-4.528-2.342-4.409-3.311
		c0.112-0.919,1.629-1.61,3.989-1.497c2.36,0.112,4.334,0.506,7.238,1.717l2.245-5.245C175.58,0.66,172.419,0,169.998,0
		c-3.93,0-6.193,0.622-8.298,2.17c-2.103,1.547-3.009,3.463-3.009,5.947c0,2.452,1.662,4.593,3.887,5.94
		c1.088,0.66,2.693,1.557,5.268,2.446c1.621,0.56,2.615,0.845,3.456,1.286c0.89,0.468,1.16,1.005,1.16,1.63
		c0,0.778-0.942,1.752-3.247,1.752c-2.83,0-6.23-1.046-9.253-2.802l-2.918,5.512c2.029,1.27,3.183,1.77,5.394,2.479
		c2.211,0.705,4.344,1.06,6.402,1.06c3.087,0,5.643-0.813,7.713-2.37c1.785-1.342,2.94-3.441,2.94-6.063
		c0-2.133-0.757-4.33-3.302-5.833"/>
</g>
</svg>
