<?xml version="1.0" encoding="utf-8"?>
<!-- Generator: Adobe Illustrator 16.0.0, SVG Export Plug-In . SVG Version: 6.00 Build 0)  -->
<!DOCTYPE svg PUBLIC "-//W3C//DTD SVG 1.1//EN" "http://www.w3.org/Graphics/SVG/1.1/DTD/svg11.dtd">
<svg version="1.1" id="Layer_1" xmlns="http://www.w3.org/2000/svg" xmlns:xlink="http://www.w3.org/1999/xlink" x="0px" y="0px"
	 width="60px" height="57px" viewBox="0 0 60 57" enable-background="new 0 0 60 57" xml:space="preserve">
<g>
	<path fill="#2B2B2B" d="M47.092,26.363c-0.896,0-1.615,0.253-2.14,0.753c-0.526,0.5-0.792,1.193-0.792,2.06
		c0,0.836,0.267,1.52,0.792,2.03c0.524,0.51,1.245,0.769,2.139,0.769c0.896,0,1.615-0.259,2.14-0.769
		c0.526-0.511,0.793-1.194,0.793-2.029c0-0.868-0.267-1.562-0.791-2.062C48.707,26.616,47.986,26.363,47.092,26.363z"/>
	<path fill="#2B2B2B" d="M22.483,0L0,17.755V43.8l37.473,12.275L59.955,38.32V12.275L22.483,0z M16.095,27.47h-4.432v6.736h-3.1
		v-6.735H6.729v-2.574h1.834v-1.93c0-1.26,0.468-2.339,1.34-2.993c1.959-1.469,7.48-0.715,7.48-0.715v2.573
		c0,0-2.826-0.32-4.106-0.07c-0.853,0.165-1.615,0.865-1.615,2.02v1.115h4.433V27.47z M28.037,33.952h-2.975l-0.155-0.918
		c-0.778,0.778-2.14,1.172-4.057,1.172c-3.387,0-4.588-1.705-4.588-3.165c0-2.177,2.011-3.235,6.151-3.235h2.414v-0.218
		c0-0.685-0.266-1.471-2.337-1.471c-1.834,0-2.155,0.605-2.31,1.175h-3.268c0.092-0.939,0.816-3.18,5.546-3.18
		c3.703,0,5.579,1.171,5.579,3.48V33.952z M36.031,33.643l-2.516,0.002l-5.479-9.522l3.518-0.003l3.217,5.943l3.207-5.947
		l3.517-0.003L36.031,33.643z M52.491,31.857c-0.519,0.758-1.255,1.346-2.185,1.746c-0.928,0.399-2.009,0.603-3.215,0.603
		c-1.205,0-2.283-0.202-3.203-0.603c-0.924-0.4-1.656-0.988-2.174-1.746c-0.518-0.756-0.779-1.657-0.779-2.678
		c0-1.011,0.258-1.909,0.768-2.671c0.511-0.764,1.242-1.361,2.173-1.775c0.926-0.412,2.009-0.622,3.216-0.622
		s2.288,0.209,3.215,0.622c0.932,0.414,1.666,1.011,2.185,1.775v-0.001c0.518,0.763,0.78,1.661,0.78,2.67
		C53.271,30.2,53.009,31.102,52.491,31.857z"/>
	<path fill="#2B2B2B" d="M19.462,30.92c0,0.756,0.799,1.207,2.136,1.207c2.143,0,3.229-0.783,3.229-2.328v-0.102
		c-0.384-0.008-1.136-0.008-2.356-0.008C19.804,29.689,19.462,30.348,19.462,30.92z"/>
</g>
</svg>
