<svg width="120" height="30" viewBox="0 0 120 30" fill="none" xmlns="http://www.w3.org/2000/svg">
<path d="M48.634 24.262H41.4357V5.98753H34.9713V29.8936L55.0948 29.967V5.98753H48.634V24.262ZM90.1247 24.262C87.0062 24.262 84.7536 23.3411 84.7536 20.2006H97.2276V5.98753H78.2157V19.9291C78.2157 27.9234 84.0418 29.978 91.5629 29.978C91.9298 29.978 92.2086 29.978 92.4361 29.978H97.3156V24.262H90.1247ZM84.5591 11.0542H91.3208V15.8237H84.5591V11.0542ZM109.181 24.262V11.5238H119.795V5.98753H102.859V29.8936H119.842V24.262H109.181ZM19.265 29.8826H25.7295V11.6485H30.5246L32.205 5.97285H19.265V29.8826ZM9.83979 0H3.37899L0 11.6302H3.37899V30H14.6753V24.3684H9.83979V11.6302H15.3761V6.09392H8.0971L9.83979 0ZM74.2937 11.6302L70.9184 0H64.4576L66.2003 6.09392H58.9177V11.6302H61.7794V29.9743H74.213V24.262H68.2402V11.6302H74.2937Z" fill="#1BB0BC"/>
</svg>
