<svg width="41" height="41" viewBox="0 0 41 41" fill="none" xmlns="http://www.w3.org/2000/svg">
<path d="M11.6288 0.733398C5.41913 0.733398 0.367188 5.63675 0.367188 11.6637V29.1523C0.367188 35.1793 5.41913 40.0826 11.6288 40.0826H29.6473C35.8569 40.0826 40.9088 35.1793 40.9088 29.1523V11.6637C40.9088 5.63675 35.8569 0.733398 29.6473 0.733398H11.6288ZM11.6288 5.10554H29.6473C33.3726 5.10554 36.4042 8.04798 36.4042 11.6637V29.1523C36.4042 32.768 33.3726 35.7105 29.6473 35.7105H11.6288C7.90343 35.7105 4.87181 32.768 4.87181 29.1523V11.6637C4.87181 8.04798 7.90343 5.10554 11.6288 5.10554ZM31.8996 7.2916C31.3022 7.2916 30.7293 7.52192 30.3069 7.93189C29.8846 8.34186 29.6473 8.89789 29.6473 9.47767C29.6473 10.0575 29.8846 10.6135 30.3069 11.0235C30.7293 11.4334 31.3022 11.6637 31.8996 11.6637C32.4969 11.6637 33.0698 11.4334 33.4922 11.0235C33.9146 10.6135 34.1519 10.0575 34.1519 9.47767C34.1519 8.89789 33.9146 8.34186 33.4922 7.93189C33.0698 7.52192 32.4969 7.2916 31.8996 7.2916ZM20.638 9.47767C14.4284 9.47767 9.37644 14.381 9.37644 20.408C9.37644 26.435 14.4284 31.3384 20.638 31.3384C26.8476 31.3384 31.8996 26.435 31.8996 20.408C31.8996 14.381 26.8476 9.47767 20.638 9.47767ZM20.638 13.8498C24.3633 13.8498 27.3949 16.7923 27.3949 20.408C27.3949 24.0238 24.3633 26.9662 20.638 26.9662C16.9127 26.9662 13.8811 24.0238 13.8811 20.408C13.8811 16.7923 16.9127 13.8498 20.638 13.8498Z" fill="white"/>
</svg>
