<svg width="31" height="30" viewBox="0 0 31 30" fill="none" xmlns="http://www.w3.org/2000/svg">
<path d="M27.1422 0H4.28559C2.31416 0 0.713867 1.59943 0.713867 3.57086V26.4283C0.713867 28.3989 2.31416 29.9991 4.28559 29.9991H27.143C29.1145 29.9991 30.7147 28.3989 30.7147 26.4283V3.57086C30.7139 1.59943 29.1136 0 27.1422 0ZM10.0002 11.4283V25.0003H5.71445V11.4283H10.0002ZM5.71445 7.47857C5.71445 6.47914 6.57159 5.71371 7.85731 5.71371C9.14302 5.71371 9.94959 6.47914 10.0002 7.47857C10.0002 8.478 9.19959 9.28543 7.85731 9.28543C6.57159 9.28543 5.71445 8.478 5.71445 7.47857ZM25.7142 25.0011H21.4284C21.4284 25.0011 21.4284 18.3866 21.4284 17.8586C21.4284 16.4306 20.7136 15.0017 18.9282 14.9726H18.8707C17.1419 14.9726 16.4279 16.4443 16.4279 17.8586C16.4279 18.5091 16.4279 25.0011 16.4279 25.0011H12.1422V11.4283H16.4279V13.2574C16.4279 13.2574 17.8062 11.4283 20.5782 11.4283C23.4127 11.4283 25.7133 13.3783 25.7133 17.3289L25.7142 25.0011Z" fill="#FDFBF9"/>
</svg>
