<svg width="30" height="18" viewBox="0 0 30 18" fill="none" xmlns="http://www.w3.org/2000/svg">
<path d="M16.9217 9.00107C16.9217 13.7051 13.1331 17.5194 8.46086 17.5194C3.78857 17.5194 0 13.7051 0 9.00107C0 4.29536 3.78857 0.481934 8.46086 0.481934C13.1331 0.481934 16.9217 4.29536 16.9217 9.00107Z" fill="#FDFBF9"/>
<path d="M26.2029 9.001C26.2029 13.429 24.3095 17.0204 21.9721 17.0204C19.6364 17.0204 17.7412 13.429 17.7412 9.001C17.7412 4.57129 19.6346 0.980713 21.9721 0.980713C24.3095 0.980713 26.2029 4.57129 26.2029 9.001Z" fill="#FDFBF9"/>
<path d="M29.9997 9.0011C29.9997 12.9671 29.3337 16.1848 28.5117 16.1848C27.6897 16.1848 27.0254 12.9688 27.0254 9.0011C27.0254 5.03338 27.6897 1.81567 28.5117 1.81567C29.3337 1.81567 29.9997 5.03167 29.9997 9.0011Z" fill="#FDFBF9"/>
</svg>
