<svg width="43" height="21" viewBox="0 0 43 21" fill="none" xmlns="http://www.w3.org/2000/svg">
<path d="M41.6341 6.68791C40.7231 5.83324 39.382 5.4027 37.6099 5.4027C36.587 5.4027 35.6636 5.59603 34.8464 5.97027C34.0292 6.34472 33.4113 6.87503 32.9932 7.56121H32.6159C31.7829 6.12614 30.1984 5.4027 27.8555 5.4027C26.8292 5.4027 25.9246 5.60224 25.126 5.97669C24.3369 6.35714 23.732 6.88746 23.3105 7.56142H23.0735L22.634 5.68358H22.6215L22.634 5.65854H19.2369L14.7075 14.7171V0H10.1845V4.64159C10.1845 5.49626 10.2907 6.46954 10.5091 7.56743H10.3719C9.32385 6.13236 8.06668 5.41492 6.07966 5.41492C4.18921 5.41492 2.70125 6.08247 1.61899 7.42999C0.539729 8.7713 0 10.6491 0 13.0573C0 15.4279 0.530312 17.287 1.59074 18.6285C2.65136 19.9696 4.11428 20.6371 5.96727 20.6371C7.97613 20.6371 9.31744 19.9137 10.2967 18.4724H10.4838L11.3137 20.3689H14.7075H15.2755L19.2369 12.4458V20.3689H23.5042V13.4564C23.5042 11.7344 23.7539 10.4931 24.2465 9.74457C24.7394 8.98346 25.5349 8.60921 26.6234 8.60921C27.4406 8.60921 28.0334 8.87747 28.4109 9.40779C28.7883 9.9381 28.9753 10.7305 28.9753 11.7911V20.3691H33.2426V13.0014C33.2426 11.4792 33.5049 10.3624 34.0226 9.66363C34.5404 8.95842 35.3204 8.60921 36.3652 8.60921C37.1794 8.60921 37.7722 8.87747 38.1465 9.40779C38.5269 9.9381 38.714 10.7305 38.714 11.7911V20.3691H43V10.7928C43.0002 8.90893 42.5448 7.54258 41.6341 6.68791ZM10.7461 13.619C10.7024 15.0419 10.4247 16.0522 9.92248 16.6511C9.42362 17.2441 8.63446 17.5432 7.55801 17.5432C6.58814 17.5432 5.83604 17.1816 5.31234 16.4577C4.78804 15.7403 4.52599 14.6548 4.52599 13.2073C4.52599 11.7663 4.78804 10.6682 5.30593 9.91346C5.82362 9.15235 6.55388 8.7717 7.48949 8.7717C8.63726 8.7717 9.4703 9.11468 9.97877 9.79465C10.4905 10.4748 10.7461 11.6102 10.7461 13.1823V13.619Z" fill="#FDFBF9" fill-opacity="0.3"/>
</svg>
