<?xml version="1.0" encoding="utf-8"?>
<!-- Generator: Adobe Illustrator 16.0.0, SVG Export Plug-In . SVG Version: 6.00 Build 0)  -->
<!DOCTYPE svg PUBLIC "-//W3C//DTD SVG 1.1//EN" "http://www.w3.org/Graphics/SVG/1.1/DTD/svg11.dtd">
<svg version="1.1" id="Layer_1" xmlns="http://www.w3.org/2000/svg" xmlns:xlink="http://www.w3.org/1999/xlink" x="0px" y="0px"
	 width="960px" height="560px" viewBox="0 0 960 560" enable-background="new 0 0 960 560" xml:space="preserve">
<g>
	<path fill="#FDFBF9" d="M14.086,279.985c0,34.72,2.833,76.261,35.25,104.039c49.73,42.567,82.209,42.816,117.444,42.816
		c35.235,0,64.6-12.237,105.704-55.055c23.324-24.352,34.285-49.076,35.219-73.428c0.5-12.425-5.729-39.61-8.407-49.419
		c-11.74-42.817-33.227-63.027-53.655-81.898c-36.714-33.88-78.861-33.88-102.355-33.88c-35.235,0-63.308,10.868-88.08,36.714
		C31.711,194.35,14.086,243.271,14.086,279.985z"/>
	<path fill="#2C2C2C" d="M261.43,256.879c-4.547-4.266-11.241-6.415-20.086-6.415c-5.106,0-9.715,0.965-13.794,2.833
		c-4.079,1.869-7.163,4.516-9.25,7.941h-1.883c-4.158-7.163-12.067-10.774-23.761-10.774c-5.123,0-9.638,0.996-13.624,2.865
		c-3.939,1.899-6.958,4.546-9.062,7.91h-1.183l-2.194-9.373h-0.062l0.062-0.125h-16.956l-22.608,45.215v-73.459h-22.576v23.168
		c0,4.266,0.53,9.124,1.62,14.604h-0.685c-5.231-7.163-11.506-10.744-21.424-10.744c-9.436,0-16.863,3.332-22.265,10.058
		c-5.387,6.695-8.081,16.068-8.081,28.088c0,11.833,2.647,21.112,7.94,27.808c5.294,6.694,12.596,10.026,21.845,10.026
		c10.027,0,16.722-3.611,21.61-10.805h0.934l4.142,9.466h16.94l0,0h2.835l19.773-39.547v39.547h21.3v-34.503
		c0-8.595,1.246-14.791,3.705-18.527c2.46-3.799,6.431-5.667,11.864-5.667c4.079,0,7.038,1.339,8.922,3.986
		s2.817,6.602,2.817,11.896v42.816h21.3v-36.775c0-7.598,1.309-13.172,3.893-16.66c2.585-3.52,6.478-5.263,11.693-5.263
		c4.064,0,7.023,1.339,8.891,3.986c1.899,2.647,2.833,6.602,2.833,11.896v42.816h21.393v-47.799
		C268.249,267.965,265.976,261.145,261.43,256.879z M107.256,291.475c-0.218,7.102-1.604,12.145-4.111,15.134
		c-2.49,2.96-6.429,4.453-11.802,4.453c-4.841,0-8.595-1.805-11.209-5.418c-2.617-3.581-3.925-8.999-3.925-16.224
		c0-7.193,1.308-12.674,3.893-16.441c2.584-3.799,6.229-5.699,10.899-5.699c5.729,0,9.887,1.712,12.425,5.106
		c2.554,3.395,3.83,9.062,3.83,16.909V291.475z"/>
	<path fill="#FDFBF9" d="M487.303,313.335c-4.53-4.266-11.211-6.383-20.069-6.383c-5.108,0-9.716,0.965-13.795,2.833
		c-4.079,1.899-7.163,4.516-9.25,7.941h-1.899c-4.142-7.163-12.051-10.774-23.729-10.774c-5.138,0-9.685,0.965-13.64,2.833
		c-3.954,1.932-6.975,4.548-9.062,7.941h-1.183l-2.211-9.373l-16.924-0.095l-11.32,22.577l11.32,5.637v45.184h21.284v-34.503
		c0-8.626,1.246-14.79,3.721-18.56c2.445-3.768,6.431-5.636,11.848-5.636c4.079,0,7.038,1.339,8.938,3.985
		c1.869,2.647,2.803,6.57,2.803,11.896v42.817h21.299v-36.808c0-7.598,1.308-13.141,3.893-16.659
		c2.584-3.488,6.477-5.231,11.692-5.231c4.049,0,7.023,1.339,8.907,3.985c1.883,2.647,2.833,6.57,2.833,11.896v42.817h21.346v-47.8
		C494.106,324.452,491.849,317.602,487.303,313.335z M560.216,381.656l-3.877-9.997h-0.514c-3.394,4.267-6.865,7.195-10.431,8.845
		c-3.551,1.618-8.206,2.491-13.936,2.491c-7.053,0-12.596-2.023-16.645-6.072c-4.049-4.018-6.072-9.777-6.072-17.22
		c0-7.785,2.74-13.516,8.159-17.221c5.48-3.705,13.685-5.73,24.663-6.135l12.735-0.405v-3.207c0-7.442-3.815-11.179-11.429-11.179
		c-5.854,0-12.767,1.775-20.661,5.324l-6.648-13.515c8.439-4.421,17.812-6.664,28.088-6.664c9.872,0,17.407,2.18,22.655,6.479
		c5.277,4.265,7.893,10.805,7.893,19.555v48.921H560.216z M554.3,347.619l-7.754,0.282c-5.823,0.187-10.152,1.214-13.001,3.144
		c-2.817,1.933-4.251,4.859-4.251,8.812c0,5.638,3.224,8.471,9.717,8.471c4.608,0,8.345-1.339,11.116-3.985
		c2.771-2.678,4.173-6.229,4.173-10.682V347.619z M625.268,382.995c-22.826,0-34.254-12.581-34.254-37.648
		c0-12.486,3.114-22.015,9.311-28.617c6.229-6.57,15.135-9.871,26.718-9.871c8.501,0,16.115,1.682,22.857,4.983l-5.917,15.507
		c-3.145-1.308-6.073-2.306-8.781-3.114c-2.709-0.842-5.419-1.214-8.159-1.214c-10.4,0-15.632,7.41-15.632,22.172
		c0,14.386,5.231,21.549,15.632,21.549c3.862,0,7.428-0.499,10.712-1.526c3.27-1.028,6.571-2.647,9.84-4.858v17.159
		c-3.237,2.055-6.508,3.456-9.792,4.265C634.485,382.559,630.312,382.995,625.268,382.995z M733.291,381.656h-20.007v-42.879
		c0-10.588-3.939-15.882-11.818-15.882c-5.604,0-9.668,1.9-12.144,5.698c-2.491,3.799-3.737,9.966-3.737,18.497v34.565h-20.054
		V279.455h20.054v20.832c0,1.62-0.171,5.419-0.482,11.43l-0.451,5.885h1.059c4.453-7.163,11.554-10.743,21.252-10.743
		c8.627,0,15.182,2.304,19.634,6.976c4.453,4.641,6.695,11.273,6.695,19.929V381.656z M753.72,289.266
		c0-6.54,3.643-9.811,10.898-9.811c7.287,0,10.899,3.271,10.899,9.811c0,3.112-0.904,5.541-2.726,7.254
		c-1.806,1.713-4.53,2.586-8.174,2.586C757.362,299.105,753.72,295.804,753.72,289.266z M774.613,381.656h-20.021v-73.397h20.021
		V381.656z M864.032,381.656h-20.008v-42.879c0-5.294-0.965-9.281-2.833-11.927c-1.899-2.678-4.89-3.955-8.999-3.955
		c-5.605,0-9.654,1.868-12.146,5.605c-2.491,3.736-3.737,9.965-3.737,18.59v34.565h-20.022v-73.397h15.29l2.678,9.343h1.137
		c2.227-3.519,5.294-6.196,9.201-8.033c3.955-1.775,8.378-2.71,13.391-2.71c8.517,0,15.01,2.304,19.416,6.944
		c4.437,4.577,6.633,11.24,6.633,19.96V381.656z M931.933,381.656l-3.861-9.997h-0.545c-3.379,4.267-6.835,7.195-10.385,8.845
		c-3.581,1.618-8.253,2.491-13.981,2.491c-7.038,0-12.58-2.023-16.629-6.072c-4.064-4.018-6.072-9.777-6.072-17.22
		c0-7.785,2.724-13.516,8.157-17.221c5.466-3.705,13.671-5.73,24.679-6.135l12.721-0.405v-3.207c0-7.442-3.798-11.179-11.428-11.179
		c-5.854,0-12.769,1.775-20.678,5.324l-6.633-13.515c8.471-4.421,17.828-6.664,28.119-6.664c9.841,0,17.377,2.18,22.639,6.479
		c5.248,4.265,7.879,10.805,7.879,19.555v48.921H931.933z M926.016,347.619l-7.723,0.282c-5.839,0.187-10.166,1.214-13.016,3.144
		c-2.835,1.933-4.267,4.859-4.267,8.812c0,5.638,3.239,8.471,9.716,8.471c4.64,0,8.345-1.339,11.133-3.985
		c2.771-2.678,4.156-6.229,4.156-10.682V347.619z M500.334,268.712l-3.861-9.996h-0.529c-3.363,4.235-6.819,7.193-10.4,8.844
		c-3.581,1.65-8.221,2.46-13.951,2.46c-7.037,0-12.58-2.024-16.629-6.072c-4.047-4.017-6.071-9.716-6.071-17.189
		c0-7.786,2.708-13.546,8.174-17.221c5.434-3.706,13.654-5.761,24.647-6.166l12.736-0.374v-3.207
		c0-7.443-3.814-11.179-11.428-11.179c-5.871,0-12.769,1.775-20.678,5.325l-6.633-13.515c8.455-4.421,17.812-6.664,28.089-6.664
		c9.84,0,17.407,2.18,22.653,6.446c5.247,4.298,7.878,10.806,7.878,19.587v48.92H500.334z M494.449,234.707l-7.754,0.25
		c-5.824,0.156-10.151,1.246-13.001,3.145c-2.849,1.931-4.25,4.889-4.25,8.812c0,5.636,3.238,8.47,9.715,8.47
		c4.624,0,8.346-1.339,11.102-4.017c2.787-2.678,4.188-6.197,4.188-10.619V234.707z M563.423,254.045
		c3.521,0,7.723-0.748,12.612-2.304v14.916c-5.013,2.242-11.132,3.363-18.372,3.363c-8.004,0-13.857-2.024-17.5-6.072
		c-3.644-4.048-5.481-10.121-5.481-18.217v-35.406h-9.591v-8.47l11.023-6.695l5.792-15.507h12.799v15.632h20.521v15.041h-20.521
		v35.406c0,2.833,0.778,4.92,2.397,6.291C558.69,253.36,560.808,254.045,563.423,254.045z M638.004,268.712l-3.862-9.996h-0.56
		c-3.363,4.235-6.805,7.193-10.37,8.844c-3.581,1.65-8.221,2.46-13.95,2.46c-7.053,0-12.611-2.024-16.645-6.072
		c-4.064-4.017-6.088-9.716-6.088-17.189c0-7.786,2.741-13.546,8.175-17.221c5.465-3.706,13.671-5.761,24.647-6.166l12.735-0.374
		v-3.207c0-7.443-3.813-11.179-11.428-11.179c-5.854,0-12.737,1.775-20.662,5.325l-6.617-13.515
		c8.438-4.421,17.781-6.664,28.089-6.664c9.84,0,17.375,2.18,22.639,6.446c5.231,4.298,7.862,10.806,7.862,19.587v48.92H638.004z
		 M632.087,234.707l-7.723,0.25c-5.838,0.156-10.182,1.246-13.017,3.145c-2.85,1.931-4.266,4.889-4.266,8.812
		c0,5.636,3.238,8.47,9.715,8.47c4.64,0,8.346-1.339,11.117-4.017c2.771-2.678,4.173-6.197,4.173-10.619V234.707z M394.007,270.02
		c-9.264,0-16.55-3.363-21.814-10.027c-5.324-6.696-7.972-15.975-7.972-27.809c0-12.02,2.71-21.393,8.097-28.088
		c5.388-6.726,12.815-10.089,22.249-10.089c9.949,0,16.178,3.581,21.425,10.743h0.67c-1.06-5.45-1.62-10.338-1.62-14.604v-23.106
		h22.608v101.671h-16.94l-4.174-9.529h-0.902C410.745,266.408,404.019,270.02,394.007,270.02z M401.964,254.575
		c5.355,0,9.294-1.495,11.77-4.484c2.523-2.958,3.877-8.003,4.111-15.134v-2.149c0-7.847-1.276-13.483-3.83-16.909
		c-2.521-3.394-6.663-5.106-12.394-5.106c-4.671,0-8.314,1.899-10.898,5.636c-2.616,3.799-3.893,9.311-3.893,16.504
		c0,7.193,1.308,12.611,3.923,16.224C393.37,252.737,397.105,254.575,401.964,254.575z"/>
</g>
</svg>
