<svg width="227" height="72" viewBox="0 0 227 72" fill="none" xmlns="http://www.w3.org/2000/svg">
<path d="M19.59 32.8572C18.49 32.8572 17.59 33.3572 16.99 34.2572C16.39 35.1572 16.09 36.4572 16.09 38.2572C16.09 39.9572 16.39 41.3572 17.09 42.1572C17.69 43.0572 18.59 43.4572 19.79 43.4572C21.09 43.4572 22.09 43.0572 22.69 42.3572C23.29 41.6572 23.59 40.4572 23.69 38.6572V38.1572C23.69 36.2572 23.39 34.8572 22.79 34.0572C21.99 33.2572 20.99 32.8572 19.59 32.8572Z" fill="#FAF6F0"/>
<path d="M70.0899 28.4572C67.2899 18.0572 62.0899 13.1572 57.0899 8.65716C48.1899 0.457158 37.9899 0.457153 32.2899 0.457153C23.7899 0.457153 16.9899 3.05715 10.9899 9.35715C5.28993 15.2572 0.989929 27.1572 0.989929 36.0572C0.989929 44.4572 1.68993 54.5572 9.48993 61.2572C21.5899 71.5572 29.3899 71.6572 37.9899 71.6572C46.4899 71.6572 53.6899 68.6572 63.5899 58.3572C69.2899 52.4572 71.8899 46.4572 72.0899 40.5572C72.2899 37.3572 70.7899 30.8572 70.0899 28.4572ZM62.5899 46.9572H57.3899V36.5572C57.3899 35.2572 57.1899 34.3572 56.6899 33.6572C56.1899 33.0572 55.4899 32.6572 54.4899 32.6572C53.1899 32.6572 52.2899 33.0572 51.6899 33.9572C51.0899 34.7572 50.7899 36.1572 50.7899 37.9572V46.8572H45.5899V36.4572C45.5899 35.1572 45.3899 34.2572 44.8899 33.5572C44.3899 32.9572 43.6899 32.5572 42.6899 32.5572C41.3899 32.5572 40.3899 33.0572 39.7899 33.9572C39.1899 34.8572 38.8899 36.3572 38.8899 38.4572V46.8572H33.7899V37.2572L28.9899 46.8572H28.2899H24.1899L23.1899 44.5572H22.9899C21.7899 46.2572 20.1899 47.1572 17.7899 47.1572C15.5899 47.1572 13.7899 46.3572 12.4899 44.7572C11.1899 43.1572 10.5899 40.8572 10.5899 38.0572C10.5899 35.1572 11.2899 32.8572 12.5899 31.2572C13.8899 29.6572 15.6899 28.8572 17.9899 28.8572C20.3899 28.8572 21.8899 29.7572 23.1899 31.4572H23.3899C23.0899 30.1572 22.9899 28.9572 22.9899 27.9572V22.3572H28.4899V40.1572L33.9899 29.2572H38.0899L38.5899 31.5572H38.8899C39.3899 30.7572 40.0899 30.0572 41.0899 29.6572C42.0899 29.1572 43.1899 28.9572 44.3899 28.9572C47.1899 28.9572 49.1899 29.8572 50.1899 31.5572H50.6899C51.1899 30.7572 51.9899 30.0572 52.8899 29.6572C53.8899 29.1572 54.9899 28.9572 56.1899 28.9572C58.2899 28.9572 59.9899 29.4572 61.0899 30.4572C62.1899 31.4572 62.7899 33.1572 62.7899 35.4572V46.9572H62.5899Z" fill="#FAF6F0"/>
<path d="M115.69 44.0571C114.59 43.0571 112.99 42.5571 110.79 42.5571C109.59 42.5571 108.39 42.7571 107.49 43.2571C106.49 43.7571 105.79 44.3571 105.29 45.1571H104.79C103.79 43.4571 101.89 42.5571 98.9899 42.5571C97.7899 42.5571 96.6899 42.7571 95.6899 43.2571C94.6899 43.7571 93.9899 44.3571 93.4899 45.1571H93.1899L92.6899 42.8571H88.59L85.89 48.3571L88.59 49.7571V60.7571H93.7899V52.3571C93.7899 50.2571 94.0899 48.7571 94.6899 47.8571C95.2899 46.9571 96.29 46.4571 97.59 46.4571C98.59 46.4571 99.2899 46.7571 99.7899 47.4571C100.29 48.0571 100.49 49.0571 100.49 50.3571V60.7571H105.69V51.8571C105.69 50.0571 105.99 48.6571 106.59 47.8571C107.19 47.0571 108.19 46.5571 109.39 46.5571C110.39 46.5571 111.09 46.8571 111.59 47.5571C112.09 48.1571 112.29 49.1571 112.29 50.4571V60.8571H117.49V49.2571C117.29 46.7571 116.79 45.0571 115.69 44.0571ZM133.29 60.5571L132.39 58.1571H132.29C131.49 59.1571 130.59 59.8571 129.79 60.2571C128.89 60.6571 127.79 60.8571 126.39 60.8571C124.69 60.8571 123.29 60.3571 122.39 59.3571C121.39 58.3571 120.89 56.9571 120.89 55.1571C120.89 53.2571 121.59 51.8571 122.89 50.9571C124.19 50.0571 126.19 49.5571 128.89 49.4571L131.99 49.3571V48.7571C131.99 46.9571 131.09 46.0571 129.19 46.0571C127.79 46.0571 126.09 46.4571 124.19 47.3571L122.59 44.0571C124.59 42.9571 126.89 42.4571 129.39 42.4571C131.79 42.4571 133.59 42.9571 134.89 44.0571C136.19 45.0571 136.79 46.6571 136.79 48.7571V60.6571H133.29V60.5571ZM131.89 52.3571L129.99 52.4571C128.59 52.4571 127.49 52.7571 126.79 53.2571C126.09 53.7571 125.79 54.4571 125.79 55.3571C125.79 56.7571 126.59 57.4571 128.19 57.4571C129.29 57.4571 130.19 57.1571 130.89 56.4571C131.59 55.8571 131.89 54.9571 131.89 53.8571V52.3571ZM149.09 60.9571C143.59 60.9571 140.79 57.9571 140.79 51.8571C140.79 48.8571 141.59 46.5571 143.09 44.9571C144.59 43.3571 146.79 42.5571 149.59 42.5571C151.69 42.5571 153.49 42.9571 155.09 43.7571L153.69 47.5571C152.89 47.2571 152.19 46.9571 151.59 46.7571C150.89 46.5571 150.29 46.4571 149.59 46.4571C147.09 46.4571 145.79 48.2571 145.79 51.8571C145.79 55.3571 147.09 57.0571 149.59 57.0571C150.49 57.0571 151.39 56.9571 152.19 56.6571C152.99 56.4571 153.79 56.0571 154.59 55.4571V59.6571C153.79 60.1571 152.99 60.4571 152.19 60.6571C151.29 60.8571 150.29 60.9571 149.09 60.9571ZM175.29 60.5571H170.39V50.1571C170.39 47.5571 169.39 46.2571 167.49 46.2571C166.09 46.2571 165.19 46.7571 164.59 47.6571C163.99 48.5571 163.69 50.0571 163.69 52.1571V60.5571H158.79V35.7571H163.69V40.7571C163.69 41.1571 163.69 42.0571 163.59 43.5571L163.49 44.9571H163.79C164.89 43.2571 166.59 42.3571 168.99 42.3571C171.09 42.3571 172.69 42.9571 173.79 44.0571C174.89 45.1571 175.39 46.7571 175.39 48.8571V60.5571H175.29ZM180.19 38.2571C180.19 36.6571 181.09 35.8571 182.79 35.8571C184.49 35.8571 185.39 36.6571 185.39 38.2571C185.39 39.0571 185.19 39.5571 184.69 40.0571C184.29 40.4571 183.59 40.6571 182.69 40.6571C181.09 40.5571 180.19 39.7571 180.19 38.2571ZM185.29 60.5571H180.39V42.7571H185.29V60.5571ZM206.99 60.5571H202.09V50.1571C202.09 48.8571 201.89 47.9571 201.39 47.2571C200.89 46.6571 200.19 46.2571 199.19 46.2571C197.79 46.2571 196.89 46.7571 196.29 47.6571C195.69 48.5571 195.39 50.0571 195.39 52.1571V60.5571H190.49V42.7571H194.19L194.89 45.0571H195.19C195.69 44.1571 196.49 43.5571 197.39 43.1571C198.29 42.7571 199.39 42.4571 200.59 42.4571C202.69 42.4571 204.19 43.0571 205.29 44.1571C206.39 45.2571 206.89 46.8571 206.89 48.9571V60.5571H206.99ZM223.39 60.5571L222.49 58.1571H222.39C221.59 59.1571 220.69 59.8571 219.89 60.2571C218.99 60.6571 217.89 60.8571 216.49 60.8571C214.79 60.8571 213.39 60.3571 212.49 59.3571C211.49 58.3571 210.99 56.9571 210.99 55.1571C210.99 53.2571 211.69 51.8571 212.99 50.9571C214.29 50.0571 216.29 49.5571 218.99 49.4571L222.09 49.3571V48.7571C222.09 46.9571 221.19 46.0571 219.29 46.0571C217.89 46.0571 216.19 46.4571 214.29 47.3571L212.69 44.0571C214.69 42.9571 216.99 42.4571 219.49 42.4571C221.89 42.4571 223.69 42.9571 224.99 44.0571C226.29 45.0571 226.89 46.6571 226.89 48.7571V60.6571H223.39V60.5571ZM221.99 52.3571L220.09 52.4571C218.69 52.4571 217.59 52.7571 216.89 53.2571C216.19 53.7571 215.89 54.4571 215.89 55.3571C215.89 56.7571 216.69 57.4571 218.29 57.4571C219.39 57.4571 220.29 57.1571 220.99 56.4571C221.69 55.8571 221.99 54.9571 221.99 53.8571V52.3571ZM118.79 33.2571L117.89 30.8571H117.79C116.99 31.8571 116.09 32.5571 115.29 32.9571C114.39 33.3571 113.29 33.5571 111.89 33.5571C110.19 33.5571 108.79 33.0571 107.89 32.0571C106.89 31.0571 106.39 29.6571 106.39 27.8571C106.39 25.9571 107.09 24.5571 108.39 23.6571C109.69 22.7571 111.69 22.2571 114.39 22.1571L117.49 22.0571V21.2571C117.49 19.4571 116.59 18.5571 114.69 18.5571C113.29 18.5571 111.59 18.9571 109.69 19.8571L108.09 16.5571C110.09 15.4571 112.39 14.9571 114.89 14.9571C117.29 14.9571 119.09 15.4571 120.39 16.5571C121.69 17.5571 122.29 19.1571 122.29 21.2571V33.1571H118.79V33.2571ZM117.39 24.9571L115.49 25.0571C114.09 25.0571 112.99 25.3571 112.39 25.8571C111.69 26.3571 111.39 27.0571 111.39 27.9571C111.39 29.3571 112.19 30.0571 113.79 30.0571C114.89 30.0571 115.79 29.7571 116.49 29.0571C117.19 28.4571 117.49 27.5571 117.49 26.4571V24.9571H117.39ZM134.09 29.6571C134.89 29.6571 135.99 29.4571 137.19 29.0571V32.6571C135.99 33.1571 134.49 33.4571 132.69 33.4571C130.79 33.4571 129.29 32.9571 128.49 31.9571C127.59 30.9571 127.19 29.4571 127.19 27.5571V18.9571H124.79V16.8571L127.49 15.2571L128.89 11.4571H131.99V15.2571H136.99V18.8571H131.99V27.4571C131.99 28.1571 132.19 28.6571 132.59 28.9571C132.99 29.5571 133.49 29.6571 134.09 29.6571ZM152.19 33.2571L151.29 30.8571H151.19C150.39 31.8571 149.49 32.5571 148.69 32.9571C147.79 33.3571 146.69 33.5571 145.29 33.5571C143.59 33.5571 142.19 33.0571 141.29 32.0571C140.29 31.0571 139.79 29.6571 139.79 27.8571C139.79 25.9571 140.49 24.5571 141.79 23.6571C143.09 22.7571 145.09 22.2571 147.79 22.1571L150.89 22.0571V21.2571C150.89 19.4571 149.99 18.5571 148.09 18.5571C146.69 18.5571 144.99 18.9571 143.09 19.8571L141.49 16.5571C143.49 15.4571 145.79 14.9571 148.29 14.9571C150.69 14.9571 152.49 15.4571 153.79 16.5571C155.09 17.5571 155.69 19.1571 155.69 21.2571V33.1571H152.19V33.2571ZM150.79 24.9571L148.89 25.0571C147.49 25.0571 146.39 25.3571 145.79 25.8571C145.09 26.3571 144.79 27.0571 144.79 27.9571C144.79 29.3571 145.59 30.0571 147.19 30.0571C148.29 30.0571 149.19 29.7571 149.89 29.0571C150.59 28.4571 150.89 27.5571 150.89 26.4571V24.9571H150.79ZM93.09 33.5571C90.89 33.5571 89.0899 32.7571 87.7899 31.1571C86.4899 29.5571 85.89 27.2571 85.89 24.4571C85.89 21.5571 86.59 19.2571 87.89 17.6571C89.19 16.0571 90.9899 15.2571 93.2899 15.2571C95.6899 15.2571 97.1899 16.1571 98.4899 17.8571H98.6899C98.3899 16.5571 98.2899 15.3571 98.2899 14.3571V8.75714H103.79V33.3571H99.6899L98.6899 31.0571H98.4899C97.0899 32.6571 95.49 33.5571 93.09 33.5571ZM94.9899 29.7571C96.2899 29.7571 97.29 29.3571 97.89 28.6571C98.49 27.9571 98.79 26.7571 98.89 24.9571V24.4571C98.89 22.5571 98.5899 21.1571 97.9899 20.3571C97.3899 19.5571 96.3899 19.1571 94.9899 19.1571C93.8899 19.1571 92.99 19.6571 92.39 20.5571C91.79 21.4571 91.4899 22.7571 91.4899 24.5571C91.4899 26.2571 91.7899 27.6571 92.4899 28.4571C92.8899 29.3571 93.7899 29.7571 94.9899 29.7571Z" fill="#FAF6F0"/>
</svg>
