<svg width="100" height="27" viewBox="0 0 100 27" fill="none" xmlns="http://www.w3.org/2000/svg">
<path d="M36.7339 18.0724H34.994V14.3688C34.994 13.9118 34.9149 13.5651 34.7647 13.3365C34.6144 13.108 34.3692 12.9898 34.0371 12.9898C33.5942 12.9898 33.2699 13.1553 33.0722 13.4784C32.8745 13.8015 32.7717 14.3373 32.7717 15.0859V18.0724H31.0317V11.729H32.3604L32.5977 12.5407H32.6926C32.8666 12.2491 33.1117 12.0206 33.436 11.8551C33.7602 11.6896 34.132 11.6108 34.5432 11.6108C35.5002 11.6108 36.1408 11.9182 36.4808 12.5407H36.6311C36.8051 12.2491 37.0503 12.0127 37.3824 11.8551C37.7146 11.6896 38.0863 11.6108 38.5055 11.6108C39.2252 11.6108 39.7709 11.7921 40.1426 12.1624C40.5143 12.5328 40.6962 13.1238 40.6962 13.9354V18.0724H38.9563V14.3688C38.9563 13.9118 38.8772 13.5651 38.7269 13.3365C38.5767 13.108 38.3315 12.9898 37.9993 12.9898C37.5723 12.9898 37.2559 13.1395 37.0424 13.4469C36.8288 13.7542 36.726 14.227 36.726 14.8889V18.0724H36.7339Z" fill="#FDFBF9" fill-opacity="0.3"/>
<path d="M46.5329 18.0724L46.2007 17.2135H46.1533C45.8606 17.5838 45.5601 17.836 45.2517 17.9778C44.9432 18.1197 44.5399 18.1906 44.0416 18.1906C43.4327 18.1906 42.9502 18.0172 42.5943 17.6705C42.2464 17.3238 42.0645 16.8273 42.0645 16.1812C42.0645 15.5114 42.3017 15.015 42.7762 14.6919C43.2508 14.3688 43.9625 14.1955 44.9116 14.1639L46.0188 14.1324V13.8566C46.0188 13.2105 45.6866 12.8953 45.0302 12.8953C44.5241 12.8953 43.923 13.045 43.2349 13.3523L42.6576 12.1861C43.3931 11.8078 44.1998 11.6108 45.0935 11.6108C45.9476 11.6108 46.6041 11.8 47.0549 12.1703C47.5136 12.5407 47.735 13.108 47.735 13.8645V18.096H46.5329V18.0724ZM46.0188 15.1332L45.3466 15.1568C44.8404 15.1726 44.4687 15.2592 44.2156 15.4326C43.9705 15.5981 43.8439 15.8502 43.8439 16.197C43.8439 16.6855 44.1286 16.9298 44.6901 16.9298C45.0935 16.9298 45.4178 16.8116 45.655 16.5831C45.8923 16.3546 46.0188 16.0472 46.0188 15.6611V15.1332Z" fill="#FDFBF9" fill-opacity="0.3"/>
<path d="M53.0343 18.1906C52.283 18.1906 51.6978 17.9227 51.2707 17.3789H51.1758C51.239 17.9069 51.2707 18.2142 51.2707 18.3009V20.8698H49.5308V11.729H50.9464L51.1916 12.5486H51.2707C51.674 11.9182 52.2751 11.603 53.0739 11.603C53.8252 11.603 54.4104 11.8945 54.8375 12.4698C55.2646 13.045 55.4781 13.8487 55.4781 14.881C55.4781 15.5587 55.3753 16.1497 55.1776 16.6461C54.9799 17.1426 54.6952 17.5287 54.3234 17.7887C53.9517 18.0487 53.5326 18.1906 53.0343 18.1906ZM52.5203 12.9977C52.0932 12.9977 51.7768 13.1317 51.5791 13.3917C51.3814 13.6517 51.2786 14.0851 51.2707 14.6919V14.881C51.2707 15.5587 51.3735 16.0472 51.5791 16.3467C51.7847 16.6382 52.1011 16.788 52.544 16.788C53.319 16.788 53.7145 16.1497 53.7145 14.8731C53.7145 14.2506 53.6196 13.7778 53.4298 13.4705C53.24 13.1632 52.9315 12.9977 52.5203 12.9977Z" fill="#FDFBF9" fill-opacity="0.3"/>
<path d="M60.9587 18.0724L60.6265 17.2135H60.579C60.2864 17.5838 59.9859 17.836 59.6774 17.9778C59.369 18.1197 58.9657 18.1906 58.4674 18.1906C57.8584 18.1906 57.376 18.0172 57.0201 17.6705C56.6721 17.3238 56.4902 16.8273 56.4902 16.1812C56.4902 15.5114 56.7275 15.015 57.202 14.6919C57.6765 14.3688 58.3883 14.1955 59.3374 14.1639L60.4446 14.1324V13.8566C60.4446 13.2105 60.1124 12.8953 59.456 12.8953C58.9498 12.8953 58.3488 13.045 57.6607 13.3523L57.0834 12.1861C57.8189 11.8078 58.6256 11.6108 59.5193 11.6108C60.3734 11.6108 61.0298 11.8 61.4806 12.1703C61.9393 12.5407 62.1608 13.108 62.1608 13.8645V18.096H60.9587V18.0724ZM60.4525 15.1332L59.7803 15.1568C59.2741 15.1726 58.9024 15.2592 58.6493 15.4326C58.4041 15.5981 58.2776 15.8502 58.2776 16.197C58.2776 16.6855 58.5623 16.9298 59.1238 16.9298C59.5272 16.9298 59.8514 16.8116 60.0887 16.5831C60.326 16.3546 60.4525 16.0472 60.4525 15.6611V15.1332Z" fill="#FDFBF9" fill-opacity="0.3"/>
<path d="M65.7038 18.0723H63.9639V9.24683H65.7038V18.0723Z" fill="#FDFBF9" fill-opacity="0.3"/>
<path d="M66.6133 11.729H68.5193L69.7214 15.2986C69.8242 15.6059 69.8954 15.9763 69.9349 16.4018H69.9666C70.0061 16.0157 70.0931 15.6453 70.2117 15.2986L71.3901 11.729H73.2566L70.5597 18.884C70.3146 19.5459 69.9587 20.0423 69.5 20.3733C69.0413 20.7042 68.5114 20.8697 67.8945 20.8697C67.594 20.8697 67.3013 20.8382 67.0087 20.7752V19.3962C67.2143 19.4434 67.4437 19.4671 67.6889 19.4671C67.9973 19.4671 68.2662 19.3725 68.4956 19.1834C68.7249 18.9943 68.9068 18.7106 69.0333 18.3324L69.1362 18.0172L66.6133 11.729Z" fill="#FDFBF9" fill-opacity="0.3"/>
<path d="M76.8388 16.8115C77.1393 16.8115 77.511 16.7485 77.9302 16.6146V17.899C77.4952 18.0881 76.9653 18.1905 76.3326 18.1905C75.6366 18.1905 75.1305 18.0172 74.8141 17.6626C74.4978 17.3159 74.3396 16.7879 74.3396 16.0866V13.0292H73.5171V12.2964L74.474 11.7211L74.9723 10.3815H76.0795V11.729H77.8669V13.0292H76.0874V16.0866C76.0874 16.3309 76.1586 16.5121 76.293 16.6303C76.4275 16.7485 76.6094 16.8115 76.8388 16.8115Z" fill="#FDFBF9" fill-opacity="0.3"/>
<path d="M79.1484 10.09C79.1484 9.52262 79.4648 9.24683 80.0975 9.24683C80.7302 9.24683 81.0465 9.5305 81.0465 10.09C81.0465 10.3579 80.9674 10.5707 80.8093 10.7204C80.6511 10.8701 80.4138 10.941 80.0975 10.941C79.4648 10.941 79.1484 10.6573 79.1484 10.09ZM80.9595 18.0723H79.2196V11.729H80.9595V18.0723Z" fill="#FDFBF9" fill-opacity="0.3"/>
<path d="M85.3648 18.1906C83.3797 18.1906 82.3911 17.1031 82.3911 14.9362C82.3911 13.8566 82.66 13.0371 83.1978 12.4619C83.7356 11.8945 84.5107 11.6108 85.5151 11.6108C86.2506 11.6108 86.9149 11.7527 87.5002 12.0442L86.9861 13.3838C86.7093 13.2735 86.4562 13.1868 86.2189 13.1159C85.9817 13.045 85.7444 13.0135 85.5151 13.0135C84.6135 13.0135 84.1627 13.6517 84.1627 14.9283C84.1627 16.1654 84.6135 16.7879 85.5151 16.7879C85.8472 16.7879 86.1557 16.7407 86.4404 16.654C86.7251 16.5673 87.0098 16.4255 87.2945 16.2364V17.7178C87.0098 17.899 86.733 18.0172 86.4404 18.0881C86.1636 18.1512 85.8077 18.1906 85.3648 18.1906Z" fill="#FDFBF9" fill-opacity="0.3"/>
<path d="M93.2262 16.1891C93.2262 16.8431 92.9968 17.3317 92.546 17.6784C92.0952 18.0172 91.4151 18.1906 90.5135 18.1906C90.0469 18.1906 89.6514 18.1591 89.3272 18.096C89.0029 18.033 88.6945 17.9384 88.4098 17.8202V16.394C88.734 16.5437 89.0978 16.6698 89.5012 16.7722C89.9045 16.8746 90.2604 16.9219 90.5688 16.9219C91.2015 16.9219 91.5179 16.7407 91.5179 16.3782C91.5179 16.2442 91.4784 16.1339 91.3914 16.0472C91.3044 15.9606 91.162 15.866 90.9564 15.7557C90.7507 15.6454 90.4819 15.5193 90.1339 15.3774C89.6435 15.1726 89.2876 14.9835 89.0583 14.8101C88.8289 14.6367 88.6628 14.4397 88.56 14.2112C88.4572 13.9827 88.4019 13.7069 88.4019 13.3759C88.4019 12.8086 88.6233 12.3752 89.0583 12.0679C89.4933 11.7606 90.1181 11.603 90.9247 11.603C91.6919 11.603 92.4353 11.7684 93.1629 12.0994L92.6409 13.3444C92.3246 13.2105 92.0241 13.1002 91.7472 13.0135C91.4704 12.9268 91.1857 12.8795 90.901 12.8795C90.387 12.8795 90.1339 13.0214 90.1339 13.2972C90.1339 13.4547 90.213 13.5887 90.379 13.699C90.5451 13.8093 90.9089 13.9827 91.4625 14.2033C91.9608 14.4003 92.3246 14.5895 92.5539 14.7628C92.7833 14.9362 92.9573 15.1411 93.068 15.3617C93.1708 15.606 93.2262 15.8739 93.2262 16.1891Z" fill="#FDFBF9" fill-opacity="0.3"/>
<path d="M99.2366 1.1778V26.6063H26.7136V1.1778H99.2366ZM99.6162 0.799561H26.334V26.9845H99.6162V0.799561Z" fill="#FDFBF9" fill-opacity="0.3"/>
<path d="M7.84335 13.2814C7.48746 13.2814 7.21065 13.4232 7.01293 13.7148C6.81522 14.0063 6.7124 14.424 6.7124 14.9677C6.7124 15.5114 6.81522 15.929 7.01293 16.2048C7.21065 16.4806 7.49537 16.6146 7.86708 16.6146C8.27833 16.6146 8.57886 16.5043 8.76867 16.2757C8.95848 16.0472 9.06129 15.669 9.08502 15.1253V14.9598C9.08502 14.3609 8.99011 13.9354 8.7924 13.6754C8.60259 13.4075 8.28624 13.2814 7.84335 13.2814Z" fill="#FDFBF9" fill-opacity="0.3"/>
<path d="M0.0454102 0.799561V26.9845H26.3261V0.799561H0.0454102ZM21.3911 17.6862H19.7539V14.4239C19.7539 14.0221 19.6828 13.7226 19.5404 13.5178C19.3981 13.3129 19.1687 13.2183 18.8603 13.2183C18.4648 13.2183 18.1643 13.3523 17.9666 13.6202C17.7689 13.8881 17.674 14.3057 17.674 14.8889V17.6941H16.0448V14.4318C16.0448 14.03 15.9736 13.7305 15.8312 13.5256C15.6889 13.3208 15.4595 13.2262 15.1511 13.2262C14.7319 13.2262 14.4314 13.368 14.2416 13.6517C14.0518 13.9354 13.9569 14.4082 13.9569 15.0622V17.6862H12.3277V14.6761L10.8171 17.6862H10.6036H9.30652L8.99017 16.9613H8.919C8.54729 17.5129 8.03322 17.7887 7.26607 17.7887C6.55429 17.7887 6.00068 17.5365 5.59733 17.0243C5.19399 16.5121 4.98836 15.8108 4.98836 14.9046C4.98836 13.9906 5.19399 13.2735 5.60524 12.7613C6.0165 12.2491 6.58592 11.9969 7.30562 11.9969C8.06485 11.9969 8.53938 12.2727 8.94272 12.8164H8.99808C8.919 12.3988 8.87154 12.0285 8.87154 11.7054V9.94815H10.5956V15.535L12.3197 12.0915H13.6168V12.0994L13.7829 12.8164H13.8699C14.028 12.5564 14.2574 12.3594 14.5658 12.2176C14.8664 12.0757 15.2143 11.9969 15.6098 11.9969C16.5035 11.9969 17.1045 12.2727 17.4209 12.8164H17.5632C17.7214 12.5564 17.9587 12.3594 18.2671 12.2097C18.5755 12.0679 18.9314 11.9969 19.319 11.9969C19.9991 11.9969 20.5053 12.1624 20.8533 12.4855C21.2012 12.8086 21.3752 13.3286 21.3752 14.0457V17.6862H21.3911Z" fill="#FDFBF9" fill-opacity="0.3"/>
</svg>
