<?xml version="1.0" encoding="utf-8"?>
<!-- Generator: Adobe Illustrator 24.1.1, SVG Export Plug-In . SVG Version: 6.00 Build 0)  -->
<svg version="1.1" id="Camada_1" xmlns="http://www.w3.org/2000/svg" xmlns:xlink="http://www.w3.org/1999/xlink" x="0px" y="0px"
	 viewBox="0 0 406.8 162.2" style="enable-background:new 0 0 406.8 162.2;" xml:space="preserve">
<style type="text/css">
	.st0{fill:#FAF6F0;}
</style>
<g>
	<g>
		<path class="st0" d="M202,107.9h-10.7V53.2H202V107.9z"/>
		<path class="st0" d="M231,108.6c-6.3,0-11.3-1.7-14.8-5.2c-3.6-3.5-5.3-8.4-5.3-14.8c0-6.6,1.6-11.7,4.9-15.3
			c3.3-3.6,7.8-5.4,13.7-5.4c5.6,0,9.9,1.6,13,4.7s4.6,7.5,4.6,13.1v5.2h-25.3c0.1,3,1,5.4,2.7,7.1c1.7,1.7,4.1,2.6,7.1,2.6
			c2.4,0,4.6-0.2,6.7-0.7s4.3-1.3,6.6-2.4v8.3c-1.9,0.9-3.9,1.6-6,2.1S234.1,108.6,231,108.6z M229.5,75.5c-2.3,0-4.1,0.7-5.3,2.2
			s-2,3.5-2.2,6.1h15c0-2.6-0.7-4.7-2.1-6.1S231.8,75.5,229.5,75.5z"/>
		<path class="st0" d="M280.7,107.9l-2.1-5.3h-0.3c-1.8,2.3-3.7,3.8-5.6,4.7s-4.4,1.3-7.5,1.3c-3.8,0-6.7-1.1-8.9-3.2
			c-2.2-2.2-3.3-5.2-3.3-9.2c0-4.2,1.5-7.2,4.4-9.2c2.9-2,7.3-3.1,13.2-3.3l6.8-0.2v-1.7c0-4-2-6-6.1-6c-3.1,0-6.8,0.9-11.1,2.8
			l-3.6-7.2c4.5-2.4,9.5-3.6,15-3.6c5.3,0,9.3,1.1,12.1,3.4c2.8,2.3,4.2,5.8,4.2,10.5v26.2H280.7z M277.6,89.7l-4.1,0.1
			c-3.1,0.1-5.4,0.7-7,1.7c-1.5,1-2.3,2.6-2.3,4.7c0,3,1.7,4.5,5.2,4.5c2.5,0,4.5-0.7,6-2.1c1.5-1.4,2.2-3.3,2.2-5.7V89.7z"/>
		<path class="st0" d="M311.7,108.6c-4.6,0-8.2-1.8-10.9-5.4s-4-8.6-4-14.9c0-6.4,1.3-11.5,4-15.1c2.7-3.6,6.4-5.4,11.1-5.4
			c4.9,0,8.7,1.9,11.3,5.8h0.4c-0.5-2.9-0.8-5.5-0.8-7.8V53.2h10.8v54.7h-8.2l-2.1-5.1h-0.5C320.4,106.6,316.7,108.6,311.7,108.6z
			 M315.5,100c2.7,0,4.8-0.8,6-2.4c1.3-1.6,2-4.3,2.1-8.1v-1.2c0-4.2-0.7-7.2-2-9.1s-3.4-2.7-6.3-2.7c-2.4,0-4.2,1-5.6,3
			c-1.3,2-2,5-2,8.8s0.7,6.8,2,8.7S313,100,315.5,100z"/>
		<path class="st0" d="M372.2,96.2c0,4-1.4,7.1-4.2,9.2s-7,3.2-12.6,3.2c-2.9,0-5.3-0.2-7.3-0.6s-3.9-1-5.7-1.7v-8.9
			c2,0.9,4.2,1.7,6.7,2.4s4.7,0.9,6.6,0.9c3.9,0,5.8-1.1,5.8-3.4c0-0.8-0.3-1.5-0.8-2.1s-1.4-1.1-2.7-1.8s-3-1.4-5.1-2.3
			c-3-1.3-5.2-2.4-6.7-3.5c-1.4-1.1-2.4-2.3-3.1-3.7c-0.6-1.4-1-3.1-1-5.2c0-3.5,1.4-6.2,4.1-8.1c2.7-1.9,6.5-2.9,11.5-2.9
			c4.7,0,9.3,1,13.8,3.1l-3.2,7.7c-2-0.8-3.8-1.5-5.5-2.1c-1.7-0.5-3.5-0.8-5.2-0.8c-3.2,0-4.7,0.9-4.7,2.6c0,1,0.5,1.8,1.5,2.5
			s3.3,1.7,6.7,3.1c3.1,1.2,5.3,2.4,6.8,3.5c1.4,1.1,2.5,2.3,3.2,3.7S372.2,94.3,372.2,96.2z"/>
	</g>
	<g>
		<path class="st0" d="M405,1.7v158.8H164V1.7H405 M406.8,0H162.2v162.2h244.5V0L406.8,0z"/>
	</g>
	<g>
		<path class="st0" d="M48.1,77.5c-2.2,0-3.9,0.9-5.1,2.7c-1.2,1.8-1.8,4.4-1.8,7.8s0.6,5.9,1.8,7.6c1.2,1.7,3,2.5,5.3,2.5
			c2.5,0,4.4-0.7,5.6-2.1c1.2-1.4,1.8-3.8,1.9-7.1v-1c0-3.7-0.6-6.4-1.8-8C52.8,78.3,50.8,77.5,48.1,77.5z"/>
		<path class="st0" d="M0,0v162.2l162.2,0V0L0,0z M131.7,104.8h-10.1V84.6c0-2.5-0.4-4.4-1.3-5.6c-0.9-1.2-2.3-1.9-4.2-1.9
			c-2.5,0-4.3,0.8-5.5,2.5c-1.2,1.7-1.8,4.3-1.8,7.9v17.4h-10V84.6c0-2.5-0.4-4.4-1.3-5.6c-0.9-1.2-2.3-1.9-4.2-1.9
			c-2.6,0-4.4,0.9-5.6,2.7c-1.2,1.8-1.7,4.7-1.7,8.8v16.3h-10V86.1l-9.3,18.6h-1.3v0h-8l-2-4.5h-0.4c-2.3,3.4-5.5,5.1-10.2,5.1
			c-4.4,0-7.8-1.6-10.3-4.7c-2.5-3.2-3.7-7.5-3.7-13.1c0-5.7,1.3-10.1,3.8-13.3c2.5-3.2,6-4.7,10.5-4.7c4.7,0,7.6,1.7,10.1,5.1h0.3
			c-0.5-2.6-0.8-4.9-0.8-6.9V56.8h10.7v34.6l10.7-21.3h8l0,0h0l1,4.4h0.6c1-1.6,2.4-2.8,4.3-3.7c1.9-0.9,4-1.3,6.4-1.3
			c5.5,0,9.2,1.7,11.2,5.1h0.9c1-1.6,2.4-2.9,4.4-3.7c1.9-0.9,4.1-1.3,6.5-1.3c4.2,0,7.3,1,9.5,3c2.1,2,3.2,5.2,3.2,9.7V104.8z"/>
	</g>
</g>
</svg>
