<?xml version="1.0" encoding="utf-8"?>
<!-- Generator: Adobe Illustrator 24.1.1, SVG Export Plug-In . SVG Version: 6.00 Build 0)  -->
<svg version="1.1" id="Camada_1" xmlns="http://www.w3.org/2000/svg" xmlns:xlink="http://www.w3.org/1999/xlink" x="0px" y="0px"
	 viewBox="0 0 324.4 162.1" style="enable-background:new 0 0 324.4 162.1;" xml:space="preserve">
<style type="text/css">
	.st0{fill:#FAF6F0;}
</style>
<g>
	<g>
		<path class="st0" d="M202,107.9h-10.7V53.2H202V107.9z"/>
		<path class="st0" d="M248.9,88.1c0,6.4-1.7,11.4-5.1,15c-3.4,3.6-8.1,5.4-14.1,5.4c-3.8,0-7.1-0.8-10-2.5s-5.1-4-6.6-7.1
			s-2.3-6.7-2.3-10.8c0-6.4,1.7-11.4,5-15c3.4-3.6,8.1-5.3,14.1-5.3c3.8,0,7.1,0.8,10,2.5c2.9,1.6,5.1,4,6.6,7.1
			C248.2,80.4,248.9,84,248.9,88.1z M221.8,88.1c0,3.9,0.6,6.8,1.9,8.8c1.3,2,3.4,3,6.2,3c2.9,0,4.9-1,6.2-3c1.3-2,1.9-4.9,1.9-8.8
			c0-3.9-0.6-6.8-1.9-8.8c-1.3-1.9-3.3-2.9-6.2-2.9c-2.9,0-4.9,1-6.2,2.9S221.8,84.2,221.8,88.1z"/>
		<path class="st0" d="M292.1,107.9c0,5.6-1.6,9.9-4.9,12.8s-8.2,4.4-14.7,4.4c-5.7,0-10.6-0.8-14.7-2.3v-8.6c4.8,2,9.9,3,15.3,3
			c5.5,0,8.3-3,8.3-8.9v-0.8l0.3-4.8h-0.3c-2.5,3.9-6.2,5.8-11.1,5.8c-4.7,0-8.4-1.8-11-5.4c-2.6-3.6-3.9-8.6-3.9-14.8
			c0-6.4,1.3-11.5,4-15.1c2.7-3.6,6.4-5.4,11.1-5.4c4.8,0,8.6,1.9,11.4,5.8h0.3l0.9-5h9.1V107.9z M274.1,100.2
			c2.9,0,4.9-0.8,6.2-2.5s1.9-4.3,1.9-8v-1.3c0-4.2-0.7-7.2-2-9.1c-1.3-1.8-3.4-2.8-6.3-2.8c-5,0-7.6,4-7.6,11.9
			c0,3.9,0.6,6.9,1.9,8.8C269.5,99.2,271.4,100.2,274.1,100.2z"/>
	</g>
	<g>
		<path class="st0" d="M323,1.3v159.4H163.6V1.3H323 M324.4-0.1H162.2v162.2h162.2V-0.1L324.4-0.1z"/>
	</g>
	<g>
		<path class="st0" d="M0,0v162.2l162.2,0V0L0,0z M131.7,104.7h-10.1V84.5c0-2.5-0.4-4.4-1.3-5.6c-0.9-1.2-2.3-1.9-4.2-1.9
			c-2.5,0-4.3,0.8-5.5,2.5c-1.2,1.6-1.8,4.3-1.8,7.9v17.4h-10V84.5c0-2.5-0.4-4.4-1.3-5.6c-0.9-1.2-2.3-1.9-4.2-1.9
			c-2.6,0-4.4,0.9-5.6,2.7c-1.2,1.8-1.7,4.7-1.7,8.8v16.3h-10V86l-9.3,18.6h-1.3v0h-8l-2-4.5h-0.4c-2.3,3.4-5.5,5.1-10.2,5.1
			c-4.4,0-7.8-1.6-10.3-4.7s-3.7-7.5-3.7-13.1c0-5.7,1.3-10.1,3.8-13.3c2.5-3.2,6-4.7,10.5-4.7c4.7,0,7.6,1.7,10.1,5.1h0.3
			c-0.5-2.6-0.8-4.9-0.8-6.9V56.7h10.7v34.6l10.7-21.3h8l0,0h0l1,4.4h0.6c1-1.6,2.4-2.8,4.3-3.7c1.9-0.9,4-1.3,6.4-1.3
			c5.5,0,9.2,1.7,11.2,5.1h0.9c1-1.6,2.4-2.9,4.4-3.7c1.9-0.9,4.1-1.3,6.5-1.3c4.2,0,7.3,1,9.5,3c2.1,2,3.2,5.2,3.2,9.7V104.7z"/>
		<path class="st0" d="M48.1,77.4c-2.2,0-3.9,0.9-5.1,2.7c-1.2,1.8-1.8,4.4-1.8,7.8c0,3.4,0.6,6,1.8,7.6c1.2,1.7,3,2.5,5.3,2.5
			c2.5,0,4.4-0.7,5.6-2.1c1.2-1.4,1.8-3.8,1.9-7.1v-1c0-3.7-0.6-6.4-1.8-8C52.8,78.2,50.8,77.4,48.1,77.4z"/>
	</g>
</g>
</svg>
