<?xml version="1.0" encoding="utf-8"?>
<!-- Generator: Adobe Illustrator 24.1.1, SVG Export Plug-In . SVG Version: 6.00 Build 0)  -->
<svg version="1.1" id="Camada_1" xmlns="http://www.w3.org/2000/svg" xmlns:xlink="http://www.w3.org/1999/xlink" x="0px" y="0px"
	 viewBox="0 0 614.5 162.2" style="enable-background:new 0 0 614.5 162.2;" xml:space="preserve">
<style type="text/css">
	.st0{fill:#FAF6F0;}
</style>
<g>
	<g>
		<path class="st0" d="M226.4,107h-10.7v-23c0-2.8-0.5-5-1.4-6.4s-2.4-2.1-4.5-2.1c-2.7,0-4.7,1-6,3s-1.9,5.3-1.9,9.9V107h-10.7
			V67.7h8.2l1.4,5h0.6c1.1-1.8,2.6-3.2,4.6-4.2s4.3-1.5,6.9-1.5c5.9,0,9.9,1.9,12,5.8h0.9c1.1-1.8,2.6-3.2,4.7-4.3s4.4-1.5,6.9-1.5
			c4.5,0,7.8,1.1,10.1,3.4s3.4,5.9,3.4,11V107h-10.8v-23c0-2.8-0.5-5-1.4-6.4s-2.4-2.1-4.5-2.1c-2.6,0-4.6,0.9-5.9,2.8s-2,4.9-2,8.9
			V107z"/>
		<path class="st0" d="M286.9,107l-2.1-5.3h-0.3c-1.8,2.3-3.7,3.8-5.6,4.7s-4.4,1.3-7.5,1.3c-3.8,0-6.7-1.1-8.9-3.2
			s-3.3-5.2-3.3-9.2c0-4.2,1.5-7.2,4.4-9.2s7.3-3.1,13.2-3.3l6.8-0.2v-1.7c0-4-2-6-6.1-6c-3.1,0-6.8,0.9-11.1,2.8l-3.6-7.2
			c4.5-2.4,9.5-3.6,15-3.6c5.3,0,9.3,1.1,12.1,3.4s4.2,5.8,4.2,10.5V107H286.9z M283.7,88.8l-4.1,0.1c-3.1,0.1-5.4,0.7-7,1.7
			s-2.3,2.6-2.3,4.7c0,3,1.7,4.5,5.2,4.5c2.5,0,4.5-0.7,6-2.1s2.2-3.3,2.2-5.7V88.8z"/>
		<path class="st0" d="M327,107.7c-4.6,0-8.2-1.7-10.9-5h-0.6c0.4,3.3,0.6,5.2,0.6,5.7v15.9h-10.7V67.7h8.7l1.5,5.1h0.5
			c2.5-3.9,6.2-5.8,11.1-5.8c4.6,0,8.3,1.8,10.9,5.4s3.9,8.6,3.9,14.9c0,4.2-0.6,7.8-1.8,10.9s-3,5.4-5.3,7.1S330.1,107.7,327,107.7
			z M323.9,75.6c-2.6,0-4.6,0.8-5.8,2.4s-1.9,4.3-1.9,8.1v1.2c0,4.2,0.6,7.2,1.9,9.1s3.2,2.7,6,2.7c4.8,0,7.2-4,7.2-11.9
			c0-3.9-0.6-6.8-1.8-8.7S326.4,75.6,323.9,75.6z"/>
		<path class="st0" d="M376,107l-2.1-5.3h-0.3c-1.8,2.3-3.7,3.8-5.6,4.7s-4.4,1.3-7.5,1.3c-3.8,0-6.7-1.1-8.9-3.2s-3.3-5.2-3.3-9.2
			c0-4.2,1.5-7.2,4.4-9.2s7.3-3.1,13.2-3.3l6.8-0.2v-1.7c0-4-2-6-6.1-6c-3.1,0-6.8,0.9-11.1,2.8l-3.6-7.2c4.5-2.4,9.5-3.6,15-3.6
			c5.3,0,9.3,1.1,12.1,3.4s4.2,5.8,4.2,10.5V107H376z M372.8,88.8l-4.1,0.1c-3.1,0.1-5.4,0.7-7,1.7s-2.3,2.6-2.3,4.7
			c0,3,1.7,4.5,5.2,4.5c2.5,0,4.5-0.7,6-2.1s2.2-3.3,2.2-5.7V88.8z"/>
		<path class="st0" d="M405.2,107h-10.7V52.3h10.7V107z"/>
		<path class="st0" d="M410.8,67.7h11.7l7.4,22.1c0.6,1.9,1.1,4.2,1.3,6.8h0.2c0.3-2.4,0.8-4.7,1.5-6.8l7.3-22.1h11.5L435.2,112
			c-1.5,4.1-3.7,7.2-6.5,9.2s-6.1,3.1-9.9,3.1c-1.9,0-3.7-0.2-5.4-0.6v-8.5c1.3,0.3,2.7,0.5,4.2,0.5c1.9,0,3.6-0.6,5-1.7
			s2.5-2.9,3.3-5.3l0.6-1.9L410.8,67.7z"/>
		<path class="st0" d="M474,99.2c1.9,0,4.1-0.4,6.8-1.2v8c-2.7,1.2-6,1.8-9.8,1.8c-4.3,0-7.4-1.1-9.4-3.3s-2.9-5.4-2.9-9.8V75.8
			h-5.1v-4.5l5.9-3.6l3.1-8.3h6.9v8.4h11v8.1h-11v18.9c0,1.5,0.4,2.6,1.3,3.4S472.6,99.2,474,99.2z"/>
		<path class="st0" d="M488.2,57.6c0-3.5,1.9-5.2,5.8-5.2s5.8,1.7,5.8,5.2c0,1.7-0.5,3-1.5,3.9s-2.4,1.4-4.4,1.4
			C490.2,62.8,488.2,61.1,488.2,57.6z M499.4,107h-10.7V67.7h10.7V107z"/>
		<path class="st0" d="M526.6,107.7c-12.2,0-18.4-6.7-18.4-20.1c0-6.7,1.7-11.8,5-15.3s8.1-5.3,14.3-5.3c4.5,0,8.6,0.9,12.2,2.7
			l-3.2,8.3c-1.7-0.7-3.3-1.2-4.7-1.7s-2.9-0.7-4.4-0.7c-5.6,0-8.4,4-8.4,11.9c0,7.7,2.8,11.5,8.4,11.5c2.1,0,4-0.3,5.7-0.8
			s3.5-1.4,5.3-2.6v9.2c-1.7,1.1-3.5,1.9-5.3,2.3S529.3,107.7,526.6,107.7z"/>
		<path class="st0" d="M575.1,95.3c0,4-1.4,7.1-4.2,9.2s-7,3.2-12.6,3.2c-2.9,0-5.3-0.2-7.3-0.6s-3.9-1-5.7-1.7v-8.9
			c2,0.9,4.2,1.7,6.7,2.4s4.7,0.9,6.6,0.9c3.9,0,5.8-1.1,5.8-3.4c0-0.8-0.3-1.5-0.8-2.1s-1.4-1.1-2.7-1.8s-3-1.4-5.1-2.3
			c-3-1.3-5.2-2.4-6.7-3.5s-2.4-2.3-3.1-3.7s-1-3.1-1-5.2c0-3.5,1.4-6.2,4.1-8.1s6.5-2.9,11.5-2.9c4.7,0,9.3,1,13.8,3.1l-3.2,7.7
			c-2-0.8-3.8-1.5-5.5-2.1s-3.5-0.8-5.2-0.8c-3.2,0-4.7,0.9-4.7,2.6c0,1,0.5,1.8,1.5,2.5s3.3,1.7,6.7,3.1c3.1,1.2,5.3,2.4,6.8,3.5
			s2.5,2.3,3.2,3.7S575.1,93.4,575.1,95.3z"/>
	</g>
	<g>
		<path class="st0" d="M612.2,2.4v157.5H164.6V2.4H612.2 M614.5,0H162.2v162.2h452.3V0L614.5,0z"/>
	</g>
	<g>
		<path class="st0" d="M48.1,77.3c-2.2,0-3.9,0.9-5.1,2.7c-1.2,1.8-1.8,4.4-1.8,7.8s0.6,5.9,1.8,7.6c1.2,1.7,3,2.5,5.3,2.5
			c2.5,0,4.4-0.7,5.6-2.1c1.2-1.4,1.8-3.8,1.9-7.1v-1c0-3.7-0.6-6.4-1.8-8C52.8,78.1,50.8,77.3,48.1,77.3z"/>
		<path class="st0" d="M0,0v162.2l162.2,0V0L0,0z M131.7,104.6h-10.1V84.4c0-2.5-0.4-4.4-1.3-5.6c-0.9-1.2-2.3-1.9-4.2-1.9
			c-2.5,0-4.3,0.8-5.5,2.5c-1.2,1.6-1.8,4.3-1.8,7.9v17.4h-10V84.4c0-2.5-0.4-4.4-1.3-5.6c-0.9-1.2-2.3-1.9-4.2-1.9
			c-2.6,0-4.4,0.9-5.6,2.7c-1.2,1.8-1.7,4.7-1.7,8.8v16.3h-10V86l-9.3,18.6h-1.3v0h-8l-2-4.5h-0.4c-2.3,3.4-5.5,5.1-10.2,5.1
			c-4.4,0-7.8-1.6-10.3-4.7c-2.5-3.2-3.7-7.5-3.7-13.1c0-5.7,1.3-10.1,3.8-13.3c2.5-3.2,6-4.7,10.5-4.7c4.7,0,7.6,1.7,10.1,5.1h0.3
			c-0.5-2.6-0.8-4.9-0.8-6.9V56.7h10.7v34.6L75.8,70h8l0,0h0l1,4.4h0.6c1-1.6,2.4-2.8,4.3-3.7c1.9-0.9,4-1.3,6.4-1.3
			c5.5,0,9.2,1.7,11.2,5.1h0.9c1-1.6,2.4-2.9,4.4-3.7c1.9-0.9,4.1-1.3,6.5-1.3c4.2,0,7.3,1,9.5,3c2.1,2,3.2,5.2,3.2,9.7V104.6z"/>
	</g>
</g>
</svg>
