<svg width="102" height="50" viewBox="0 0 102 50" fill="none" xmlns="http://www.w3.org/2000/svg">
<path d="M66.4843 32.9041C65.0157 32.9041 63.8639 32.3714 63.0291 31.3031H62.8521C62.9712 32.3491 63.0291 32.9517 63.0291 33.1169V38.1806H59.6201V20.1773H62.3923L62.8744 21.7992H63.0291C63.8267 20.5641 65.0082 19.9437 66.5736 19.9437C68.0482 19.9437 69.2059 20.5121 70.0377 21.6564C70.8724 22.7932 71.2905 24.3794 71.2905 26.406C71.2905 27.7408 71.0941 28.8999 70.7013 29.882C70.3129 30.8656 69.7549 31.6155 69.0333 32.1289C68.3086 32.6452 67.4604 32.9041 66.4843 32.9041ZM65.4755 22.6711C64.6362 22.6711 64.0187 22.933 63.6348 23.4494C63.245 23.9687 63.0455 24.8228 63.0291 26.0162V26.3852C63.0291 27.7244 63.2286 28.6871 63.6274 29.269C64.0262 29.8522 64.657 30.1409 65.5215 30.1409C67.0467 30.1409 67.8131 28.882 67.8131 26.3599C67.8131 25.1323 67.6256 24.2082 67.2477 23.5952C66.8712 22.9777 66.2805 22.6711 65.4755 22.6711ZM89.3504 32.6794H85.1363L83.8522 31.4131C82.4267 32.4071 80.8181 32.9026 79.0221 32.9026C77.2023 32.9026 75.762 32.4845 74.6981 31.6498C73.6297 30.8135 73.0985 29.6871 73.0985 28.2601C73.0985 27.2378 73.3231 26.3703 73.7754 25.6516C74.2248 24.9299 74.9971 24.2604 76.0953 23.6324C75.5358 22.9911 75.1296 22.3765 74.8766 21.7947C74.6237 21.2084 74.4957 20.5701 74.4957 19.8767C74.4957 18.7428 74.9302 17.8292 75.7992 17.1358C76.6667 16.4424 77.8258 16.0957 79.2811 16.0957C80.6664 16.0957 81.775 16.4201 82.6068 17.0614C83.4371 17.7072 83.8537 18.5717 83.8537 19.652C83.8537 20.5388 83.5948 21.3468 83.0814 22.0834C82.5651 22.8155 81.7362 23.5163 80.5875 24.18L83.7615 27.278C84.2912 26.406 84.748 25.2826 85.1379 23.9121H88.6941C88.4248 24.9195 88.0558 25.9001 87.5871 26.8599C87.1184 27.8196 86.5842 28.6663 85.9875 29.4014L89.3504 32.6794ZM76.6845 27.9372C76.6845 28.58 76.9241 29.0919 77.4047 29.4713C77.8868 29.8522 78.5014 30.0397 79.2558 30.0397C80.1947 30.0397 81.0384 29.8136 81.7928 29.3597L78.0818 25.668C77.6488 25.9998 77.3065 26.3405 77.0595 26.6991C76.8095 27.0548 76.6845 27.4699 76.6845 27.9372ZM80.6977 20.0106C80.6977 19.6163 80.5638 19.3053 80.2944 19.0762C80.0266 18.85 79.6784 18.7369 79.2558 18.7369C78.7558 18.7369 78.3615 18.8559 78.0743 19.0925C77.7886 19.3336 77.6458 19.6714 77.6458 20.1103C77.6458 20.7665 77.9999 21.4911 78.7082 22.2798C79.3495 21.9197 79.8406 21.5685 80.1828 21.2233C80.5265 20.8781 80.6977 20.4734 80.6977 20.0106ZM94.9586 32.9041C93.49 32.9041 92.3353 32.3312 91.499 31.1914C90.6613 30.0516 90.2387 28.4714 90.2387 26.4522C90.2387 24.4017 90.6657 22.8036 91.5184 21.6593C92.3725 20.515 93.548 19.9437 95.0465 19.9437C96.6178 19.9437 97.8186 20.5537 98.6459 21.7784H98.756C98.5864 20.8469 98.5001 20.0136 98.5001 19.2844V15.2803H101.921V32.6794H99.3036L98.6459 31.0575H98.5001C97.7263 32.2866 96.5463 32.9041 94.9586 32.9041ZM96.155 30.1871C97.0255 30.1871 97.6653 29.9326 98.0715 29.4267C98.4762 28.9178 98.6965 28.0592 98.7352 26.8435V26.473C98.7352 25.1338 98.5284 24.171 98.1147 23.5892C97.7011 23.0104 97.0299 22.7173 96.097 22.7173C95.3381 22.7173 94.7458 23.0417 94.3277 23.683C93.9066 24.3288 93.6953 25.2662 93.6953 26.4983C93.6953 27.7259 93.9081 28.6499 94.3322 29.263C94.7562 29.8805 95.3634 30.1871 96.155 30.1871Z" fill="#FDFBF9"/>
<path d="M0 24.9971C0 30.909 0.49253 38.0603 6.01003 42.7906C14.4782 50.0446 19.9555 50 25.964 50C31.9756 50 37.0243 47.8379 43.9986 40.6241C47.9909 36.4993 49.8361 32.272 49.9983 28.1264C50.0801 26.0119 49.0206 21.3783 48.5623 19.7103C46.5624 12.4176 42.9065 8.98031 39.4275 5.76772C33.1764 0.000239467 26.2036 -0.00423501 22.1161 0.000228987C16.1061 0.000228987 11.1897 1.85132 6.96973 6.24984C2.97147 10.4162 0 18.7475 0 24.9971Z" fill="#FDFBF9"/>
<path d="M42.115 21.0597C41.3398 20.3381 40.2014 19.972 38.6941 19.972C37.8221 19.972 37.0409 20.1327 36.346 20.4541C35.6511 20.774 35.1274 21.2249 34.7703 21.8037H34.4474C33.7435 20.5836 32.3954 19.9735 30.4045 19.9735C29.5325 19.9735 28.7603 20.1372 28.0862 20.4616C27.4107 20.7859 26.8958 21.2323 26.5386 21.8037H26.3363L25.9613 20.2071H25.9538L25.9613 20.1937H23.0776L19.2311 27.8867V15.3845H15.3861V19.3218C15.3861 20.0509 15.4784 20.8797 15.6629 21.8112H15.5424C14.6526 20.591 13.5886 19.9809 11.8968 19.9809C10.2883 19.9809 9.02346 20.5523 8.10685 21.6936C7.19024 22.8379 6.73047 24.4315 6.73047 26.479C6.73047 28.4968 7.18129 30.074 8.08451 31.2153C8.98326 32.3521 10.2227 32.9235 11.8015 32.9235C13.5068 32.9235 14.6495 32.309 15.4828 31.0784H15.6376L16.3473 32.7004H19.2311V32.6929H19.7147L23.0776 25.9627V32.6929H26.7053V26.8212C26.7053 25.357 26.9181 24.2991 27.3378 23.6607C27.7574 23.0194 28.4299 22.701 29.3584 22.701C30.0489 22.701 30.5548 22.9242 30.8762 23.3736C31.1961 23.8229 31.3568 24.5 31.3568 25.4002V32.6914H34.9846V26.4284C34.9846 25.1339 35.2032 24.186 35.6452 23.5938C36.0841 22.9971 36.7478 22.701 37.6361 22.701C38.3266 22.701 38.831 22.9242 39.1539 23.3736C39.4738 23.8229 39.6345 24.5 39.6345 25.4002V32.6914H43.2742V24.5521C43.2742 22.9495 42.8858 21.7889 42.115 21.0597ZM15.8623 26.9507C15.8236 28.1634 15.5885 29.0235 15.1644 29.5279C14.7388 30.0338 14.0692 30.2883 13.1541 30.2883C12.3268 30.2883 11.69 29.9817 11.2451 29.3672C10.8001 28.7541 10.5784 27.8331 10.5784 26.6055C10.5784 25.3824 10.7972 24.4434 11.2406 23.8021C11.681 23.1563 12.3 22.8364 13.0946 22.8364C14.0707 22.8364 14.7775 23.1251 15.212 23.7084C15.645 24.2872 15.8623 25.247 15.8623 26.5862V26.9507Z" fill="#9E6CFF"/>
</svg>
