<svg width="300" height="154" viewBox="0 0 300 154" fill="none" xmlns="http://www.w3.org/2000/svg">
<path d="M37.1604 47.0298L0 46.9753L0.0563475 10.1869L112.813 10.3504L112.762 47.1412L75.788 47.0896L75.6369 146.238L37.0137 146.181L37.1604 47.0298Z" fill="#2B2B2B"/>
<path d="M247.278 10.5539C265.31 10.5802 278.55 15.1978 287.176 24.5896C295.812 33.7991 300.02 45.3969 300 59.1921C299.98 72.9855 295.549 84.3855 286.527 93.0114C277.683 101.649 263.695 106.042 244.563 106.014L229.111 105.994L229.052 146.463L190.795 146.409L190.999 10.4684L247.278 10.5539ZM246.459 71.8005C255.469 71.8137 260.631 66.1204 260.642 58.7691C260.651 51.2254 254.953 45.5126 246.859 45.5013L229.2 45.4773L229.161 71.7782L246.459 71.8005Z" fill="#2B2B2B"/>
<path d="M112.921 146.998C93.9645 138.155 80.7922 123.591 73.4813 103.501C66.1677 83.4051 66.8971 63.7885 75.8014 45.0234C84.6375 26.0674 99.3894 12.832 120.232 5.24317C141.08 -2.34569 160.888 -1.6864 179.843 7.15479C198.729 15.8098 211.897 30.3622 219.279 50.6486C226.594 70.7402 225.862 90.3583 216.956 109.126C208.239 127.823 193.49 141.06 172.643 148.652C151.793 156.236 131.806 155.643 112.921 146.998ZM178.055 92.2352C181.928 83.5943 182.249 74.5421 178.645 65.2238C174.906 55.5277 168.845 48.8032 160.39 44.8601C151.933 40.9186 143.142 40.7136 134.316 43.9248C125.3 47.2071 118.761 53.2021 114.821 61.6561C110.883 70.114 110.557 79.1576 114.039 88.7337C117.53 98.3099 123.595 105.041 132.047 108.981C140.503 112.925 149.359 113.31 158.372 110.03C167.576 106.681 174.112 100.688 178.055 92.2352Z" fill="#2B2B2B"/>
<path d="M203.617 76.1351C203.617 108.276 177.558 134.329 145.419 134.329C113.279 134.329 87.2266 108.276 87.2266 76.1351C87.2266 43.999 113.279 17.9407 145.419 17.9407C177.558 17.9407 203.617 43.999 203.617 76.1351Z" fill="#3FA9F5"/>
<path d="M114.162 114.663C114.35 114.966 114.596 115.212 114.899 115.396C115.208 115.57 115.557 115.712 115.946 115.782C116.327 115.86 116.728 115.906 117.133 115.901C117.454 115.906 117.778 115.883 118.124 115.828C118.468 115.779 118.782 115.696 119.073 115.57C119.364 115.445 119.609 115.26 119.797 115.017C119.986 114.775 120.079 114.461 120.079 114.085C120.079 113.574 119.879 113.171 119.487 112.908C119.099 112.638 118.599 112.421 118.017 112.261C117.43 112.092 116.785 111.943 116.093 111.81C115.399 111.684 114.763 111.488 114.175 111.246C113.58 111.004 113.096 110.661 112.701 110.216C112.306 109.78 112.108 109.162 112.108 108.384C112.108 107.772 112.246 107.242 112.524 106.793C112.794 106.366 113.151 106.003 113.58 105.723C114.019 105.455 114.502 105.25 115.041 105.115C115.588 104.981 116.126 104.915 116.65 104.915C117.353 104.915 117.984 104.973 118.573 105.092C119.155 105.209 119.66 105.412 120.115 105.708C120.562 105.997 120.92 106.39 121.187 106.885C121.457 107.373 121.607 107.992 121.657 108.736H119.652C119.621 108.336 119.518 108.011 119.353 107.755C119.168 107.496 118.95 107.287 118.682 107.128C118.416 106.973 118.129 106.858 117.803 106.791C117.482 106.717 117.157 106.681 116.827 106.686C116.521 106.681 116.222 106.7 115.913 106.75C115.607 106.794 115.33 106.885 115.083 107C114.825 107.12 114.624 107.274 114.469 107.468C114.307 107.67 114.23 107.924 114.23 108.239C114.23 108.582 114.356 108.869 114.596 109.1C114.845 109.328 115.149 109.514 115.529 109.665C115.91 109.816 116.328 109.938 116.799 110.04C117.276 110.149 117.744 110.253 118.217 110.363C118.721 110.471 119.205 110.611 119.69 110.759C120.166 110.922 120.599 111.132 120.962 111.388C121.33 111.641 121.629 111.976 121.86 112.367C122.085 112.758 122.2 113.242 122.2 113.826C122.2 114.564 122.047 115.18 121.741 115.665C121.435 116.153 121.035 116.546 120.536 116.845C120.04 117.14 119.481 117.347 118.871 117.47C118.247 117.593 117.626 117.648 117.015 117.648C116.341 117.648 115.689 117.575 115.078 117.438C114.47 117.293 113.922 117.06 113.453 116.731C112.979 116.414 112.605 115.993 112.32 115.466C112.038 114.941 111.876 114.296 111.846 113.548H113.857C113.867 113.984 113.974 114.362 114.162 114.663Z" fill="#FDFBF9"/>
<path d="M126.443 105.195V106.966H124.012V114.541C124.012 114.773 124.036 114.956 124.07 115.098C124.112 115.24 124.188 115.355 124.297 115.428C124.409 115.505 124.552 115.559 124.753 115.586C124.951 115.605 125.212 115.619 125.519 115.619H126.449L126.443 117.385H124.908C124.391 117.385 123.947 117.345 123.578 117.276C123.209 117.209 122.903 117.08 122.684 116.892C122.454 116.698 122.285 116.438 122.176 116.087C122.058 115.741 122.011 115.286 122.011 114.721V106.966H119.937V105.195H122.011V101.538H124.011V105.195H126.443Z" fill="#FDFBF9"/>
<path d="M134.834 117.646C134.319 117.646 133.902 117.501 133.596 117.21C133.294 116.916 133.141 116.443 133.141 115.779C132.586 116.443 131.95 116.916 131.219 117.21C130.484 117.501 129.693 117.646 128.846 117.646C128.294 117.646 127.779 117.592 127.288 117.469C126.8 117.35 126.371 117.15 126.007 116.876C125.634 116.607 125.347 116.261 125.134 115.819C124.922 115.384 124.813 114.862 124.813 114.253C124.813 113.559 124.933 112.992 125.17 112.554C125.406 112.116 125.712 111.757 126.103 111.477C126.489 111.205 126.928 110.996 127.416 110.854C127.918 110.716 128.422 110.593 128.941 110.5C129.49 110.392 130.014 110.313 130.514 110.254C131.002 110.198 131.442 110.121 131.815 110.021C132.195 109.916 132.49 109.77 132.714 109.571C132.933 109.37 133.047 109.086 133.047 108.707C133.047 108.268 132.956 107.922 132.793 107.646C132.634 107.384 132.417 107.179 132.159 107.038C131.899 106.896 131.608 106.793 131.294 106.751C130.963 106.702 130.647 106.686 130.331 106.686C129.482 106.686 128.772 106.846 128.213 107.171C127.645 107.488 127.338 108.098 127.288 108.99H125.283C125.317 108.239 125.475 107.601 125.761 107.088C126.044 106.561 126.42 106.149 126.888 105.825C127.365 105.501 127.902 105.264 128.514 105.127C129.127 104.98 129.776 104.914 130.45 104.914C131.001 104.914 131.547 104.956 132.09 105.027C132.628 105.109 133.125 105.272 133.564 105.515C134.007 105.757 134.354 106.101 134.627 106.539C134.897 106.982 135.024 107.551 135.024 108.262V114.541C135.024 115.003 135.052 115.356 135.11 115.57C135.162 115.797 135.345 115.906 135.661 115.902C135.834 115.902 136.038 115.86 136.271 115.78V117.342C135.931 117.544 135.448 117.646 134.834 117.646ZM132.031 111.507C131.622 111.589 131.196 111.66 130.742 111.715C130.298 111.765 129.844 111.833 129.389 111.901C128.935 111.975 128.522 112.092 128.164 112.249C127.803 112.401 127.507 112.629 127.279 112.919C127.051 113.209 126.937 113.604 126.937 114.105C126.937 114.444 127.004 114.712 127.138 114.944C127.274 115.172 127.443 115.355 127.659 115.499C127.871 115.637 128.116 115.738 128.405 115.81C128.7 115.87 128.992 115.906 129.294 115.906C129.957 115.906 130.521 115.81 130.995 115.633C131.466 115.445 131.846 115.217 132.145 114.944C132.447 114.67 132.663 114.371 132.811 114.046C132.95 113.724 133.021 113.424 133.021 113.146V111.092C132.768 111.28 132.44 111.421 132.031 111.507Z" fill="#FDFBF9"/>
<path d="M138.162 105.195V107.772H138.209C138.612 106.649 139.156 106.307 139.763 105.881C140.449 105.388 141.604 105.183 142.688 105.213V107.038C141.891 107.038 141.199 107.142 140.637 107.363C140.065 107.588 139.614 107.911 139.27 108.335C138.929 108.754 138.672 109.272 138.519 109.878C138.359 110.479 138.279 111.176 138.279 111.965V117.385H136.272V105.194H138.162V105.195Z" fill="#FDFBF9"/>
<path d="M148.897 105.195V106.966H146.468L146.471 114.541C146.468 114.773 146.486 114.956 146.53 115.098C146.567 115.24 146.64 115.355 146.751 115.428C146.864 115.505 147.013 115.559 147.216 115.586C147.408 115.605 147.66 115.619 147.97 115.619H148.9L148.897 117.385H147.362C146.845 117.385 146.398 117.345 146.031 117.276C145.662 117.209 145.36 117.077 145.13 116.892C144.909 116.698 144.737 116.435 144.629 116.087C144.519 115.741 144.462 115.286 144.461 114.721V106.966H142.389V105.195H144.462L144.461 101.538H146.468V105.195H148.897Z" fill="#FDFBF9"/>
<path d="M156.701 117.386V115.45H156.657C156.232 116.208 155.688 116.759 155.027 117.109C154.37 117.469 153.586 117.642 152.696 117.647C151.89 117.647 151.224 117.543 150.689 117.328C150.156 117.11 149.721 116.817 149.393 116.423C149.062 116.03 148.823 115.56 148.694 115.018C148.56 114.477 148.495 113.876 148.495 113.216V105.196H150.501V113.446C150.497 114.204 150.723 114.801 151.157 115.241C151.601 115.684 152.203 115.902 152.972 115.902C153.586 115.902 154.112 115.807 154.569 115.621C155.011 115.43 155.391 115.165 155.687 114.82C155.981 114.473 156.206 114.066 156.356 113.598C156.509 113.142 156.586 112.63 156.589 112.082V105.196H158.588V117.386H156.701Z" fill="#FDFBF9"/>
<path d="M160.288 105.195L160.286 106.849H160.335C160.673 106.172 161.182 105.683 161.89 105.377C162.605 105.067 163.38 104.91 164.234 104.91C165.172 104.91 165.993 105.083 166.693 105.432C167.393 105.777 167.974 106.242 168.436 106.835C168.9 107.423 169.25 108.109 169.484 108.877C169.72 109.642 169.839 110.467 169.839 111.328C169.842 112.195 169.723 113.013 169.5 113.784C169.273 114.552 168.923 115.216 168.461 115.791C167.993 116.366 167.419 116.826 166.714 117.144C166.016 117.477 165.198 117.646 164.277 117.646C163.977 117.646 163.642 117.614 163.272 117.555C162.904 117.491 162.536 117.386 162.173 117.247C161.816 117.105 161.47 116.908 161.149 116.662C160.83 116.425 160.553 116.121 160.335 115.76H160.288L160.285 122.032H158.282V105.194H160.288V105.195ZM167.496 109.523C167.344 108.978 167.116 108.499 166.811 108.071C166.504 107.646 166.112 107.31 165.631 107.059C165.153 106.808 164.59 106.681 163.953 106.681C163.272 106.681 162.696 106.818 162.222 107.091C161.751 107.35 161.368 107.697 161.069 108.131C160.773 108.568 160.554 109.058 160.424 109.6C160.286 110.153 160.22 110.717 160.224 111.28C160.22 111.873 160.287 112.452 160.436 113.013C160.579 113.574 160.795 114.065 161.102 114.485C161.41 114.912 161.81 115.254 162.291 115.51C162.78 115.775 163.373 115.901 164.063 115.901C164.756 115.906 165.334 115.768 165.797 115.499C166.263 115.227 166.63 114.881 166.919 114.443C167.198 113.997 167.403 113.495 167.529 112.931C167.658 112.365 167.718 111.777 167.718 111.179C167.717 110.623 167.646 110.065 167.496 109.523Z" fill="#FDFBF9"/>
<path d="M171.089 114.663C171.274 114.966 171.523 115.212 171.834 115.396C172.13 115.57 172.479 115.706 172.866 115.782C173.251 115.86 173.647 115.906 174.055 115.906C174.376 115.906 174.702 115.883 175.049 115.828C175.395 115.779 175.715 115.696 176.001 115.57C176.29 115.445 176.535 115.26 176.722 115.017C176.913 114.775 177.006 114.461 177.006 114.085C177.006 113.574 176.811 113.171 176.417 112.908C176.022 112.638 175.528 112.421 174.945 112.261C174.352 112.092 173.709 111.938 173.02 111.81C172.333 111.684 171.687 111.488 171.102 111.246C170.507 111.004 170.017 110.661 169.624 110.216C169.232 109.78 169.035 109.162 169.035 108.384C169.035 107.772 169.169 107.242 169.453 106.793C169.725 106.366 170.08 106.003 170.507 105.723C170.941 105.455 171.427 105.25 171.969 105.115C172.512 104.981 173.051 104.915 173.59 104.915C174.276 104.915 174.912 104.973 175.494 105.092C176.078 105.209 176.592 105.412 177.041 105.708C177.485 105.997 177.845 106.39 178.114 106.885C178.379 107.373 178.538 107.992 178.586 108.736H176.577C176.546 108.336 176.448 108.011 176.275 107.755C176.101 107.496 175.882 107.287 175.611 107.128C175.35 106.973 175.053 106.858 174.732 106.791C174.406 106.717 174.082 106.686 173.754 106.686C173.457 106.686 173.15 106.7 172.847 106.75C172.537 106.794 172.26 106.885 172.007 107C171.758 107.12 171.549 107.274 171.395 107.468C171.233 107.67 171.158 107.924 171.158 108.239C171.162 108.582 171.277 108.869 171.524 109.1C171.766 109.328 172.079 109.514 172.456 109.662C172.829 109.81 173.263 109.938 173.728 110.04C174.203 110.149 174.673 110.253 175.141 110.363C175.646 110.471 176.138 110.611 176.615 110.759C177.095 110.922 177.52 111.132 177.885 111.388C178.263 111.641 178.556 111.976 178.785 112.367C179.013 112.758 179.127 113.242 179.128 113.826C179.127 114.564 178.98 115.18 178.671 115.665C178.365 116.147 177.963 116.546 177.467 116.845C176.967 117.14 176.416 117.347 175.799 117.47C175.168 117.593 174.559 117.648 173.945 117.648C173.269 117.648 172.62 117.575 172.008 117.438C171.396 117.293 170.85 117.06 170.382 116.731C169.913 116.414 169.529 115.993 169.247 115.466C168.97 114.941 168.808 114.296 168.778 113.548H170.781C170.794 113.984 170.902 114.362 171.089 114.663Z" fill="#FDFBF9"/>
<path d="M111.679 34.8004H123.738V78.2146L114.798 78.2083V45.4113H108.883L111.679 34.8004Z" fill="#FDFBF9"/>
<path d="M138.197 33.7377C141.466 33.7377 144.29 34.4971 146.648 36.0176C149.014 37.527 150.849 39.8455 152.131 42.9669C153.423 46.0827 154.062 50.4232 154.065 55.9917C154.065 61.609 153.416 65.9913 152.092 69.115C150.792 72.2403 149.033 74.5478 146.82 76.0076C144.602 77.4752 141.809 78.2117 138.439 78.2117C135.068 78.2117 132.235 77.472 129.941 75.9997C127.646 74.5131 125.852 72.2735 124.551 69.2578C123.259 66.2484 122.604 61.9599 122.604 56.3939C122.604 48.6228 123.869 42.9968 126.407 39.4938C129.231 35.6587 133.159 33.7377 138.197 33.7377Z" fill="#FDFBF9"/>
<path d="M166.229 33.7377C169.497 33.7377 172.308 34.4971 174.681 36.0176C177.04 37.527 178.871 39.8455 180.156 42.9669C181.452 46.0827 182.096 50.4201 182.096 55.9917C182.096 61.609 181.437 65.9913 180.126 69.115C178.822 72.2403 177.058 74.5478 174.843 76.0076C172.629 77.4799 169.837 78.2117 166.468 78.2117C163.099 78.2117 160.262 77.472 157.973 75.9997C155.674 74.5131 153.883 72.2735 152.581 69.2578C151.281 66.2484 150.631 61.9599 150.631 56.3939C150.631 48.6228 151.901 42.9968 154.443 39.4938C157.258 35.6587 161.192 33.7377 166.229 33.7377Z" fill="#FDFBF9"/>
<path d="M112.717 87.0595C113.107 85.8489 113.707 84.7906 114.486 83.894C115.27 82.9942 116.243 82.2891 117.397 81.7686C118.559 81.256 119.879 80.9966 121.381 80.9966C122.906 80.9966 124.24 81.2553 125.383 81.7686C126.532 82.2891 127.491 82.9949 128.28 83.894C129.068 84.7906 129.659 85.8489 130.047 87.0595C130.441 88.281 130.637 89.5933 130.637 90.9844C130.637 92.3889 130.441 93.6981 130.047 94.8952C129.659 96.1025 129.065 97.1561 128.28 98.0528C127.491 98.951 126.525 99.6513 125.383 100.154C124.24 100.659 122.906 100.908 121.379 100.908C119.88 100.908 118.559 100.659 117.397 100.154C116.243 99.6513 115.274 98.951 114.486 98.0528C113.707 97.1561 113.105 96.1025 112.717 94.8952C112.32 93.6981 112.126 92.3889 112.126 90.9844C112.126 89.5933 112.32 88.281 112.717 87.0595ZM115.911 94.0695C116.213 94.963 116.64 95.7193 117.183 96.3171C117.716 96.9243 118.354 97.3888 119.078 97.7003C119.809 98.0205 120.578 98.1806 121.381 98.1806C122.195 98.1806 122.962 98.0205 123.687 97.7003C124.409 97.3888 125.044 96.9243 125.585 96.3171C126.124 95.7193 126.55 94.963 126.858 94.0695C127.166 93.1744 127.316 92.1397 127.316 90.9844C127.316 89.8386 127.159 88.8047 126.854 87.9128C126.549 87.0145 126.123 86.2582 125.585 85.6423C125.044 85.0311 124.409 84.558 123.687 84.2394C122.962 83.9239 122.191 83.7646 121.379 83.7646C120.578 83.7646 119.809 83.9231 119.078 84.2394C118.354 84.5643 117.715 85.0311 117.183 85.6423C116.638 86.2582 116.213 87.0145 115.911 87.9128C115.601 88.8047 115.442 89.8378 115.442 90.9844C115.445 92.1397 115.601 93.1744 115.911 94.0695Z" fill="#FDFBF9"/>
<path d="M132.932 81.4437V84.0249H132.999C133.514 82.9634 134.331 82.1984 135.44 81.719C136.541 81.2371 137.759 80.9966 139.086 80.9966C140.564 80.9966 141.848 81.2694 142.939 81.8112C144.036 82.3538 144.945 83.0817 145.671 83.9996C146.398 84.927 146.938 85.9877 147.303 87.1927C147.679 88.397 147.866 89.6785 147.866 91.0262C147.866 92.3787 147.685 93.6539 147.326 94.8613C146.97 96.0702 146.424 97.1175 145.71 98.0142C144.979 98.9077 144.069 99.619 142.977 100.136C141.883 100.647 140.607 100.902 139.157 100.902C138.695 100.902 138.17 100.857 137.59 100.766C137.014 100.662 136.445 100.5 135.879 100.283C135.315 100.06 134.776 99.7546 134.275 99.3832C133.769 98.9936 133.346 98.5252 132.999 97.9645H132.932L132.929 106.187H129.793V81.4422H132.932V81.4437ZM144.194 88.203C143.956 87.3623 143.599 86.606 143.126 85.9388C142.645 85.278 142.028 84.7465 141.277 84.3521C140.536 83.9626 139.651 83.7654 138.64 83.7654C137.589 83.7654 136.691 83.972 135.952 84.3845C135.213 84.8127 134.613 85.3608 134.144 86.0311C133.675 86.7085 133.343 87.4759 133.127 88.3307C132.922 89.1966 132.817 90.0665 132.817 90.9521C132.817 91.889 132.932 92.7959 133.149 93.6602C133.369 94.5348 133.72 95.3005 134.199 95.9724C134.675 96.6317 135.297 97.1648 136.066 97.5741C136.82 97.9763 137.743 98.1813 138.828 98.1813C139.912 98.1813 140.81 97.9716 141.537 97.5528C142.267 97.1419 142.849 96.5828 143.292 95.888C143.733 95.2106 144.054 94.4173 144.248 93.5285C144.446 92.6508 144.543 91.7431 144.543 90.8054C144.542 89.9151 144.423 89.0547 144.194 88.203Z" fill="#FDFBF9"/>
<path d="M161.122 99.2924C159.694 100.366 157.902 100.908 155.741 100.904C154.217 100.908 152.898 100.663 151.774 100.17C150.657 99.6883 149.717 98.9888 148.956 98.1016C148.193 97.2207 147.622 96.1656 147.235 94.9377C146.864 93.7059 146.646 92.3668 146.598 90.9126C146.598 89.4647 146.814 88.143 147.259 86.9309C147.703 85.7282 148.319 84.6849 149.123 83.7961C149.919 82.9121 150.867 82.2252 151.959 81.7339C153.052 81.2363 154.256 80.9957 155.553 80.9957C157.252 80.9957 158.654 81.3451 159.779 82.043C160.891 82.7488 161.791 83.636 162.467 84.7243C163.142 85.8055 163.609 86.9837 163.872 88.2565C164.126 89.5412 164.234 90.7533 164.185 91.9102H149.915C149.889 92.7493 149.987 93.5355 150.211 94.2887C150.429 95.0402 150.784 95.6995 151.274 96.2799C151.765 96.8635 152.397 97.3177 153.161 97.6647C153.922 98.0109 154.821 98.1789 155.847 98.1742C157.178 98.1789 158.264 97.8721 159.111 97.2594C159.965 96.6387 160.523 95.7066 160.791 94.4527H163.889C163.469 96.5969 162.553 98.2049 161.122 99.2924ZM160.371 87.0428C160.091 86.3836 159.701 85.8118 159.221 85.3284C158.746 84.8497 158.18 84.4767 157.529 84.1904C156.871 83.9089 156.155 83.7654 155.369 83.7654C154.561 83.7654 153.826 83.9089 153.174 84.1904C152.527 84.4767 151.959 84.8607 151.503 85.3457C151.032 85.8386 150.665 86.4135 150.393 87.0649C150.121 87.7163 149.965 88.4032 149.916 89.1508H160.864C160.81 88.4024 160.648 87.7108 160.371 87.0428Z" fill="#FDFBF9"/>
<path d="M166.018 81.4437V84.4641H166.094C167.394 82.1534 169.454 80.9973 172.29 80.9973C173.542 80.9973 174.579 81.17 175.42 81.5194C176.254 81.8569 176.932 82.3419 177.451 82.9499C177.964 83.5674 178.324 84.2945 178.538 85.1462C178.747 85.9932 178.848 86.9317 178.853 87.96L178.847 100.499L175.715 100.501V87.5965C175.715 86.4167 175.37 85.483 174.682 84.8008C173.996 84.1013 173.05 83.7646 171.841 83.7646C170.883 83.7646 170.05 83.9168 169.355 84.2038C168.655 84.5011 168.07 84.9183 167.603 85.4546C167.134 86.0027 166.785 86.6312 166.552 87.3615C166.314 88.0838 166.203 88.8724 166.203 89.7383L166.201 100.5L163.062 100.501L163.066 81.4437H166.018Z" fill="#FDFBF9"/>
<path d="M147.383 10.5345C147.029 10.148 146.863 9.69064 146.886 9.16227C146.908 8.63232 147.112 8.19069 147.499 7.83581C147.898 7.46911 148.356 7.30273 148.872 7.32481C149.401 7.34768 149.842 7.5527 150.196 7.95174C150.564 8.33816 150.73 8.79556 150.707 9.32551C150.685 9.85389 150.48 10.2955 150.081 10.6504C149.695 11.0045 149.238 11.1693 148.708 11.148C148.193 11.1243 147.751 10.9209 147.383 10.5345Z" fill="#3FA9F5"/>
<path d="M158.835 14.9902L157.146 10.7995L155.868 10.5763L155.208 14.3593L153.708 14.0975L155.389 4.45825L158.793 5.05129C159.798 5.22715 160.518 5.64749 160.951 6.31466C161.387 6.9834 161.54 7.72073 161.399 8.52985C161.179 9.79558 160.224 10.7987 158.761 10.9343L160.647 15.3088L158.835 14.9902ZM156.642 6.14116L156.112 9.18046L157.781 9.47146C158.994 9.68281 159.698 9.12053 159.849 8.24516C159.997 7.39822 159.537 6.64509 158.546 6.47238L156.642 6.14116Z" fill="#FDFBF9"/>
<path d="M166.758 17.165L166.566 14.5894L163.117 13.5484L161.532 15.5893L159.96 15.1146L166.516 6.86646L167.468 7.15272L168.33 17.639L166.758 17.165ZM166.285 9.32929L163.991 12.345L166.528 13.1107L166.285 9.32929Z" fill="#FDFBF9"/>
<path d="M178.339 11.4612L179.713 12.0865L175.658 20.9971L174.838 20.6225L172.488 12.2616L169.739 18.3009L168.364 17.6755L172.419 8.76489L173.143 9.09453L175.569 17.5493L178.339 11.4612Z" fill="#FDFBF9"/>
<path d="M181.718 24.7688L181.214 19.5443L179.292 20.1665L177.905 22.3754L176.615 21.5671L181.818 13.2787L183.107 14.087L180.397 18.4063L186.695 16.3409L188.243 17.3125L182.625 19.1641L183.31 25.7688L181.718 24.7688Z" fill="#FDFBF9"/>
<path d="M189.003 18.0011L190.222 18.9143L184.353 26.75L183.134 25.8368L189.003 18.0011Z" fill="#FDFBF9"/>
<path d="M196.762 24.515L197.88 25.53L191.299 32.7766L190.632 32.1709L190.945 23.4914L186.483 28.4045L185.365 27.3895L191.946 20.1414L192.535 20.676L192.264 29.466L196.762 24.515Z" fill="#FDFBF9"/>
<path d="M193.551 33.3704C193.682 32.029 194.31 30.8949 195.435 29.9699C196.571 29.0362 197.813 28.6482 199.181 28.8098C200.557 28.9636 201.691 29.5906 202.6 30.697C203.635 31.9541 204.07 33.5684 203.825 34.9177L202.363 34.7671C202.532 33.6165 202.229 32.5802 201.463 31.6497C200.815 30.8626 200.011 30.4265 199.061 30.3327C198.11 30.2404 197.226 30.5204 196.428 31.1765C195.64 31.8247 195.186 32.6275 195.094 33.5778C195.002 34.5281 195.275 35.383 195.915 36.1605C196.629 37.0296 197.714 37.5777 198.789 37.655L200.139 36.5446L198.18 34.1622L199.244 33.2876L202.104 36.7638L199.138 39.2038C197.32 39.121 195.856 38.4042 194.755 37.0643C193.827 35.9382 193.431 34.704 193.551 33.3704Z" fill="#FDFBF9"/>
<path d="M202.038 41.5072C202.164 40.9986 202.453 40.6074 202.908 40.3354C203.361 40.0609 203.843 39.9876 204.351 40.1138C204.877 40.2447 205.269 40.5341 205.535 40.9765C205.809 41.4292 205.882 41.9118 205.746 42.426C205.627 42.9465 205.336 43.3376 204.883 43.6105C204.43 43.8849 203.949 43.9583 203.433 43.8218C202.924 43.6957 202.533 43.4062 202.26 42.9512C201.994 42.5088 201.919 42.0277 202.038 41.5072Z" fill="#3FA9F5"/>
<path d="M204.476 49.6538L206.127 53.3398L204.846 53.9131L202.312 48.2603L203.473 47.7398L207.765 49.2248L208.817 49.567C209.285 49.7058 210.088 49.7808 210.583 49.5576C211.404 49.1893 211.675 48.2713 211.301 47.437C210.987 46.7375 210.334 46.1878 209.35 45.7738L210 44.568C211.265 45.0609 212.139 45.8432 212.621 46.9196C212.989 47.7406 213.038 48.5308 212.775 49.2713C212.518 50.026 211.985 50.5836 211.188 50.9408C210.378 51.3044 209.266 51.2507 207.864 50.776L204.476 49.6538Z" fill="#FDFBF9"/>
<path d="M205.935 57.6929C205.729 57.0494 205.691 56.45 205.811 55.8696C206.057 54.7222 206.87 53.8768 207.888 53.2325C209.974 52.0235 212.899 51.518 214.614 53.055C215.049 53.4588 215.365 53.9682 215.57 54.6125C215.776 55.2568 215.815 55.8554 215.694 56.4358C215.458 57.6093 214.639 58.4397 213.614 59.0603C212.597 59.7039 211.31 60.1155 210.108 60.1802C208.914 60.2709 207.765 60.0674 206.892 59.248C206.457 58.8458 206.141 58.3348 205.935 57.6929ZM208.788 58.6148C209.548 58.7749 210.441 58.6976 211.463 58.3711C212.471 58.0478 213.243 57.5935 213.769 57.0218C214.296 56.45 214.446 55.7907 214.208 55.0471C213.971 54.3034 213.466 53.8515 212.706 53.6914C211.946 53.5329 211.057 53.622 210.049 53.9438C208.136 54.5274 206.828 55.6969 207.299 57.2552C207.535 58.0004 208.027 58.4547 208.788 58.6148Z" fill="#FDFBF9"/>
<path d="M209.015 63.136L209.816 67.0957L208.44 67.3733L207.212 61.297L208.458 61.0462L212.321 63.4412L213.272 64.0051C213.699 64.2441 214.466 64.4948 214.998 64.3868C215.88 64.2078 216.346 63.3703 216.165 62.4752C216.013 61.7221 215.497 61.0431 214.629 60.4208L215.528 59.387C216.655 60.1464 217.335 61.103 217.568 62.2599C217.747 63.1424 217.62 63.9247 217.201 64.5903C216.784 65.2693 216.141 65.6959 215.283 65.8702C214.413 66.046 213.34 65.7487 212.076 64.9767L209.015 63.136Z" fill="#FDFBF9"/>
<path d="M208.667 71.3037C208.608 70.6302 208.703 70.038 208.947 69.497C209.439 68.4308 210.419 67.7873 211.553 67.3819C213.856 66.6627 216.819 66.8149 218.153 68.691C218.489 69.1792 218.684 69.7478 218.743 70.4205C218.802 71.0924 218.708 71.6854 218.463 72.2256C217.974 73.3178 216.993 73.9495 215.857 74.3265C214.722 74.7318 213.376 74.8501 212.19 74.6482C211.005 74.4724 209.929 74.0229 209.257 73.0308C208.922 72.5442 208.727 71.9756 208.667 71.3037ZM211.246 72.8321C211.953 73.1554 212.84 73.2768 213.909 73.183C214.964 73.0907 215.816 72.8163 216.455 72.3762C217.095 71.9338 217.387 71.3242 217.319 70.5466C217.25 69.7675 216.856 69.217 216.151 68.8937C215.445 68.5704 214.558 68.4623 213.503 68.5546C211.51 68.7029 209.976 69.5546 210.092 71.1791C210.16 71.9567 210.54 72.5087 211.246 72.8321Z" fill="#FDFBF9"/>
<path d="M212.233 78.4659C212.619 78.1117 213.076 77.9453 213.606 77.9681C214.135 77.991 214.576 78.1961 214.93 78.5826C215.298 78.9832 215.464 79.4406 215.44 79.9564C215.417 80.4848 215.212 80.9264 214.812 81.2813C214.426 81.648 213.968 81.8144 213.439 81.7907C212.91 81.7679 212.468 81.5628 212.114 81.1622C211.761 80.7758 211.595 80.3184 211.618 79.79C211.641 79.275 211.846 78.8326 212.233 78.4659Z" fill="#3FA9F5"/>
<path d="M207.774 89.8993L211.965 88.2093L212.188 86.9325L208.406 86.2717L208.667 84.7717L218.307 86.4538L217.713 89.8575C217.538 90.8614 217.117 91.5814 216.449 92.0152C215.781 92.4513 215.043 92.6035 214.234 92.4631C212.969 92.2431 211.965 91.2881 211.831 89.826L207.456 91.7116L207.774 89.8993ZM216.624 87.7062L213.584 87.1762L213.293 88.8457C213.081 90.0578 213.644 90.7621 214.519 90.9127C215.367 91.0609 216.119 90.6012 216.292 89.6099L216.624 87.7062Z" fill="#FDFBF9"/>
<path d="M205.597 97.8164L208.171 97.6271L209.212 94.1801L207.173 92.5966L207.648 91.0256L215.887 97.5798L215.601 98.5301L205.123 99.3897L205.597 97.8164ZM213.427 97.3472L210.414 95.0555L209.648 97.5893L213.427 97.3472Z" fill="#FDFBF9"/>
<path d="M211.28 109.419L210.655 110.792L201.753 106.736L202.127 105.918L210.482 103.57L204.448 100.823L205.074 99.449L213.975 103.505L213.646 104.227L205.198 106.647L211.28 109.419Z" fill="#FDFBF9"/>
<path d="M197.976 112.802L203.201 112.298L202.579 110.374L200.369 108.988L201.178 107.699L209.466 112.9L208.657 114.19L204.339 111.48L206.404 117.778L205.433 119.326L203.581 113.709L196.976 114.392L197.976 112.802Z" fill="#FDFBF9"/>
<path d="M204.743 120.062L203.829 121.281L196.004 115.411L196.917 114.193L204.743 120.062Z" fill="#FDFBF9"/>
<path d="M198.239 127.821L197.224 128.939L189.977 122.357L190.582 121.69L199.263 122.004L194.349 117.542L195.364 116.424L202.612 123.006L202.077 123.594L193.287 123.323L198.239 127.821Z" fill="#FDFBF9"/>
<path d="M189.364 124.625C190.706 124.756 191.84 125.383 192.765 126.509C193.699 127.644 194.086 128.886 193.924 130.254C193.771 131.631 193.144 132.765 192.038 133.673C190.78 134.708 189.166 135.144 187.816 134.899L187.968 133.437C189.118 133.606 190.154 133.303 191.085 132.537C191.872 131.889 192.308 131.084 192.401 130.134C192.494 129.184 192.214 128.3 191.558 127.501C190.91 126.714 190.107 126.26 189.156 126.168C188.206 126.076 187.351 126.349 186.574 126.989C185.704 127.703 185.156 128.788 185.08 129.863L186.19 131.213L188.573 129.254L189.447 130.318L185.969 133.177L183.53 130.212C183.613 128.394 184.33 126.93 185.67 125.828C186.797 124.901 188.031 124.505 189.364 124.625Z" fill="#FDFBF9"/>
<path d="M181.239 133.097C181.748 133.223 182.139 133.512 182.412 133.967C182.685 134.422 182.759 134.903 182.633 135.412C182.502 135.939 182.212 136.33 181.769 136.597C181.315 136.871 180.833 136.943 180.318 136.806C179.797 136.688 179.406 136.396 179.132 135.942C178.859 135.489 178.786 135.007 178.923 134.491C179.049 133.982 179.339 133.591 179.793 133.318C180.237 133.05 180.718 132.976 181.239 133.097Z" fill="#3FA9F5"/>
<path d="M173.089 135.53L169.401 137.182L168.826 135.9L174.487 133.366L175.007 134.527L173.518 138.822L173.176 139.876C173.037 140.344 172.962 141.148 173.184 141.644C173.552 142.466 174.472 142.736 175.305 142.363C176.007 142.049 176.557 141.395 176.973 140.411L178.178 141.061C177.685 142.327 176.901 143.202 175.824 143.682C175.002 144.051 174.211 144.1 173.47 143.838C172.716 143.581 172.156 143.046 171.799 142.248C171.436 141.438 171.49 140.324 171.966 138.921L173.089 135.53Z" fill="#FDFBF9"/>
<path d="M165.054 136.987C165.696 136.78 166.297 136.742 166.877 136.862C168.025 137.108 168.87 137.922 169.515 138.939C170.724 141.025 171.229 143.95 169.692 145.665C169.288 146.101 168.778 146.416 168.134 146.622C167.491 146.828 166.892 146.867 166.311 146.746C165.137 146.509 164.306 145.691 163.686 144.665C163.042 143.648 162.63 142.362 162.566 141.16C162.476 139.966 162.678 138.817 163.498 137.944C163.9 137.509 164.411 137.192 165.054 136.987ZM164.131 139.84C163.971 140.6 164.048 141.493 164.375 142.514C164.697 143.523 165.152 144.295 165.724 144.822C166.295 145.349 166.955 145.498 167.699 145.261C168.442 145.025 168.893 144.519 169.054 143.758C169.213 142.999 169.124 142.11 168.801 141.101C168.218 139.188 167.049 137.88 165.491 138.351C164.745 138.588 164.291 139.079 164.131 139.84Z" fill="#FDFBF9"/>
<path d="M159.609 140.062L155.65 140.858L155.373 139.481L161.449 138.26L161.699 139.506L159.301 143.366L158.736 144.316C158.498 144.743 158.246 145.51 158.353 146.042C158.531 146.926 159.368 147.393 160.264 147.212C161.017 147.06 161.697 146.545 162.319 145.677L163.351 146.578C162.591 147.703 161.634 148.382 160.478 148.614C159.595 148.792 158.814 148.665 158.148 148.246C157.47 147.829 157.043 147.185 156.871 146.327C156.696 145.456 156.993 144.384 157.766 143.122L159.609 140.062Z" fill="#FDFBF9"/>
<path d="M151.442 139.713C152.116 139.653 152.708 139.749 153.248 139.993C154.314 140.484 154.959 141.464 155.363 142.598C156.083 144.901 155.931 147.864 154.055 149.198C153.566 149.534 152.998 149.729 152.326 149.788C151.653 149.848 151.061 149.754 150.52 149.508C149.427 149.02 148.796 148.039 148.418 146.901C148.013 145.767 147.896 144.421 148.098 143.236C148.273 142.05 148.723 140.975 149.714 140.303C150.203 139.968 150.77 139.772 151.442 139.713ZM149.915 142.292C149.591 142.999 149.47 143.886 149.563 144.955C149.655 146.01 149.93 146.862 150.371 147.502C150.813 148.141 151.423 148.434 152.2 148.366C152.978 148.296 153.529 147.904 153.852 147.197C154.176 146.491 154.284 145.604 154.192 144.55C154.044 142.557 153.192 141.022 151.568 141.138C150.789 141.206 150.238 141.586 149.915 142.292Z" fill="#FDFBF9"/>
<path d="M144.266 143.275C144.621 143.661 144.786 144.118 144.763 144.648C144.74 145.177 144.535 145.618 144.149 145.973C143.749 146.34 143.291 146.506 142.776 146.483C142.247 146.46 141.805 146.255 141.451 145.854C141.084 145.468 140.918 145.01 140.942 144.482C140.965 143.952 141.17 143.51 141.569 143.157C141.956 142.803 142.413 142.638 142.942 142.661C143.457 142.683 143.899 142.888 144.266 143.275Z" fill="#3FA9F5"/>
<path d="M132.845 138.806L134.531 143L135.809 143.225L136.472 139.442L137.972 139.705L136.282 149.345L132.878 148.748C131.874 148.571 131.154 148.149 130.72 147.483C130.285 146.814 130.133 146.075 130.275 145.266C130.497 144.001 131.453 142.999 132.915 142.865L131.033 138.489L132.845 138.806ZM135.032 147.66L135.564 144.621L133.895 144.328C132.682 144.115 131.978 144.678 131.826 145.553C131.677 146.4 132.136 147.153 133.128 147.327L135.032 147.66Z" fill="#FDFBF9"/>
<path d="M124.929 136.626L125.117 139.202L128.563 140.246L130.149 138.208L131.72 138.685L125.159 146.92L124.208 146.632L123.357 136.151L124.929 136.626ZM125.392 144.459L127.688 141.446L125.154 140.679L125.392 144.459Z" fill="#FDFBF9"/>
<path d="M113.319 142.307L111.946 141.68L116.01 132.777L116.829 133.152L119.169 141.513L121.924 135.478L123.297 136.105L119.233 145.008L118.511 144.677L116.096 136.224L113.319 142.307Z" fill="#FDFBF9"/>
<path d="M109.948 128.999L110.448 134.227L112.372 133.606L113.762 131.397L115.051 132.207L109.841 140.495L108.55 139.686L111.265 135.366L104.961 137.429L103.414 136.455L109.036 134.607L108.356 127.997L109.948 128.999Z" fill="#FDFBF9"/>
<path d="M102.679 135.77L101.461 134.855L107.338 127.031L108.557 127.944L102.679 135.77Z" fill="#FDFBF9"/>
<path d="M94.938 129.257L93.8213 128.242L100.402 121.002L101.068 121.608L100.751 130.283L105.211 125.375L106.328 126.39L99.7477 133.63L99.1602 133.095L99.4355 124.309L94.938 129.257Z" fill="#FDFBF9"/>
<path d="M98.1297 120.387C97.9972 121.728 97.3671 122.862 96.241 123.786C95.1046 124.719 93.8609 125.103 92.4943 124.94C91.1166 124.786 89.9833 124.156 89.0764 123.051C88.0433 121.79 87.6104 120.176 87.8564 118.828L89.3185 118.981C89.1482 120.132 89.451 121.168 90.2152 122.1C90.8618 122.889 91.6662 123.325 92.6165 123.419C93.5676 123.513 94.4508 123.234 95.2505 122.578C96.0391 121.933 96.4941 121.13 96.588 120.18C96.6818 119.228 96.4082 118.373 95.7702 117.596C95.0565 116.725 93.9721 116.175 92.8972 116.099L91.5456 117.206L93.5021 119.593L92.4367 120.466L89.5811 116.984L92.5511 114.549C94.3688 114.633 95.8309 115.353 96.9318 116.694C97.8561 117.819 98.252 119.052 98.1297 120.387Z" fill="#FDFBF9"/>
<path d="M89.6579 112.261C89.5318 112.77 89.2416 113.161 88.7873 113.435C88.3339 113.708 87.852 113.781 87.3433 113.655C86.8158 113.524 86.4246 113.235 86.1581 112.791C85.8844 112.338 85.8111 111.855 85.9483 111.34C86.0674 110.819 86.3584 110.428 86.8126 110.155C87.2661 109.881 87.7479 109.809 88.2637 109.945C88.7731 110.071 89.1643 110.361 89.4371 110.816C89.7037 111.258 89.7778 111.741 89.6579 112.261Z" fill="#3FA9F5"/>
<path d="M87.2294 104.109L85.5812 100.42L86.8635 99.8463L89.3918 105.507L88.2309 106.026L83.9377 104.535L82.8857 104.191C82.4172 104.052 81.6144 103.977 81.1184 104.197C80.2959 104.565 80.0246 105.485 80.3976 106.318C80.7107 107.02 81.3636 107.57 82.347 107.986L81.6964 109.191C80.4315 108.697 79.5577 107.912 79.0774 106.835C78.7099 106.014 78.6618 105.222 78.9252 104.482C79.1831 103.727 79.7178 103.17 80.5159 102.814C81.3258 102.452 82.4385 102.506 83.8407 102.982L87.2294 104.109Z" fill="#FDFBF9"/>
<path d="M85.7677 96.0468C85.9727 96.6903 86.0114 97.2913 85.8899 97.8717C85.6439 99.0191 84.8277 99.863 83.8096 100.507C81.7197 101.715 78.7924 102.217 77.0786 100.677C76.6441 100.273 76.3287 99.762 76.1236 99.1177C75.9186 98.4734 75.8799 97.8748 76.0014 97.2944C76.2395 96.1194 77.0597 95.289 78.0857 94.6699C79.1047 94.0264 80.3925 93.6163 81.5951 93.5532C82.7907 93.4641 83.9397 93.6684 84.8127 94.4885C85.2472 94.8915 85.5626 95.4033 85.7677 96.0468ZM82.9145 95.121C82.1542 94.9593 81.2607 95.035 80.2379 95.3615C79.2285 95.6817 78.4556 96.1375 77.928 96.7077C77.4004 97.2794 77.2498 97.9395 77.4863 98.684C77.7237 99.4292 78.2284 99.8795 78.9887 100.041C79.749 100.203 80.6385 100.114 81.648 99.792C83.5627 99.2116 84.8726 98.042 84.4034 96.4822C84.1676 95.7377 83.6755 95.2819 82.9145 95.121Z" fill="#FDFBF9"/>
<path d="M82.6959 90.602L81.9034 86.6424L83.2795 86.3663L84.4963 92.4426L83.2495 92.6918L79.3924 90.2905L78.4421 89.7251C78.0162 89.4861 77.2497 89.2337 76.7173 89.3402C75.8341 89.5177 75.3672 90.3536 75.5463 91.2502C75.6969 92.0034 76.2118 92.6824 77.0785 93.3062L76.1779 94.3369C75.0526 93.5759 74.3752 92.6177 74.1441 91.4624C73.9667 90.5799 74.0944 89.7976 74.5147 89.1336C74.9327 88.4562 75.577 88.0295 76.4342 87.8584C77.3041 87.6841 78.3767 87.9814 79.6385 88.7566L82.6959 90.602Z" fill="#FDFBF9"/>
<path d="M83.0502 82.4326C83.1085 83.106 83.0139 83.6983 82.7686 84.2377C82.2765 85.3039 81.2955 85.9458 80.1615 86.3512C77.8579 87.0688 74.895 86.9135 73.563 85.0358C73.2279 84.546 73.0331 83.979 72.9747 83.3063C72.9164 82.6337 73.011 82.0406 73.2563 81.5012C73.746 80.409 74.7278 79.7789 75.865 79.4019C76.999 78.9981 78.3453 78.8814 79.5314 79.0849C80.7159 79.2607 81.7915 79.7118 82.4619 80.7039C82.7962 81.1921 82.9918 81.7591 83.0502 82.4326ZM80.4722 80.9011C79.7664 80.5777 78.8784 80.4547 77.8106 80.5485C76.7554 80.6392 75.9021 80.9121 75.2633 81.3537C74.6237 81.7946 74.3311 82.4042 74.3982 83.1817C74.466 83.9593 74.8588 84.5114 75.5646 84.8347C76.2704 85.158 77.1568 85.2676 78.2111 85.1769C80.2048 85.0303 81.7395 84.1801 81.6251 82.5556C81.5581 81.778 81.1788 81.226 80.4722 80.9011Z" fill="#FDFBF9"/>
<path d="M79.4928 75.2791C79.1064 75.6332 78.649 75.798 78.1198 75.7751C77.5906 75.7507 77.1498 75.5456 76.7949 75.1592C76.429 74.7586 76.2634 74.3012 76.2863 73.7855C76.3099 73.2555 76.515 72.8155 76.9156 72.4606C77.3028 72.0939 77.7602 71.929 78.2893 71.9519C78.8186 71.9764 79.2594 72.1814 79.6135 72.582C79.9668 72.9684 80.1316 73.4258 80.1088 73.9542C80.0859 74.4708 79.8801 74.9124 79.4928 75.2791Z" fill="#3FA9F5"/>
<path d="M83.9632 63.8614L79.7693 65.5467L79.5453 66.825L83.3283 67.4891L83.0649 68.989L73.4248 67.299L74.0218 63.8937C74.1984 62.8898 74.6204 62.1698 75.2876 61.7361C75.9548 61.3023 76.6944 61.1494 77.5035 61.2913C78.7686 61.5129 79.7709 62.4695 79.905 63.9316L84.2818 62.0492L83.9632 63.8614ZM75.1093 66.0467L78.1486 66.5798L78.4413 64.9103C78.6542 63.6982 78.0918 62.9939 77.2173 62.8417C76.3703 62.6927 75.6172 63.1517 75.4429 64.1429L75.1093 66.0467Z" fill="#FDFBF9"/>
<path d="M86.1466 55.9463L83.5718 56.134L82.5277 59.5794L84.5655 61.1661L84.0891 62.7371L75.8535 56.1758L76.1414 55.2255L86.623 54.3738L86.1466 55.9463ZM78.3156 56.4084L81.3274 58.7049L82.0955 56.171L78.3156 56.4084Z" fill="#FDFBF9"/>
<path d="M80.4696 44.3368L81.0965 42.9646L89.9984 47.0276L89.6238 47.8469L81.2629 50.1868L87.2974 52.9422L86.6705 54.3144L77.7686 50.2514L78.099 49.5291L86.5522 47.1143L80.4696 44.3368Z" fill="#FDFBF9"/>
<path d="M93.7806 40.9672L88.5529 41.4664L89.1735 43.3914L91.3832 44.7809L90.5725 46.0703L82.2842 40.8599L83.0949 39.5689L87.4134 42.2842L85.3519 35.9799L86.3251 34.4335L88.1736 40.0555L94.7822 39.3749L93.7806 40.9672Z" fill="#FDFBF9"/>
<path d="M87.0127 33.7L87.9275 32.4832L95.7529 38.3607L94.8389 39.5776L87.0127 33.7Z" fill="#FDFBF9"/>
<path d="M93.5493 25.9288L94.5658 24.8121L101.805 31.401L101.197 32.0682L92.5186 31.7449L97.4261 36.2116L96.4096 37.3283L89.1709 30.7394L89.7064 30.1511L98.4963 30.4326L93.5493 25.9288Z" fill="#FDFBF9"/>
<path d="M102.4 29.1527C101.058 29.0202 99.925 28.3901 99.0016 27.2639C98.0686 26.1275 97.6838 24.8839 97.847 23.5164C98.0016 22.1395 98.6309 21.0055 99.7365 20.0986C100.997 19.0663 102.611 18.6325 103.96 18.8786L103.807 20.3407C102.656 20.1711 101.62 20.4731 100.688 21.2373C99.899 21.884 99.4621 22.6884 99.3683 23.6387C99.2744 24.5905 99.5536 25.473 100.209 26.2726C100.855 27.0613 101.658 27.5171 102.608 27.6109C103.559 27.7048 104.414 27.4303 105.191 26.7931C106.062 26.0786 106.612 24.9943 106.689 23.9202L105.581 22.5677L103.195 24.5251L102.322 23.4588L105.803 20.6033L108.239 23.5732C108.154 25.391 107.435 26.8538 106.094 27.954C104.968 28.8782 103.734 29.2741 102.4 29.1527Z" fill="#FDFBF9"/>
<path d="M110.531 20.6863C110.021 20.5601 109.63 20.2706 109.358 19.8156C109.086 19.3606 109.013 18.8803 109.139 18.3724C109.271 17.8441 109.561 17.4545 110.003 17.1879C110.458 16.9151 110.939 16.8417 111.454 16.9797C111.974 17.0996 112.365 17.3898 112.638 17.8441C112.912 18.2983 112.984 18.7794 112.846 19.2951C112.72 19.8038 112.43 20.1949 111.976 20.467C111.532 20.7336 111.051 20.8061 110.531 20.6863Z" fill="#3FA9F5"/>
<path d="M118.681 18.2604L122.37 16.6122L122.944 17.8937L117.283 20.4228L116.765 19.2612L118.256 14.9688L118.599 13.9167C118.738 13.4483 118.814 12.6447 118.593 12.1487C118.225 11.3261 117.306 11.0548 116.472 11.4279C115.77 11.7417 115.221 12.3939 114.804 13.3781L113.598 12.7259C114.092 11.461 114.877 10.588 115.953 10.1077C116.775 9.73943 117.566 9.69211 118.307 9.95551C119.061 10.2126 119.619 10.7473 119.975 11.5454C120.337 12.3553 120.283 13.4688 119.806 14.871L118.681 18.2604Z" fill="#FDFBF9"/>
<path d="M126.746 16.803C126.102 17.0081 125.502 17.0451 124.922 16.9245C123.774 16.6768 122.931 15.8598 122.288 14.8417C121.083 12.7519 120.584 9.82533 122.125 8.11245C122.53 7.6795 123.041 7.36408 123.684 7.15904C124.328 6.95558 124.928 6.91693 125.508 7.03917C126.681 7.27812 127.512 8.09905 128.129 9.12504C128.772 10.1447 129.181 11.4325 129.243 12.6352C129.33 13.8291 129.126 14.9782 128.305 15.8496C127.901 16.2841 127.389 16.5996 126.746 16.803ZM127.675 13.9522C127.836 13.1927 127.761 12.2992 127.437 11.2764C127.116 10.2662 126.662 9.49253 126.092 8.96574C125.521 8.43736 124.861 8.28674 124.117 8.52253C123.372 8.75991 122.92 9.26305 122.759 10.0241C122.597 10.7835 122.684 11.6723 123.005 12.6825C123.585 14.5973 124.751 15.9079 126.312 15.4395C127.057 15.2045 127.512 14.7132 127.675 13.9522Z" fill="#FDFBF9"/>
<path d="M132.193 13.7314L136.153 12.938L136.429 14.3149L130.352 15.5318L130.103 14.2842L132.504 10.4271L133.071 9.47677C133.31 9.05171 133.561 8.28438 133.455 7.75286C133.277 6.86885 132.441 6.40199 131.545 6.581C130.792 6.73163 130.113 7.24659 129.49 8.11325L128.458 7.21347C129.219 6.08733 130.177 5.4099 131.333 5.17884C132.216 5.0014 132.997 5.12995 133.662 5.55028C134.34 5.96746 134.765 6.61176 134.937 7.46974C135.112 8.3388 134.813 9.41211 134.039 10.6731L132.193 13.7314Z" fill="#FDFBF9"/>
<path d="M140.361 14.0879C139.689 14.1463 139.096 14.0508 138.557 13.8064C137.491 13.3135 136.848 12.3324 136.443 11.1984C135.726 8.89564 135.88 5.93204 137.759 4.60007C138.248 4.26569 138.816 4.07012 139.487 4.01176C140.161 3.9534 140.753 4.04882 141.293 4.2933C142.385 4.78303 143.015 5.76564 143.392 6.90283C143.796 8.03684 143.912 9.38301 143.71 10.5683C143.533 11.7528 143.082 12.8293 142.09 13.4996C141.602 13.8332 141.035 14.0288 140.361 14.0879ZM141.893 11.5091C142.217 10.8033 142.339 9.91611 142.246 8.84754C142.155 7.79237 141.882 6.93911 141.441 6.30033C141 5.66076 140.39 5.36818 139.613 5.436C138.834 5.50382 138.283 5.89655 137.959 6.60237C137.636 7.30818 137.526 8.19535 137.618 9.24973C137.764 11.2426 138.614 12.7772 140.238 12.6629C141.017 12.595 141.569 12.2165 141.893 11.5091Z" fill="#FDFBF9"/>
</svg>
