<?xml version="1.0" encoding="utf-8"?>
<!-- Generator: Adobe Illustrator 24.1.1, SVG Export Plug-In . SVG Version: 6.00 Build 0)  -->
<svg version="1.1" id="Camada_1" xmlns="http://www.w3.org/2000/svg" xmlns:xlink="http://www.w3.org/1999/xlink" x="0px" y="0px"
	 viewBox="0 0 1075 581" style="enable-background:new 0 0 1075 581;" xml:space="preserve">
<style type="text/css">
	.st0{fill:#009CE8;}
	.st1{fill:#FEFEFE;}
	.st2{fill:#FDFDFD;}
	.st3{fill:#FCFCFC;}
	.st4{fill:#FBFBFB;}
	.st5{fill:#F9F9F9;}
	.st6{fill:#F8F8F8;}
	.st7{fill:#FAFAFA;}
	.st8{fill:#009AE1;}
	.st9{fill:#555555;}
	.st10{fill:#020202;}
	.st11{fill:#040404;}
	.st12{fill:#050505;}
	.st13{fill:#010101;}
	.st14{fill:#009DE8;}
	.st15{fill:#019DE8;}
	.st16{fill:#019EE8;}
	.st17{fill:#05A0E9;}
</style>
<g>
	<path d="M655.3,517.3c-135,87.6-314.4,40.2-389.1-97.6c0,1.7,0,3.4,0,5.1c0,32.8-0.1,65.5,0.1,98.3c0,5-1.4,5.8-6,5.8
		c-41-0.2-81.9-0.2-122.9,0c-4.3,0-5.7-0.8-5.7-5.5c0.2-109.9,0.1-219.9,0.2-329.8c0-4.6-0.8-6.1-5.8-6
		c-34.1,0.3-68.3,0.1-102.4,0.2c-3.8,0-4.9-0.8-4.9-4.8c0.2-41.2,0.2-82.5,0-123.7c0-4.3,1.3-5,5.3-5c113.7,0.1,227.4,0.1,341.1,0.2
		c5.5,0,10.2-1.2,15.2-3.6C472.9,5.5,563.3,9.3,651.6,62.1c1,0.6,1.9,1.2,2.8,1.8c0.4-0.4,0.8-0.6,0.8-0.8c0.4-8.9,0.4-8.9,9.2-8.9
		c69.6,0,139.2-0.2,208.8,0.1c43,0.2,81.9,12.9,115.1,40.7c43.9,36.9,67,83.9,67.8,141.6c0.6,41.9-10.2,80.2-35.6,113.7
		c-31.4,41.5-72.4,67.2-124.4,74.4c-10.2,1.4-20.6,1.6-30.9,1.7c-23,0.1-46,0.2-68.9-0.1c-4.6-0.1-5.3,1.3-5.3,5.5
		c0.2,30.4,0,60.9,0.2,91.3c0,4.3-0.7,5.8-5.5,5.7c-41.6-0.2-83.2-0.2-124.9,0c-4.3,0-6.5-0.7-5.7-5.5
		C655.6,521.6,655.3,519.8,655.3,517.3z"/>
	<path class="st0" d="M505.6,495.7c-113.3,0-204.9-91.9-204.9-205.3c0.1-113.4,92.1-205,205.9-204.8
		c113.4,0.2,204.7,92.1,204.6,206.1C711,404.5,619,495.8,505.6,495.7z"/>
	<path class="st1" d="M791.1,239.7c0-15.6,0.1-31.3-0.1-46.9c0-3.3,0.4-4.5,4.2-4.5c25.3,0.2,50.6,0,75.9,0.1
		c26.7,0.2,48.7,22.3,49.4,49.5c0.7,27.9-20.5,52.4-47.2,53.2c-26.3,0.8-52.6,0.2-78.9,0.4c-3.2,0-3.3-1.4-3.3-3.9
		C791.2,271.6,791.1,255.7,791.1,239.7z"/>
	<path class="st2" d="M500.5,510.8c1.1,0.4,1.4,1.6,1.5,2.4c0.9,5.5,4.5,6.1,9.3,6.1c4.9,0,7.6-1.4,8.7-6.3
		c0.9-3.9,8.8-5.1,11.6-2.1c2.6,2.8,5.1,5.7,7.5,8.7c1.4,1.8,2.8,2.7,5.1,1.7c2.4-1,1.1-2.8,0.9-4.3c-0.2-2.5-0.5-5-1.1-7.4
		c-0.5-2,0-2.6,2-2.9c1.9-0.3,2.8,0.1,3,2.1c1.4,10,2.8,20,4.2,30.1c0.3,1.9-0.4,2.7-2.3,2.9c-3.5,0.3-6.9,1-10.4,1.3
		c-4.8,0.4-8.5-1.5-10.5-6c-2-4.6-1.4-9.1,2.6-12.1c2.8-2.1,2.1-3.3,0.2-5.2c-2.5-2.4-4.7-5.1-7.2-7.9c-4,10.3-7.8,20.4-11.7,30.4
		c-0.5,1.2-0.4,3.2-2.5,3.2c-2,0-2.1-1.9-2.6-3.2c-4.2-10.1-8.3-20.2-12.5-30.3C497.1,509,499,510.4,500.5,510.8z"/>
	<path class="st2" d="M285.7,285.2c-0.5,0.3-1,0.9-1.6,1c-5.4,1-6.6,4.3-6.5,9.5c0.1,4.7,1.5,7.2,6,8.5c4.5,1.2,5.9,8.7,2.4,11.9
		c-2.8,2.6-5.6,5.2-8.7,7.5c-2.1,1.5-2.1,3.4-1.5,5.2c0.8,2.5,2.8,0.5,4.1,0.5c2.3,0,4.6-0.6,6.9-0.9c1.6-0.2,3.3-0.6,3.6,2
		c0.4,2.4-0.8,2.7-2.7,3c-9.9,1.4-19.7,2.9-29.6,4.4c-1.7,0.3-2.5-0.2-2.7-1.8c-0.6-4.1-1.4-8.2-1.6-12.3c-0.1-4.4,2.3-7.6,6.4-9.2
		c4.3-1.8,8.1-0.9,11.4,2.3c0.9,0.9,1.7,2,2.6,3.2c3.4-3.1,6.8-6.2,10.8-9.9c-10.2-3.8-19.8-7.4-29.3-11.1c-1.5-0.6-4-0.3-4-2.9
		c0-2.5,2.5-2.4,4-3c9.3-4,18.6-7.8,28-11.7C287.8,280.8,286,283.4,285.7,285.2z"/>
	<path class="st2" d="M514.7,69.7c-0.2-0.2-0.6-0.4-0.7-0.7c-1.2-7.2-5.8-8.2-12.2-7.6c-3.4,0.3-4.8,1.3-5.8,4.4
		c-2.2,6.6-9.2,7.7-13.7,2.4c-2-2.4-4.2-4.7-6.1-7.2c-1.3-1.7-2.6-2.3-4.6-1.7c-2.8,0.7-1.3,2.7-1.2,4c0.1,2.5,0.5,4.9,0.9,7.4
		c0.3,1.9-0.1,3-2.3,3.3c-2.3,0.3-2.3-0.7-2.6-2.4c-1.2-9.7-2.5-19.4-4-29.1c-0.4-2.6,0.3-3.6,3-3.7c3.6-0.1,7.3-0.8,10.9-1
		c4.8-0.3,7.9,2.4,9.5,6.6c1.5,4.2,0.9,8.6-2.9,11.2c-3.2,2.2-2.2,3.5-0.2,5.5c2.2,2.3,4.2,4.7,6.9,7.7c2.8-7.1,5.3-13.6,7.9-20.1
		c1.4-3.5,2.7-7.1,4.1-10.6c0.5-1.2,0.6-2.7,2.5-2.6c1.5,0.1,1.8,1.3,2.2,2.3c4.1,9.9,8.1,19.9,12.2,29.8
		C519.1,71.4,516.6,70.1,514.7,69.7z"/>
	<path class="st2" d="M727.2,297.5c0.2-0.2,0.4-0.6,0.7-0.7c7.3-1.1,8.2-5.8,7.6-12.2c-0.3-3.4-1.3-4.8-4.4-5.8
		c-6.3-2-7.5-9.1-2.4-13.4c2.6-2.3,5.2-4.6,8-6.8c1.6-1.2,1.8-2.7,1.4-4.4c-0.6-2.2-2.3-1.3-3.7-1.2c-2.8,0.3-5.6,0.7-8.4,1.1
		c-1.5,0.2-2.6,0-2.7-1.9c0-1.6-0.3-2.7,2-3c10-1.2,20.1-2.7,30.1-4.1c1.9-0.3,2.7,0.1,2.8,2.2c0.3,3.5,1,6.9,1.3,10.4
		c0.5,5-1.9,9-6.3,10.7c-4.7,1.8-9,0.9-12-3.1c-1.7-2.3-2.5-2.3-4.4-0.4c-2.5,2.6-5.3,4.8-8.5,7.7c10.2,3.9,19.7,7.5,29.2,11.3
		c1.5,0.6,4,0.4,3.9,3c-0.1,2.2-2.2,2.2-3.6,2.8c-9.5,3.9-19,7.8-28.4,11.6C725.5,301.8,726.8,299.4,727.2,297.5z"/>
	<path class="st3" d="M373.4,468.8c10.1,0,18.3,6.9,19.4,16.3c1.1,8.9-5.3,17.7-14.4,19.8c-9,2.1-18.5-3.3-21.7-12.4
		c-0.5-1.5-2.3-3.3,0.9-4.3c2.6-0.8,2.9,0.8,3.6,2.6c2.8,6.9,9.4,10.8,15.6,9.5c6.9-1.5,11.4-7.5,11-14.5
		c-0.4-7.6-8.8-13.8-16.3-12.2c-2.8,0.6-3.5,3.1-4.4,5c-1,2.1,1.7,2.3,2.8,3.3c1.3,1.1,2.7,2,4.1,2.8c1.7,1,1.8,1.9,0.7,3.5
		c-1,1.4-1.9,1.6-3.2,0.5c-0.9-0.7-1.9-1.3-2.9-1.9c-9-6-9-6-2.9-14.8C367.7,468.9,367.9,468.8,373.4,468.8z"/>
	<path class="st3" d="M327.3,157.7c0,9.5-7.1,18.1-16.1,19.5c-8.4,1.3-17.7-4.7-20.1-12.9c-2.7-9.2,2-18.9,11.1-22.9
		c1.6-0.7,3.7-2.6,5.1,0.1c1.3,2.8-0.8,3.4-3,4.2c-6.7,2.6-10.3,9.9-8.5,16.6c1.5,5.8,8.5,10.4,14.6,9.7c7-0.9,11.8-6.8,12-14.2
		c0.1-3.9-2.6-5-5-6.6c-1.8-1.1-1.9,0.6-2.5,1.3c-1.4,1.8-2.7,3.8-3.8,5.8c-0.9,1.5-1.8,1.6-3.1,0.6c-1.1-0.8-1.8-1.4-1-2.8
		c2.4-3.6,4.7-7.2,7.1-10.8c0.3-0.5,0.7-1,1.6-0.9C319.9,145,327.4,153.2,327.3,157.7z"/>
	<path class="st3" d="M685,424.6c0.5-10.6,8.1-18.9,17.6-19.5c9-0.5,17.7,6.8,19.2,16.1c1.3,8.2-5.1,18.1-13.4,20.4
		c-1.2,0.3-3,1.5-3.7-0.9c-0.7-2.1,0-3.1,2.3-3.9c6.6-2.3,10.3-7.8,9.9-13.9c-0.3-5.6-4.6-10.8-10.1-12.2
		c-9.3-2.4-18.2,5.8-16.8,15.4c0.5,3.1,3,3.9,5.1,4.9c2.2,1.1,2.2-1.7,3.2-2.8c1.2-1.3,2.1-3,3.1-4.5c1-1.6,1.9-1.1,3.2-0.3
		c1.5,1,1.7,1.8,0.5,3.1c-0.8,0.9-1.3,1.9-2,2.9c-6.2,9.3-6.1,9.1-15.3,2.6C684.6,429.9,685.6,426.9,685,424.6z"/>
	<path class="st3" d="M641,112.9c-9.9-0.1-18.3-7.2-19.4-16.6c-1-8,5.3-17.4,13.1-19.5c9.3-2.6,19.1,2.3,22.8,11.4
		c0.6,1.6,2.7,3.7-0.1,5.1c-2.7,1.3-3.4-0.7-4.2-3c-2.5-6.9-10.2-10.6-17-8.6c-6,1.8-10.3,8.8-9.3,15.3c1.1,6.9,7.4,11.3,14.9,11.1
		c3.5-0.1,4.5-2.6,5.6-4.8c1.1-2.3-1.7-2.6-2.9-3.6c-1.3-1.2-3-2-4.5-3.1c-1.3-0.9-0.7-1.8-0.1-2.9c0.7-1.2,1.5-1.7,2.7-0.8
		c3.6,2.4,7.2,4.8,10.7,7.2c0.5,0.3,1,0.7,0.9,1.6C653.7,105.9,645.5,113,641,112.9z"/>
	<path class="st3" d="M727.2,297.5c0.1,1.6-0.4,3.6,2.2,3.8c-0.2,2.6,1.9,1.8,3.1,1.9c8.6,1.1,17.1,2.1,25.7,3.1
		c1.1,0.1,2.6-0.3,3,1.1c0.4,1.5-1,2.3-2.1,3c-8,5.3-16,10.6-24.9,16.6c7.3,0.9,13.8,1.5,20.2,2.5c1.4,0.2,4.4-1.1,4.1,2.6
		c-0.3,3.6-2.5,2.5-4.6,2.2c-9.1-1.1-18.1-2.1-27.2-3.3c-1.2-0.1-2.9,0.6-3.3-1.2c-0.5-1.9,1.2-2.5,2.4-3.3
		c7.9-5.2,15.7-10.3,24.6-16.1c-7.1-0.9-13-1.8-19.1-2.2c-3.7-0.3-6.2-0.9-4.8-5.5C727,301,725.8,299,727.2,297.5z"/>
	<path class="st3" d="M285.7,285.2c-0.2-1.6,0.7-3.6-2-3.9c0.3-3-2.1-1.8-3.3-1.9c-8.2-1.1-16.5-1.9-24.7-3
		c-1.3-0.2-3.3,0.9-3.8-1.2c-0.5-2.1,1.7-2.6,3-3.4c7.6-5.2,15.3-10.4,23.9-16.1c-7.6-0.9-14.2-1.6-20.9-2.4
		c-1.6-0.2-3.9,0.5-3.5-2.7c0.3-2.8,1.9-2.4,3.9-2.2c9.6,1.1,19.2,2.1,28.7,3.2c1,0.1,2.5-0.4,2.7,1.4c0.1,1.5-0.9,2-1.9,2.7
		c-6.6,4.4-13.2,8.9-19.8,13.3c-1.3,0.9-2.7,1.8-5.2,3.4c6.9,0.8,12.7,1.7,18.5,2c4.2,0.2,6.8,1.1,5.3,6
		C286.1,281.8,287.7,283.8,285.7,285.2z"/>
	<path class="st3" d="M602,65.9c-3.1,6.7-6,12.8-8.8,18.9c-0.8,1.7-1.5,3.1-4,1.9c-2.5-1.3-1.2-2.6-0.6-4c4-8.5,8-17.1,12.1-25.6
		c0.5-1.1,0.8-3.1,2.3-2.9c1.7,0.2,1.9,2.1,2.2,3.5c2.5,9.1,4.9,18.2,7.7,28.3c3.2-6.8,6.1-12.9,9.1-18.9c0.7-1.4,0.8-3.7,3.7-2.5
		c3.2,1.4,1.4,3.1,0.6,4.7c-3.9,8.2-7.7,16.5-11.7,24.7c-0.6,1.2-0.5,3.4-2.5,3.2c-2-0.2-2.1-2.3-2.5-3.9c-2.2-8-4.2-16-6.3-24
		C603,68.4,602.6,67.5,602,65.9z"/>
	<path class="st3" d="M514.7,69.7c1.6-0.1,3.6,0.4,3.8-2.2c2.6,0.2,1.8-1.9,1.9-3.1c1.1-8.5,2.1-17.1,3.2-25.7
		c0.1-1.1-0.2-2.7,1.1-3c1.5-0.4,2.2,1,3,2.1c5.3,8,10.6,16,16.5,24.9c0.9-7.1,1.5-13.2,2.5-19.2c0.3-1.8-1.2-5.1,2.9-4.8
		c4.5,0.3,2,3.3,1.8,5.1c-0.9,8.9-2.1,17.8-3.2,26.6c-0.1,1.1,0.6,2.9-1.4,3.2c-1.6,0.2-2.3-1-3-2.2c-5.2-8-10.4-16-16.2-24.9
		c-0.9,7-1.9,13-2.3,19c-0.3,4.3-1.7,6-6,4.8C517.9,69.9,516.1,71.1,514.7,69.7z"/>
	<path class="st3" d="M301,185.8c-7.2-3.3-13.3-6.1-19.4-9c-1.2-0.6-3.6-0.4-2.3-3.3c1.1-2.4,2.2-2.1,4.2-1.2
		c8.7,4.1,17.4,8,26.2,12c1,0.5,2.5,0.6,2.5,1.9c0,1.5-1.4,1.9-2.8,2.3c-9.4,2.6-18.8,5.3-28.9,8.2c6.8,3.1,13.1,6,19.4,8.9
		c1.4,0.6,3.2,0.9,2,3.5c-1.2,2.8-2.6,1.8-4.2,1c-8.6-3.9-17.1-7.9-25.7-11.9c-1.1-0.5-3-0.4-2.9-2.1c0.1-1.9,2.1-1.9,3.4-2.3
		C281.7,191.3,290.8,188.7,301,185.8z"/>
	<path class="st3" d="M412.4,516.1c3.3-7,6-12.9,8.8-18.8c0.8-1.7,1.1-3.9,4-2.4c2.9,1.5,1,2.9,0.4,4.3c-3.9,8.6-7.9,17.1-11.9,25.7
		c-0.5,1-0.5,2.6-1.9,2.5c-1.6-0.1-1.8-1.6-2.1-2.9c-2.6-9.2-5.2-18.4-8.1-28.8c-3.4,7.3-6.3,13.5-9.2,19.7
		c-0.7,1.6-1.2,2.9-3.6,1.7c-2.3-1.2-1.6-2.4-0.9-3.9c4-8.7,8-17.4,12.2-26.1c0.5-1,0.4-3,2.5-2.4c1.6,0.4,1.7,1.8,2,3.1
		C407,496.7,409.5,505.7,412.4,516.1z"/>
	<path class="st3" d="M732.1,385.8c-7-3.3-13-6-19-8.9c-1.5-0.7-3.6-0.9-2.4-3.8c1.3-3,2.8-1.4,4.3-0.7c8.3,3.9,16.5,7.7,24.7,11.7
		c1.3,0.6,3.8,0.5,3.4,2.8c-0.3,1.7-2.3,1.6-3.7,2c-8.9,2.5-17.9,4.9-27.9,7.7c6.9,3.3,13,6.2,19.1,9c1.6,0.8,3.6,1,2.3,3.8
		c-1.3,2.7-2.8,1.4-4.4,0.6c-8.4-3.9-16.8-7.8-25.2-11.8c-1.2-0.6-3.3-0.5-2.9-2.6c0.4-1.8,2.3-1.8,3.6-2.2
		C712.9,390.9,721.9,388.5,732.1,385.8z"/>
	<path class="st3" d="M487.2,533.9c0.9-7.8,1.7-14.6,2.4-21.3c0.2-2,0.7-3,3-2.8c2.2,0.2,2.1,1.4,2,3.1c-1.1,9.9-2.2,19.8-3.3,29.7
		c-0.1,1-0.1,2.1-1.4,2.3c-1.5,0.2-1.9-1-2.6-2c-5.4-8-10.7-15.9-16.7-24.9c-0.8,6.4-1.5,11.7-2.1,17c-0.2,1.6-0.3,3.3-0.6,4.9
		c-0.2,1.6-0.6,2.7-2.8,2.3c-2-0.4-2.4-1.2-2.2-3c1.2-9.2,2.2-18.5,3.5-27.7c0.2-1.5-0.6-3.9,1.2-4.4c2.5-0.7,3.1,2,4.2,3.5
		c4.7,7,9.4,14.1,14,21.2C486,532.3,486.4,532.8,487.2,533.9z"/>
	<path class="st3" d="M373.3,110.2c0,8.7-8.9,15.1-17,11.7c-8.7-3.6-14-10.5-15.3-19.8c-1.1-7.7,7.2-14.7,14.9-13.2
		C364.3,90.6,373.3,101.7,373.3,110.2z"/>
	<path class="st3" d="M670.6,481.2c0.1,7.7-7.8,14-15.4,12.3c-8.1-1.9-16.7-12.5-16.9-20.8c-0.2-9.6,9.3-15.8,18-11.7
		C664,464.5,670.5,473.7,670.6,481.2z"/>
	<path class="st3" d="M697.7,127.2c8.5,0.1,14.8,8.8,11.6,16.8c-3.3,8.3-9.8,13.3-18.4,15.2c-4.9,1.1-9.2-0.7-12.3-4.8
		c-3-4.1-3.5-8.5-1.3-13.1C680.9,133.6,690.2,127.1,697.7,127.2z"/>
	<path class="st3" d="M326.4,422.1c8.1,0.3,14.3,9.1,11.3,16.6c-3.5,9.1-10.5,14.4-20,15.8c-7.7,1.1-14.5-6.9-13-14.9
		C306.2,431.1,317.7,421.8,326.4,422.1z"/>
	<path class="st3" d="M716.1,358.7c-0.2-2.2,1.4-2.8,2.9-3.5c3.3-1.5,6.7-2.8,10-4.5c1.6-0.8,4.9-1.1,4.4-2.9
		c-0.6-2.5-2.1-5.2-5.4-5.9c-1.6-0.3-3.2-0.8-4.8-1.2c-1.6-0.4-2.5-1.2-1.9-3.1c0.5-1.8,1.1-2.4,3.1-1.8c9.8,2.7,19.6,5.2,29.3,7.7
		c1.6,0.4,2.6,0.9,1.8,3c-0.7,1.6-1,2.3-3.1,1.8c-4.9-1.2-9.7-3.2-14.8-3.3c3.5,8.3,12.5,13.6,12.7,23.3c-0.5,0.3-1,0.6-1.5,0.9
		c-3.2-4.4-6.6-8.7-9.5-13.4c-1.9-3.2-3.7-3.3-6.8-1.7c-5,2.5-10.3,4.6-15.4,6.8C715.1,361,715.9,359.8,716.1,358.7z"/>
	<path class="st3" d="M296.8,221.4c0.3,3.3-1.3,5.1-4.4,6.2c-3.3,1.2-6.4,2.8-9.4,4.4c-1.5,0.8-4.5,0.7-3.9,2.8
		c0.6,2.1,1.9,4.7,4.6,5.5c1.9,0.6,3.9,1,5.8,1.4c1.7,0.4,2.7,1.1,1.9,3.1c-0.6,1.6-1.1,2.3-3.2,1.8c-9.8-2.6-19.6-5-29.4-7.4
		c-2-0.5-2.2-1.5-1.7-3.2c0.5-1.9,1.4-2.1,3.2-1.6c4.6,1.3,9.3,2.3,14.4,3.6c-2.8-9.1-13.3-13.9-12.4-24c0.4-0.2,0.9-0.5,1.3-0.7
		c3.4,4.7,6.9,9.2,10.1,14c1.6,2.4,3.1,2.7,5.7,1.4c5.3-2.6,10.8-4.9,16.3-7.3C295.9,220.9,296.4,220.9,296.8,221.4z"/>
	<path class="st3" d="M575.3,80.7c-2.2,0.2-2.2-1.7-2.8-2.9c-1.6-3.3-2.8-6.7-4.5-10c-0.8-1.6-0.9-4.7-2.8-4.3
		c-2.5,0.6-5.3,2.1-5.9,5.3c-0.3,1.6-0.8,3.2-1.2,4.8c-0.4,1.6-1.2,2.5-3.1,1.9c-1.8-0.5-2.4-1.1-1.8-3.1c2.7-9.7,5.3-19.5,7.9-29.2
		c0.4-1.6,0.9-2.8,3-1.9c1.3,0.6,2.6,0.8,2,2.6c-1.6,4.7-2.1,9.7-4.3,14.2c1.7,1.1,2.9-0.1,4.3-1c4.2-3,8.5-5.8,12.6-8.9
		c2.7-2.1,5.3-2.5,8.4-0.3c-4.4,3.1-8.6,6.3-13.1,9.1c-3.3,2-4.2,3.8-2.2,7.4c2.7,5.1,4.7,10.5,7,15.8
		C577.6,81.4,576.4,81.3,575.3,80.7z"/>
	<path class="st3" d="M438.7,499.7c2.1-0.4,2.9,1.1,3.6,2.7c1.5,3.5,3,7,4.7,10.4c0.8,1.6,0.7,4.8,3.1,4.2c2.3-0.6,5-2,5.6-5.1
		c0.3-1.6,0.8-3.2,1.2-4.8c0.4-2,1.4-2.7,3.5-2.2c2.2,0.5,1.9,1.6,1.5,3.3c-2.5,9.6-4.9,19.3-7.4,28.9c-0.4,1.4-0.7,2.9-3,2.1
		c-1.9-0.7-2.6-1.3-1.9-3.5c1.4-4.5,2.3-9.1,3.7-14.6c-8,4-13.3,10-20.5,13.1c-1,0.4-2.5-0.6-4.9-1.2c5-3.6,9.3-7.1,14-9.9
		c3.1-1.9,3.3-3.7,1.7-6.8c-2.6-5-4.6-10.2-6.9-15.4C436.4,498.9,437.5,499.2,438.7,499.7z"/>
	<path class="st4" d="M398.9,97.8c-4.9,5.9-11.9,8.8-18.2,12.7c-2.6,1.6-3.4-1.6-3.1-3.7c0.7-4.9,1.7-9.8,2.5-14.7
		c0.3-2,0.5-3.9,0.7-5.9c0.3-3.4-0.5-6.4-4.2-7.5c-3.5-1-5.8,1.1-8.1,3.6c-1.4,1.6-1,6.7-4.8,4c-3.3-2.4,0.3-5.3,1.8-7.4
		c2.9-4.4,8.8-6.3,13.1-4.8c4.4,1.5,7,5.9,6.9,11.5c-0.1,5.6-1.3,11.1-2.8,17.2c5.4-2.2,10.5-4.3,13.6-9.4
		C398,94.5,398.6,96.1,398.9,97.8z"/>
	<path class="st4" d="M612.3,483.8c5.6-3.6,11.1-7.2,16.7-10.6c1.2-0.7,2.4-2.8,4.2-1.3c1.5,1.3,1.5,3.1,1.1,5
		c-1,4.5-1.8,9.1-2.6,13.7c-0.3,1.8-0.5,3.6-0.7,5.4c-0.3,3.4,0.3,6.6,3.9,7.7c3.9,1.2,6.7-0.9,8.6-4.2c0.4-0.7,0.8-1.5,1.1-2.2
		c0.5-1.4,1-2.2,2.8-1.5c1.6,0.6,2,1.4,1.6,3c-1.3,5.7-8,10.6-13.8,10c-5.5-0.5-8.8-5.1-8.9-11.8c-0.1-5.7,2-11,2.2-17.1
		c-5.2,0.7-8.1,5.9-13.2,5.9C613.6,486.3,613,485,612.3,483.8z"/>
	<path class="st4" d="M345.1,135.2c2.5-2.8,5.1-5.5,7.6-8.3c1.3-1.5,2.2-1.5,3.6-0.1c1.4,1.4,0.8,2.1-0.2,3.2
		c-4.1,4.1-8,8.5-12.3,12.4c-3.2,2.9-4.1-0.4-4.4-2.5c-0.5-3.9-0.5-7.9-0.7-11.9c-0.1-2.6-0.2-5.3-0.5-7.9c-0.5-3.9-1.9-7.4-6.5-7.4
		c-4.3,0-6.1,3.5-7.1,7.2c-0.4,1.5,0.4,4-2.8,3.4c-3.4-0.6-2-2.9-1.6-4.6c1.4-6.7,6.7-11.2,12.3-11c5.4,0.3,9.3,4.5,10.2,11.6
		c0.7,5,0.8,10.1,1.1,15.2C344.4,134.7,344.7,135,345.1,135.2z"/>
	<path class="st4" d="M663.4,131.3c2.7,2.4,5.4,4.8,8.1,7.2c1.1,1,2.2,1.8,0.6,3.6c-1.8,1.9-2.7,0.9-3.9-0.4
		c-3.6-3.7-7.3-7.3-10.9-11c-0.9-0.9-2.6-1.6-1.9-3.1c0.7-1.5,2.1-2.5,4-2.5c5.6-0.1,11.3-0.3,16.9-0.5c1.6-0.1,3.3-0.3,4.9-0.6
		c2.8-0.6,4.7-2.4,5.1-5.4c0.4-2.8-1.4-4.7-3.5-6.2c-1.1-0.7-2.4-1.1-3.6-1.6c-1.6-0.6-4.4,0.2-3.3-3.3c1-3.1,3-1.3,4.4-1
		c6.7,1.4,11.1,6.5,10.8,12.3c-0.3,5.6-4.9,9.6-12,10.4c-2.5,0.3-5,0.2-7.5,0.3c-2.5,0.1-4.9,0.3-7.3,0.4
		C664,130.4,663.7,130.9,663.4,131.3z"/>
	<path class="st4" d="M350.5,452.5c-2.5-2.8-4.7-5-6.7-7.4c-1-1.2-4-1.9-1.5-4.6c2.5-2.7,3.4,0,4.5,1.2c3.5,3.3,6.9,6.7,10.2,10.2
		c0.8,0.9,2.7,1.5,2,3c-0.7,1.5-2,2.5-4,2.5c-4.5,0.1-8.9,0.3-13.4,0.5c-2.5,0.1-4.9,0-7.4,0.6c-3.2,0.7-5.7,2.2-6,5.7
		c-0.2,3.6,1.9,5.8,5.2,7c1.1,0.4,2.2,0.8,3.3,0.8c2,0,1.9,1.2,1.9,2.7c0,1.9-1.1,2-2.6,2c-6.1-0.2-12.2-5.6-12.7-11.3
		c-0.5-5.8,3.4-10.4,10.5-11.5C339.2,452.9,344.7,452.9,350.5,452.5z"/>
	<path class="st4" d="M313.8,396.7c3.5,5.6,7,11.1,10.4,16.7c0.7,1.2,2.9,2.3,1.4,4.2c-1.2,1.5-3.1,1.6-5,1.3
		c-4.4-0.9-8.8-1.7-13.2-2.5c-2.1-0.4-4.3-0.8-6.4-0.9c-3.2-0.2-6.1,0.8-7.2,4.1c-1.1,3.2,0.4,5.8,3,7.8c1,0.8,2.3,1.4,3.5,1.8
		c1.5,0.6,2,1.2,1.4,2.9c-0.6,1.7-1.2,1.9-2.9,1.5c-6.1-1.6-10.9-8.3-10-14.2c0.8-5.7,6.5-9.3,13.7-8.5c2.6,0.3,5.2,0.8,7.8,1.3
		c2.4,0.4,4.9,0.8,7.8,1.2c-1.4-5.1-6.1-8.1-6.4-13.1C311,398.1,312.2,397.3,313.8,396.7z"/>
	<path class="st4" d="M313.8,396.7c-0.7,1.1-1.5,2.3-2.2,3.4c-6.3-1.9-12.6-4-19-5.7c-3.9-1.1-8.1-1.8-10.7,2.5
		c-1.9,3.2,0.1,7.1,4.9,10.1c1.5,0.9,2.9,1.4,1.6,3.6c-1.4,2.3-2.8,0.9-4.2,0.2c-4.8-2.7-7.8-6.6-7.6-12.4c0.2-4.3,2.6-7.1,6.4-8.7
		c3.2-1.3,6.5-1,9.8-0.2c4.5,1.1,8.9,2.4,14.4,4c-1.9-4-3.5-7.1-4.9-10.3c-0.6-1.4-2.1-2.7,0.4-4c2.2-1.2,2.9,0.1,3.6,1.7
		C308.8,386.2,311.3,391.4,313.8,396.7z"/>
	<path class="st4" d="M705.3,183.3c5.1,1.5,10.1,3.1,15.2,4.6c1.7,0.5,3.5,1,5.3,1.1c2.6,0.2,5-0.6,6.3-3.2c1.2-2.5,0.6-4.9-0.9-7
		c-1.2-1.7-2.8-2.9-4.6-3.6c-1.7-0.7-1.5-1.7-0.7-3.1c0.7-1.3,1.3-1.5,2.7-1c5.5,1.8,9.9,9.1,8.7,14.7c-1.3,5.8-6.5,9-13.5,7.7
		c-5.5-1-10.8-2.7-16.9-4.3c2,4.1,3.5,7.7,5.3,11.1c0.8,1.6,0.3,2.3-1.1,3c-1.4,0.7-2.3,0.8-3.1-1c-2.6-6.4-6.7-12.2-8.6-18.9
		c0.3-1,1.1-1.4,2.1-1.3C702.7,182.6,704,182.9,705.3,183.3z"/>
	<path class="st4" d="M701.3,182.5c-0.6,0.3-1.2,0.6-1.9,0.9c-3.2-4.8-6.4-9.6-9.4-14.5c-0.7-1.2-2.5-2.3-1.3-3.9
		c1.2-1.5,3.1-1.8,5-1.4c5.7,1.2,11.4,2.2,17.1,3.4c4.3,0.9,8.4,0.6,9.8-4.2c1.4-4.4-1.8-7-5.3-8.9c-1.4-0.8-3.8-0.6-2.4-3.6
		c1.4-3,3.2-1,4.5-0.5c6,2.5,9.6,9.2,8.1,14.4c-1.8,5.9-7.1,8.7-14.4,7.5c-4.9-0.8-9.7-1.6-15.4-2.6c2.6,4.2,4.8,7.7,6.9,11.2
		C702.6,181.3,703.1,182.6,701.3,182.5z"/>
	<path class="st4" d="M398.9,97.8c-2.1-0.7-2.4-2.5-2.4-4.4c1.4-5.3,2.9-10.5,4.3-15.8c0.5-1.8,0.9-3.6,1-5.3
		c0.2-2.6-0.6-5.1-3.2-6.3c-2.6-1.2-5.2-0.7-7.4,1.2c-1.4,1.2-2.6,2.6-3.3,4.3c-0.7,1.9-1.8,1.4-3.1,0.9c-1.3-0.5-1.5-1.5-1.1-2.8
		c1.6-5.4,8.9-9.8,14.6-8.9c5.2,0.9,8.8,6,8,12.5c-0.6,4.7-2.2,9.3-3.3,14c-0.3,1.1-1,2.1-0.1,3.5c3.4-1.7,6.8-3.3,10.1-5.1
		c1.3-0.7,2.3-1,3.1,0.7c0.8,1.7,0.7,2.6-1.2,3.5C409.6,92.4,404.3,95.1,398.9,97.8z"/>
	<path class="st4" d="M667.9,445.6c-3.3,3.3-6,6-8.6,8.8c-1.3,1.4-2.1,1.6-3.5,0.2c-1.4-1.4-0.8-2.2,0.2-3.2
		c3.9-3.9,7.7-7.8,11.7-11.6c0.8-0.8,1.4-2.7,3.1-1.5c1.2,0.9,2.2,1.8,2.2,3.6c0,4.8,0.1,9.6,0.3,14.4c0.1,1.7,0.2,3.3,0.4,4.9
		c0.5,3.9,1.7,7.5,6.3,7.5c4.6,0,6.4-3.5,7.3-7.5c0.2-0.8,0.1-1.7,0.4-2.4c0.6-1.2,1.7-0.6,2.6-0.5c1.5,0.2,1.7,1.1,1.7,2.5
		c-0.1,5.9-5.7,12.4-11.3,12.8c-6,0.5-10.6-3.4-11.5-10.5C668.6,457.7,668.4,452.1,667.9,445.6z"/>
	<path class="st3" d="M612.3,483.8c1.6-0.2,2,1.4,3.1,2c-0.9,6.8-3.7,13-5.4,19.6c-1,4-1.5,8,2.7,10c4.4,2.1,7.6-0.6,9.9-4.3
		c0.9-1.5,1.4-3.5,3.9-1.9c2.7,1.7,0.6,3.2-0.2,4.5c-3.2,5.8-9.8,8.6-15.1,6.6c-5.3-2-7.7-7.6-6.1-14.6c1.1-4.9,2.6-9.8,4.1-15.4
		c-3.9,1.9-7.1,3.3-10.4,4.9c-1.6,0.8-2.8,1.6-3.9-0.7c-1.1-2.2,0.3-2.6,1.6-3.2C601.8,488.7,607.1,486.3,612.3,483.8z"/>
	<path class="st5" d="M438.7,499.7c-0.9,0.1-1.7,0.2-2.1,1.1c-2.4,0.5-2.1,2.8-2.6,4.3c-2.8,7.6-5.4,15.3-8.1,22.9
		c-0.6,1.6-0.3,3.6-3.3,2.8c-3.5-1-1.8-3-1.2-4.6c2.9-8.5,6.2-16.8,8.8-25.3c1.2-3.9,2.7-4.9,6.1-2.5
		C436.8,499,437.8,499.3,438.7,499.7z"/>
	<path class="st6" d="M296.8,221.4c-0.4,0-0.9-0.1-1.3-0.1c1.7-2.2-0.5-1.9-1.5-2.2c-8.6-3-17.2-5.9-25.7-9c-1.3-0.5-4,0-2.9-3.3
		c1-3.1,2.6-2.1,4.5-1.4c8.3,2.9,16.6,5.7,24.8,8.6C300.3,215.9,300.3,215.9,296.8,221.4z"/>
	<path class="st5" d="M575.3,80.7c1.1-0.1,2.3-0.1,3.4-0.2c4.6-8.6,6.8-18.2,10.5-27.1c0.5-1.1,0.3-3.1,2-2.9
		c1.6,0.2,4.3,0.2,3.1,3.5c-3.5,9.4-6.9,18.9-10.2,28.4c-0.9,2.6-2.3,2.6-4,1.2C578.5,82.4,577,81.4,575.3,80.7z"/>
	<path class="st7" d="M716.1,358.7c0.1,0.9,0.2,1.8,1,2.3c-1.6,2.1,0.4,1.9,1.5,2.3c8.6,3.1,17.1,6.1,25.7,9.2
		c1.7,0.6,4.1,0.7,2.8,3.8c-1.2,2.9-2.8,1.4-4.4,0.8c-8.4-3-16.8-6.1-25.3-8.8c-3.6-1.2-5-2.5-2.8-6.1
		C715.4,361.3,715.6,359.9,716.1,358.7z"/>
	<path class="st8" d="M434.1,72.6c-3.6,0.1-6.7-3-6.5-6.6c0.3-3.8,2.5-6.2,6.3-6.2c3.8,0,6.1,2.2,6.5,6.1
		C440.8,69.4,437.7,72.6,434.1,72.6z"/>
	<path class="st8" d="M577.8,521.7c-3.8-0.3-6.2-2.1-6.6-6c-0.4-3.6,2.5-6.8,6.2-6.9c3.6-0.1,7,3,6.7,6.5
		C583.7,519,581.6,521.2,577.8,521.7z"/>
	<path class="st8" d="M281.7,356.1c3.7,0.1,6.5,3.2,6.2,6.9c-0.4,3.9-2.7,6-6.6,5.9c-3.9-0.1-6-2.6-6.2-6.3
		C274.8,359,278.1,356,281.7,356.1z"/>
	<path class="st8" d="M738.5,220.3c-0.3,3.2-1.9,5.7-6,6c-3.8,0.3-6.9-2.4-7-6.1c-0.1-3.4,3.1-6.7,6.6-6.7
		C735.4,213.5,738.4,216.5,738.5,220.3z"/>
	<path class="st9" d="M701.3,182.5c1.4-0.1,1.3-1.2,1.3-2.1c0.9,1,1.8,2,2.7,3C704,182.7,702.3,184.2,701.3,182.5z"/>
	<path class="st3" d="M500.5,510.8c-1.4,0.2-3.1-0.5-4.1,1.1C497,508.8,498.9,510.2,500.5,510.8z"/>
	<path class="st1" d="M530.1,264c-9.2,24.6-26.9,34.9-51.5,33.9c-25-1-40.9-14.2-49.2-37.7c0,10.8-0.2,21.7,0.1,32.5
		c0.1,4.1-1,5.5-5.2,5.3c-7.1-0.3-14.3-0.3-21.5,0c-3.9,0.2-4.7-1.2-4.6-4.8c0.1-35.1,0-70.2,0.2-105.3c0-4.8-1.5-6-5.9-5.6
		c-4.1,0.3-8.3,0-12.5,0.1c-2,0-2.7-0.7-2.1-2.7c2.9-10.7,5.8-21.4,8.6-32.1c0.5-2.1,1.6-2.1,3.2-2.1c12.2,0,24.3,0.1,36.5-0.1
		c3.2,0,3.4,1.5,3.4,3.9c-0.1,10.5,0,20.9,0.3,31.7c7.5-23.7,22.5-38.3,48.1-39.4c25.1-1.1,43,9.8,52.7,34.5
		c2.4-5.6,4.4-10.2,7.4-14.3c12.5-16.9,29.7-22.2,49.7-19.8c23.4,2.8,37.4,17.1,43.1,39.1c6.8,26.3,6.8,53-0.5,79.2
		c-6.2,22.1-21.5,34.9-40.8,37C558.2,300.5,540.7,288.4,530.1,264z"/>
	<path class="st1" d="M450.4,360.3c-11.9,23-41.6,21.1-52.7,8.3c-9.9-11.3-10.9-24.5-7.1-38.4c3.3-11.7,11.2-18.8,23.1-21.5
		c15-3.4,28.2,2.6,37.1,16.4c0-3.8,0.3-7.6-0.1-11.4c-0.5-5,2.7-4.2,5.7-4.3c3-0.1,5.9-0.3,5.1,4.2c-0.2,1.3,0,2.6,0,5.2
		c7.5-10.4,17.6-11.9,28.2-10.2c11.3,1.8,18.4,9,22.6,20.4c5.5-12.3,13.8-19.8,26.8-20.9c12.9-1.1,22.4,4.4,29.3,15.4
		c0-3.2,0.3-6.5-0.1-9.7c-0.5-4.2,1.6-4.6,5-4.5c3,0.1,5.8-0.3,5.1,4.2c-0.3,1.8,0,3.6,0,5.4c1.9,0.6,2-1.1,2.6-1.9
		c7.7-9.3,22-12.1,32.6-6.4c6.3,3.4,9.4,9,9.6,15.9c0.3,15.6,0.2,31.3,0.3,46.9c0,2.5-0.9,2.9-3.2,3c-7.3,0.1-7.3,0.2-7.3-7
		c0-11.8,0-23.6,0-35.4c0-9.4-3-14.4-9.5-16c-9.1-2.2-18.3,1.6-22.1,9.3c-1.6,3.3-2.3,6.8-2.3,10.6c0.1,11.5-0.2,23,0.1,34.4
		c0.2,5.1-3,3.9-5.8,4.1c-3,0.1-5.8,0.4-5.2-4.2c0.3-2.2,0.1-4.5,0.1-8.2c-7.8,11.7-18.2,14.8-30.1,13.6
		c-12.3-1.2-21.1-7.5-25.8-20.7c-4.1,11.4-11.2,18.3-22.5,20.2c-10.9,1.8-20.3-0.5-28.6-10c0,8.8,0,16.5,0,24.2c0,1.4,0.8,2,1.9,2.6
		c4.6,2.4,5.9,6.4,5.8,11.2c-0.1,7.2,0,14.3,0,21.5c0,1.7-0.4,4,2.4,4.1c3.1,0,2-2.5,2.1-4.1c0.1-9.5,0-19,0.1-28.4
		c0-2.2-1.2-5.1,3.2-5.2c4.3-0.1,3.1,2.8,3.3,5.1c0.1,0.8,0.1,1.6,0.2,3.4c4.6-7.2,11-8.8,18-8.3c3.3,0.2,4.5-1,4.1-4.2
		c-0.2-1.6,0.1-3.3-0.1-5c-0.3-2.7,0.6-3.8,3.6-3.9c3.2-0.1,3.3,1.5,3.4,4c0.1,9,0.2,9.2,9.1,8.9c4-0.1,5.1,1.1,4.9,5
		c-0.3,7-0.1,14-0.1,20.9c0,8.1,2.7,11.7,8.8,11.9c7.5,0.3,12.9-4.3,13.2-11.8c0.3-7.1,0.2-14.3,0-21.4c-0.1-3.3,0.7-5,4.3-4.5
		c1.3,0.2,2.7,0,4,0c4.3,0,4.3,0,5.1,4.9c4.5-4.9,10.1-6.4,16.3-5.6c6.1,0.8,10.7,4,13.8,9.4c6.3-9.1,16.3-12,26.2-8
		c3.3,1.4,5.6,3.6,6.7,6.9c0.5,1.4,1.7,3.6-0.4,4.2c-1.8,0.5-4.1,1.2-5.8-1.2c-3.8-5.6-9-7.1-14.9-4.8c-2.2,0.8-3.9,2.3-4.1,4.6
		c-0.2,2.3,1.4,3.9,3.5,4.9c4.3,2,8.9,2.4,13.4,3.7c3.7,1,7.4,2.2,9.6,5.7c3.1,4.8,1.6,12.3-3.2,15.6c-9.3,6.6-24.1,4.1-30.9-5.6
		c-3.2,5.4-8.1,8.3-14,8.9c-6,0.7-11.5-0.9-16.7-6.5c0,6.7-0.1,12.4,0.1,18c0.1,2.7-0.5,3.8-3.5,3.8c-3,0-3.7-1.2-3.5-3.8
		c0.2-2.6-0.1-5.3,0.1-8c0.1-2.7,0.1-4.6-3.7-4.6c-4,0-0.3-4-2.6-5.6c-3.1,4.1-7.4,6.6-13,6.7c-5.3,0.1-10.1-1.1-13.4-5.9
		c-1.4,1.8,0.9,5.2-3.1,4.9c-4.5-0.3-9.7,1.4-12.3-4.2c-0.9-2-0.9-4.2-0.9-6.4c0-7.6-0.1-15.3,0.1-22.9c0-2.6-0.8-3.4-3.4-3.5
		c-12.5-0.3-18.5,5.3-18.7,17.9c-0.1,5.3-0.1,10.6,0,16c0.1,2.3-0.6,3.4-3.1,3.1c-1.5-0.1-3-0.1-4.5,0.1c-7.3,1.3-7.9,1.1-10.9-5
		c-6,5.5-12.9,7-20.8,5c-2.7-0.7-5.6-0.2-8.4-0.1c-4.9,0.2-8.6-1.2-9.4-7.1c-7.3,9-16.5,9.2-26.3,6.7c-4.2-1.1-7.5-3.8-8.6-8.2
		c-0.3-1.3-2.3-3.5,0-4.1c1.8-0.5,4.6-1.8,6.2,1.8c2.9,6.2,14.1,8.3,19.5,4c3.3-2.6,3.1-6.8-0.6-9.1c-2.5-1.6-5.5-2.3-8.4-2.9
		c-3.4-0.7-6.8-1.3-10-2.8c-3.9-1.8-6.6-4.5-6.8-9c-0.2-4.8,1.9-8.4,6.2-10.5c4.4-2.2,9.2-3,14-2c3.7,0.8,7.3,1.2,11.1,0.7
		c2.7-0.3,4-0.8,3.7-3.7c-0.2-1.8,0.1-3.7-0.1-5.5c-0.2-2.5,0.2-4,3.4-4c2.9,0,3.9,1,3.6,3.8c-0.2,1.5,0.1,3-0.1,4.5
		c-0.5,3.5,0.5,5.4,4.5,4.8c1.4-0.2,3.5-0.8,3.9,1.8c0,0.2,0.1,0.4,0.2,0.5c1.4,0.9,11.8-4.4,11.8-6.1c0.1-9,0.1-18,0.1-26.9
		C450.9,362.1,450.7,361.7,450.4,360.3z"/>
	<path class="st10" d="M541.6,538.1c-4.6,0.3-7.1-1.2-7.3-5.4c-0.2-4.1,2.9-6.7,9.8-6.5c5.1,0.2,2.7,5.3,3.3,8
		C548.6,540.3,542.8,536.1,541.6,538.1z"/>
	<path class="st11" d="M515.9,524.1c-1.4,3.8-2.7,7.4-4.4,12.3c-2-4.8-3.4-8.3-5.1-12.3C509.6,524.1,512.6,524.1,515.9,524.1z"/>
	<path class="st10" d="M264.5,318.5c3.9,0,6.8,3.8,6.3,9.6c-0.5,5.9-6.2,3.4-9,3.6c-4.4,0.3-2.6-4.7-3-7.3
		C258.2,320.7,260.9,318.9,264.5,318.5z"/>
	<path class="st12" d="M260.4,295.8c3.3-1.4,5.8-2.1,8.1-3.4c4.2-2.4,5-0.5,4.6,3.3c-0.1,1.3,0,2.6,0,4.6
		C269,298.9,265.1,297.5,260.4,295.8z"/>
	<path class="st11" d="M468.8,48.2c-2-4.8,0.3-5.4,3.4-5.6c6.1-0.5,8.8,0.8,9.3,4.8c0.5,4.1-2.5,6.6-9.4,7
		C466.1,54.8,470,49.5,468.8,48.2z"/>
	<path class="st11" d="M499.4,56.6c1.5-4.2,2.9-8,4.5-12.4c0.8,1.8,1.4,3.1,2,4.5C509.4,57.2,509.4,57.2,499.4,56.6z"/>
	<path class="st11" d="M754.8,257.7c0.2,4.3-2.1,6.3-5.6,6.5c-3.8,0.3-7-3.9-6.3-10c0.6-5.5,6.2-3.2,9.1-3.3
		C756.9,250.7,753,255.9,754.8,257.7z"/>
	<path class="st11" d="M752.7,286.7c-1.9,0.8-3.1,1.4-4.3,1.9c-8.8,3.6-8.8,3.6-8.1-6.3C744.2,283.6,748,285,752.7,286.7z"/>
	<path class="st13" d="M368.6,110.3c0.2,5.7-6,9.6-11.3,6.8c-6-3.1-10-8.2-11.5-14.8c-1.1-5.1,4.2-9.8,9.3-8.6
		C360.8,95,368.4,104.4,368.6,110.3z"/>
	<path d="M665.6,481.2c0.1,5.7-5.4,9.4-10.7,6.9c-5.9-2.9-10-7.7-11.6-14.1c-1.5-6.1,3.6-10.9,9.6-9.2
		C658.6,466.4,665.5,475.4,665.6,481.2z"/>
	<path class="st13" d="M705.3,139.7c-0.1,6.8-11.8,16.2-18.6,14.8c-4.6-0.9-7.4-6-5.3-10.4c3.1-6.4,8.3-10.7,15.5-11.9
		C701.6,131.5,705.4,135.1,705.3,139.7z"/>
	<path class="st13" d="M316.7,449.7c-4.9,0.1-8.6-4.6-7.3-9.5c1.5-5.8,10.1-12.9,16.1-13.3c4.9-0.3,9,4.3,8,9
		C332.3,441.9,322.8,449.6,316.7,449.7z"/>
	<path class="st0" d="M400.2,342.7c-0.1-7.8,1.8-15,7.8-20.3c9.9-8.9,25.2-5.7,31.2,6.3c4,8.1,4.4,16.6,1.5,25.2
		c-3.5,10.2-11.8,15.7-21.7,14.5c-9.9-1.2-17.3-8.9-18.4-19.2C400.3,347,400.3,344.8,400.2,342.7z"/>
	<path class="st0" d="M461.4,342.5c-0.3-3.3,0.4-7,1.6-10.7c3.1-9.6,10.8-15.1,20.1-14.5c9.8,0.6,17.2,7.3,19.3,17.7
		c1.3,6.6,0.9,13.2-1,19.7c-2.6,8.4-8.8,13.3-17.4,13.8c-8.6,0.6-15.7-3.5-19.5-11C462.4,353.5,461.4,348.9,461.4,342.5z"/>
	<path class="st14" d="M545.2,346.1c6.3,0,12.6,0.2,18.9-0.1c3.5-0.2,4.7,0.8,4.5,4.4c-0.2,2.9,0.3,5.8-4.2,5.1
		c-2-0.3-3.7-0.1-4.8,2.3c-4.3,9.2-9.5,11.7-20.5,10.4c-8.4-1-14.8-6.6-16.7-14.8c-1.7-7.4-1.7-7.4,5.8-7.4
		C533.9,346.1,539.5,346.1,545.2,346.1z"/>
	<path class="st14" d="M558.1,413.8c-0.1-2.6,0.4-6.2,2.4-9.4c3.2-5.3,9.2-7.5,15.1-5.5c7.3,2.5,11,11.5,8.7,21.6
		c-1.6,7.2-6.8,11-14.1,10.5C562.7,430.4,558.2,424.4,558.1,413.8z"/>
	<path class="st14" d="M540.8,337.1c-5.3,0-10.6,0-15.9,0c-2.5,0-3.5-0.4-2.9-3.4c2.1-9.7,9.6-16.3,19.1-16.3
		c9.2,0,17.2,6.6,19.1,15.8c0.5,2.6,0.2,4.1-3,4C551.8,336.9,546.3,337.1,540.8,337.1z"/>
	<path class="st15" d="M430.5,413.5c0-3.7,0.2-7.3-0.1-11c-0.2-3,1.1-3.7,3.8-3.6c3.7,0.1,1.6,2.1,1.5,3.6c-0.1,1.1-1.2,3.1,0.7,3.3
		c1.9,0.2,4.2,1.3,5.8-1.3c3.5-6,9.5-8.1,15.8-5.6c3,1.2,4.5,3.3,4.5,6.5c0,3.2-2.2,4.3-4.8,4.8c-4.5,1-9.1,1.5-13.6,2.7
		c-8.2,2-10.7,5.5-10.6,13.7c0,1,1.4,3-0.9,3.1c-1.8,0-2.2-1.7-2.1-3.3C430.5,422.2,430.5,417.8,430.5,413.5z"/>
	<path class="st14" d="M592.2,412.3c4.6,2.8,9.4,3.6,14.2,4.6c2.9,0.6,5.8,1.3,8.3,2.9c3.8,2.5,3.7,7.3-0.3,9.7
		c-6.1,3.7-15.5,1.3-19-4.9c-0.1-0.1,0-0.4-0.1-0.5C588.2,421.9,593.5,416.3,592.2,412.3z"/>
	<path class="st16" d="M423.6,419.2c-4.5-5.8-10.2-6.9-15.8-8.2c-3.1-0.7-6.1-1.3-9-2.8c-1.9-1-3.3-2.5-3.2-4.6
		c0.1-2.1,1.7-3.6,3.6-4.4c5.7-2.7,12-1,15.4,4.5c1.6,2.6,3.8,1.7,5.7,1.4c2.2-0.4,1-2.4,0.8-3.7c-0.2-1-0.7-2.1,0.8-2.1
		c1.3-0.1,1.5,1.1,1.5,2.1c0,0.7,0,1.3,0,2C423.6,408.3,423.6,413.2,423.6,419.2z"/>
	<path class="st15" d="M462.2,414c1.1,12.3-3.9,18-14.7,16.9c-3.4-0.3-6.2-1.9-6.8-5.4c-0.6-3.7,1.2-6.3,4.7-7.8
		C450.7,415.6,456.5,416.5,462.2,414z"/>
	<path class="st17" d="M509.5,414c0-4,0.1-7.9,0-11.9c-0.1-2.9,1.5-3.2,3.8-3.1c2.2,0,3.8,0.1,3.9,3c0.2,8.7-0.7,17.5,0.7,26.2
		c0.4,2.5-1.4,1.7-2.5,1.7c-2.7,0.1-5.7,0.4-5.8-3.5C509.4,422.3,509.5,418.2,509.5,414z"/>
</g>
</svg>
