<svg width="45" height="36" viewBox="0 0 45 36" fill="none" xmlns="http://www.w3.org/2000/svg">
<path d="M22.2994 0.769531C22.2994 0.769531 8.62674 0.769463 5.21648 1.68324C3.33427 2.18604 1.85522 3.66727 1.35243 5.54729C0.438652 8.95755 0.438721 18.2581 0.438721 18.2581C0.438721 18.2581 0.438652 27.5586 1.35243 30.9689C1.85522 32.8511 3.33646 34.3301 5.21648 34.8329C8.62674 35.7467 22.2994 35.7466 22.2994 35.7466C22.2994 35.7466 35.9721 35.7467 39.3823 34.8329C41.2624 34.3301 42.7436 32.8489 43.2464 30.9689C44.1602 27.5586 44.1601 18.2581 44.1601 18.2581C44.1601 18.2581 44.1602 8.95755 43.2464 5.54729C42.7436 3.66727 41.2624 2.18604 39.3823 1.68324C35.9721 0.769463 22.2994 0.769531 22.2994 0.769531ZM22.2994 5.14167C28.5997 5.14167 36.4889 5.43375 38.2509 5.90594C38.6203 6.00431 38.9231 6.30712 39.0237 6.67875C39.5505 8.64184 39.788 14.6336 39.788 18.2581C39.788 21.8826 39.5505 27.8721 39.0237 29.8374C38.9253 30.2069 38.6225 30.5097 38.2509 30.6102C36.4911 31.0824 28.5997 31.3745 22.2994 31.3745C16.0013 31.3745 8.1121 31.0824 6.34794 30.6102C5.97849 30.5119 5.67569 30.209 5.57513 29.8374C5.04829 27.8743 4.81086 21.8826 4.81086 18.2581C4.81086 14.6336 5.04829 8.64194 5.57513 6.67448C5.6735 6.30722 5.97631 6.00431 6.34794 5.90594C8.10772 5.43375 15.9992 5.14167 22.2994 5.14167ZM17.9273 10.6837V25.8325L31.0437 18.2581L17.9273 10.6837Z" fill="white"/>
</svg>
